G04 #@! TF.GenerationSoftware,KiCad,Pcbnew,6.0.2+dfsg-1*
G04 #@! TF.CreationDate,2022-07-22T15:02:52-04:00*
G04 #@! TF.ProjectId,buttonplate,62757474-6f6e-4706-9c61-74652e6b6963,rev?*
G04 #@! TF.SameCoordinates,Original*
G04 #@! TF.FileFunction,Copper,L2,Bot*
G04 #@! TF.FilePolarity,Positive*
%FSLAX46Y46*%
G04 Gerber Fmt 4.6, Leading zero omitted, Abs format (unit mm)*
G04 Created by KiCad (PCBNEW 6.0.2+dfsg-1) date 2022-07-22 15:02:52*
%MOMM*%
%LPD*%
G01*
G04 APERTURE LIST*
G04 #@! TA.AperFunction,ComponentPad*
%ADD10R,2.200000X2.200000*%
G04 #@! TD*
G04 #@! TA.AperFunction,ComponentPad*
%ADD11C,2.200000*%
G04 #@! TD*
G04 #@! TA.AperFunction,ComponentPad*
%ADD12C,2.000000*%
G04 #@! TD*
G04 #@! TA.AperFunction,ComponentPad*
%ADD13C,2.250000*%
G04 #@! TD*
G04 #@! TA.AperFunction,Conductor*
%ADD14C,0.250000*%
G04 #@! TD*
G04 APERTURE END LIST*
D10*
G04 #@! TO.P,PT1,1,Pin_1*
G04 #@! TO.N,Net-(P1-Pad2)*
X62484000Y-161163000D03*
D11*
G04 #@! TO.P,PT1,2,Pin_2*
G04 #@! TO.N,Net-(P4-Pad1)*
X65024000Y-161163000D03*
G04 #@! TO.P,PT1,3,Pin_3*
G04 #@! TO.N,Net-(P3-Pad1)*
X67564000Y-161163000D03*
G04 #@! TO.P,PT1,4,Pin_4*
G04 #@! TO.N,Net-(P2-Pad1)*
X70104000Y-161163000D03*
G04 #@! TO.P,PT1,5,Pin_5*
G04 #@! TO.N,Net-(P1-Pad1)*
X72644000Y-161163000D03*
G04 #@! TD*
D12*
G04 #@! TO.P,K4,1,COL*
G04 #@! TO.N,Net-(K4-Pad1)*
X39878000Y-170847600D03*
D13*
X42418000Y-159867600D03*
G04 #@! TO.P,K4,2,ROW*
G04 #@! TO.N,Net-(K1-Pad2)*
X36068000Y-162407600D03*
D12*
X34878000Y-168747600D03*
G04 #@! TD*
G04 #@! TO.P,P3,1,COL*
G04 #@! TO.N,Net-(P3-Pad1)*
X64008000Y-124264000D03*
D13*
X66548000Y-113284000D03*
G04 #@! TO.P,P3,2,ROW*
G04 #@! TO.N,Net-(P1-Pad2)*
X60198000Y-115824000D03*
D12*
X59008000Y-122164000D03*
G04 #@! TD*
G04 #@! TO.P,K1,1,COL*
G04 #@! TO.N,Net-(K1-Pad1)*
X120497600Y-162160800D03*
D13*
X123037600Y-151180800D03*
G04 #@! TO.P,K1,2,ROW*
G04 #@! TO.N,Net-(K1-Pad2)*
X116687600Y-153720800D03*
D12*
X115497600Y-160060800D03*
G04 #@! TD*
G04 #@! TO.P,K3,1,COL*
G04 #@! TO.N,Net-(K3-Pad1)*
X63982600Y-155048800D03*
D13*
X66522600Y-144068800D03*
G04 #@! TO.P,K3,2,ROW*
G04 #@! TO.N,Net-(K1-Pad2)*
X60172600Y-146608800D03*
D12*
X58982600Y-152948800D03*
G04 #@! TD*
G04 #@! TO.P,P1,1,COL*
G04 #@! TO.N,Net-(P1-Pad1)*
X120523000Y-131376000D03*
D13*
X123063000Y-120396000D03*
G04 #@! TO.P,P1,2,ROW*
G04 #@! TO.N,Net-(P1-Pad2)*
X116713000Y-122936000D03*
D12*
X115523000Y-129276000D03*
G04 #@! TD*
G04 #@! TO.P,K2,1,COL*
G04 #@! TO.N,Net-(K2-Pad1)*
X92456000Y-155125000D03*
D13*
X94996000Y-144145000D03*
G04 #@! TO.P,K2,2,ROW*
G04 #@! TO.N,Net-(K1-Pad2)*
X88646000Y-146685000D03*
D12*
X87456000Y-153025000D03*
G04 #@! TD*
D10*
G04 #@! TO.P,KT1,1,Pin_1*
G04 #@! TO.N,Net-(K1-Pad2)*
X88011000Y-161163000D03*
D11*
G04 #@! TO.P,KT1,2,Pin_2*
G04 #@! TO.N,Net-(K4-Pad1)*
X90551000Y-161163000D03*
G04 #@! TO.P,KT1,3,Pin_3*
G04 #@! TO.N,Net-(K3-Pad1)*
X93091000Y-161163000D03*
G04 #@! TO.P,KT1,4,Pin_4*
G04 #@! TO.N,Net-(K2-Pad1)*
X95631000Y-161163000D03*
G04 #@! TO.P,KT1,5,Pin_5*
G04 #@! TO.N,Net-(K1-Pad1)*
X98171000Y-161163000D03*
G04 #@! TD*
D12*
G04 #@! TO.P,P2,1,COL*
G04 #@! TO.N,Net-(P2-Pad1)*
X92456000Y-124264000D03*
D13*
X94996000Y-113284000D03*
G04 #@! TO.P,P2,2,ROW*
G04 #@! TO.N,Net-(P1-Pad2)*
X88646000Y-115824000D03*
D12*
X87456000Y-122164000D03*
G04 #@! TD*
G04 #@! TO.P,P4,1,COL*
G04 #@! TO.N,Net-(P4-Pad1)*
X39852600Y-140088200D03*
D13*
X42392600Y-129108200D03*
G04 #@! TO.P,P4,2,ROW*
G04 #@! TO.N,Net-(P1-Pad2)*
X36042600Y-131648200D03*
D12*
X34852600Y-137988200D03*
G04 #@! TD*
D14*
G04 #@! TO.N,Net-(K1-Pad1)*
X123037600Y-151180800D02*
X123037600Y-159620800D01*
X123037600Y-159620800D02*
X120497600Y-162160800D01*
G04 #@! TO.N,Net-(K2-Pad1)*
X94996000Y-144145000D02*
X94996000Y-152585000D01*
X94996000Y-152585000D02*
X92456000Y-155125000D01*
G04 #@! TO.N,Net-(K3-Pad1)*
X63982600Y-155048800D02*
X67005200Y-152026200D01*
X67005200Y-152026200D02*
X67005200Y-145288000D01*
X67005200Y-145288000D02*
X66522600Y-144805400D01*
X66522600Y-144805400D02*
X66522600Y-144068800D01*
G04 #@! TO.N,Net-(K4-Pad1)*
X42418000Y-159867600D02*
X42418000Y-168307600D01*
X42418000Y-168307600D02*
X39878000Y-170847600D01*
G04 #@! TO.N,Net-(P1-Pad1)*
X120523000Y-131376000D02*
X100875366Y-131376000D01*
X100875366Y-131376000D02*
X72644000Y-159607366D01*
X72644000Y-159607366D02*
X72644000Y-161163000D01*
G04 #@! TO.N,Net-(P2-Pad1)*
X70104000Y-161163000D02*
X92456000Y-138811000D01*
X92456000Y-138811000D02*
X92456000Y-124264000D01*
G04 #@! TO.N,Net-(P3-Pad1)*
X67564000Y-161163000D02*
X70967600Y-157759400D01*
X70967600Y-157759400D02*
X70967600Y-142036800D01*
X70967600Y-142036800D02*
X64008000Y-135077200D01*
X64008000Y-135077200D02*
X64008000Y-124264000D01*
G04 #@! TO.N,Net-(P4-Pad1)*
X65024000Y-160172400D02*
X63652400Y-158800800D01*
X65024000Y-161163000D02*
X65024000Y-160172400D01*
X63652400Y-158800800D02*
X58565200Y-158800800D01*
X58565200Y-158800800D02*
X39852600Y-140088200D01*
G04 #@! TO.N,Net-(P1-Pad1)*
X123063000Y-120396000D02*
X123063000Y-128836000D01*
X123063000Y-128836000D02*
X120523000Y-131376000D01*
G04 #@! TO.N,Net-(P2-Pad1)*
X94996000Y-113284000D02*
X94996000Y-121724000D01*
X94996000Y-121724000D02*
X92456000Y-124264000D01*
G04 #@! TO.N,Net-(P1-Pad2)*
X34852600Y-137988200D02*
X58027400Y-161163000D01*
X58027400Y-161163000D02*
X62484000Y-161163000D01*
X36042600Y-131648200D02*
X36042600Y-136798200D01*
X36042600Y-136798200D02*
X34852600Y-137988200D01*
G04 #@! TO.N,Net-(P3-Pad1)*
X66548000Y-113284000D02*
X66548000Y-121724000D01*
X66548000Y-121724000D02*
X64008000Y-124264000D01*
G04 #@! TO.N,Net-(P4-Pad1)*
X42392600Y-129108200D02*
X42392600Y-137548200D01*
X42392600Y-137548200D02*
X39852600Y-140088200D01*
G04 #@! TD*
M02*
