M48
; DRILL file {KiCad 6.0.2+dfsg-1} date Fri 22 Jul 2022 03:03:33 PM EDT
; FORMAT={-:-/ absolute / inch / decimal}
; #@! TF.CreationDate,2022-07-22T15:03:33-04:00
; #@! TF.GenerationSoftware,Kicad,Pcbnew,6.0.2+dfsg-1
; #@! TF.FileFunction,Plated,1,2,PTH
FMAT,2
INCH
; #@! TA.AperFunction,Plated,PTH,ComponentDrill
T1C0.0433
; #@! TA.AperFunction,Plated,PTH,ComponentDrill
T2C0.0472
; #@! TA.AperFunction,Plated,PTH,ComponentDrill
T3C0.0579
%
G90
G05
T1
X2.46Y-6.345
X2.56Y-6.345
X2.66Y-6.345
X2.76Y-6.345
X2.86Y-6.345
X3.465Y-6.345
X3.565Y-6.345
X3.665Y-6.345
X3.765Y-6.345
X3.865Y-6.345
T2
X1.3721Y-5.4326
X1.3731Y-6.6436
X1.569Y-5.5153
X1.57Y-6.7263
X2.3221Y-6.0216
X2.3231Y-4.8096
X2.519Y-6.1043
X2.52Y-4.8923
X3.4431Y-4.8096
X3.4431Y-6.0246
X3.64Y-4.8923
X3.64Y-6.1073
X4.5471Y-6.3016
X4.5481Y-5.0896
X4.744Y-6.3843
X4.745Y-5.1723
T3
X1.419Y-5.183
X1.42Y-6.394
X1.669Y-5.083
X1.67Y-6.294
X2.369Y-5.772
X2.37Y-4.56
X2.619Y-5.672
X2.62Y-4.46
X3.49Y-4.56
X3.49Y-5.775
X3.74Y-4.46
X3.74Y-5.675
X4.594Y-6.052
X4.595Y-4.84
X4.844Y-5.952
X4.845Y-4.74
T0
M30
