M48
; DRILL file {KiCad 6.0.2+dfsg-1} date Fri 22 Jul 2022 03:03:33 PM EDT
; FORMAT={-:-/ absolute / inch / decimal}
; #@! TF.CreationDate,2022-07-22T15:03:33-04:00
; #@! TF.GenerationSoftware,Kicad,Pcbnew,6.0.2+dfsg-1
; #@! TF.FileFunction,NonPlated,1,2,NPTH
FMAT,2
INCH
; #@! TA.AperFunction,NonPlated,NPTH,ComponentDrill
T1C0.0669
; #@! TA.AperFunction,NonPlated,NPTH,ComponentDrill
T2C0.1570
%
G90
G05
T2
X1.569Y-5.283
X1.57Y-6.494
X2.519Y-5.872
X2.52Y-4.66
X3.64Y-4.66
X3.64Y-5.875
X4.744Y-6.152
X4.745Y-4.94
T1
G00X1.3698Y-5.283
M15
G01X1.3522Y-5.283
M16
G05
G00X1.3708Y-6.494
M15
G01X1.3532Y-6.494
M16
G05
G00X1.7858Y-5.283
M15
G01X1.7682Y-5.283
M16
G05
G00X1.7868Y-6.494
M15
G01X1.7692Y-6.494
M16
G05
G00X2.3198Y-5.872
M15
G01X2.3022Y-5.872
M16
G05
G00X2.3208Y-4.66
M15
G01X2.3032Y-4.66
M16
G05
G00X2.7358Y-5.872
M15
G01X2.7182Y-5.872
M16
G05
G00X2.7368Y-4.66
M15
G01X2.7192Y-4.66
M16
G05
G00X3.4408Y-4.66
M15
G01X3.4232Y-4.66
M16
G05
G00X3.4408Y-5.875
M15
G01X3.4232Y-5.875
M16
G05
G00X3.8568Y-4.66
M15
G01X3.8392Y-4.66
M16
G05
G00X3.8568Y-5.875
M15
G01X3.8392Y-5.875
M16
G05
G00X4.5448Y-6.152
M15
G01X4.5272Y-6.152
M16
G05
G00X4.5458Y-4.94
M15
G01X4.5282Y-4.94
M16
G05
G00X4.9608Y-6.152
M15
G01X4.9432Y-6.152
M16
G05
G00X4.9618Y-4.94
M15
G01X4.9442Y-4.94
M16
G05
T0
M30
