G04 #@! TF.GenerationSoftware,KiCad,Pcbnew,6.0.2+dfsg-1*
G04 #@! TF.CreationDate,2022-07-22T15:02:53-04:00*
G04 #@! TF.ProjectId,buttonplate,62757474-6f6e-4706-9c61-74652e6b6963,rev?*
G04 #@! TF.SameCoordinates,Original*
G04 #@! TF.FileFunction,Profile,NP*
%FSLAX46Y46*%
G04 Gerber Fmt 4.6, Leading zero omitted, Abs format (unit mm)*
G04 Created by KiCad (PCBNEW 6.0.2+dfsg-1) date 2022-07-22 15:02:53*
%MOMM*%
%LPD*%
G01*
G04 APERTURE LIST*
G04 #@! TA.AperFunction,Profile*
%ADD10C,0.200000*%
G04 #@! TD*
G04 APERTURE END LIST*
D10*
X60123457Y-166116169D02*
X110639469Y-166116169D01*
X63610037Y-103711958D02*
X92063559Y-103106711D01*
X55671442Y-106388671D02*
X32322400Y-122431546D01*
X53392757Y-162273417D02*
G75*
G03*
X56392757Y-162273417I1500000J0D01*
G01*
X50038717Y-121330591D02*
G75*
G03*
X47038717Y-121330591I-1500000J0D01*
G01*
X25913075Y-164953792D02*
G75*
G03*
X49688399Y-174956418I13991787J-1D01*
G01*
X32400391Y-149566213D02*
G75*
G03*
X35400391Y-149566213I1500000J0D01*
G01*
X96433723Y-103713569D02*
G75*
G03*
X92063559Y-103106711I-4085501J-13382047D01*
G01*
X35400391Y-149566213D02*
G75*
G03*
X32400391Y-149566213I-1500000J0D01*
G01*
X134539804Y-125450892D02*
G75*
G03*
X124519647Y-112027867I-13991787J6755D01*
G01*
X106529807Y-158532125D02*
G75*
G03*
X103529807Y-158532125I-1500000J0D01*
G01*
X125024832Y-140869912D02*
G75*
G03*
X128024832Y-140869912I1500000J0D01*
G01*
X109440304Y-116195552D02*
G75*
G03*
X106440304Y-116195552I-1500000J0D01*
G01*
X26157719Y-134029242D02*
X25913075Y-164953792D01*
X106440304Y-116195552D02*
G75*
G03*
X109440304Y-116195552I1500000J0D01*
G01*
X63610037Y-103711958D02*
G75*
G03*
X55671442Y-106388671I296092J-13988649D01*
G01*
X128024832Y-140869912D02*
G75*
G03*
X125024832Y-140869912I-1500000J0D01*
G01*
X60123457Y-166116169D02*
X49688399Y-174956418D01*
X32322400Y-122431546D02*
G75*
G03*
X26157719Y-134029242I7827106J-11597695D01*
G01*
X87969676Y-133755482D02*
G75*
G03*
X84969676Y-133755482I-1500000J0D01*
G01*
X110639469Y-166116169D02*
G75*
G03*
X134524943Y-156229237I9893688J9893688D01*
G01*
X84969676Y-133755482D02*
G75*
G03*
X87969676Y-133755482I1500000J0D01*
G01*
X96433723Y-103713569D02*
X124519647Y-112027867D01*
X56392757Y-162273417D02*
G75*
G03*
X53392757Y-162273417I-1500000J0D01*
G01*
X68502400Y-133756400D02*
G75*
G03*
X71502400Y-133756400I1500000J0D01*
G01*
X47038717Y-121330591D02*
G75*
G03*
X50038717Y-121330591I1500000J0D01*
G01*
X103529807Y-158532125D02*
G75*
G03*
X106529807Y-158532125I1500000J0D01*
G01*
X134539804Y-125450892D02*
X134524943Y-156229237D01*
X71502400Y-133756400D02*
G75*
G03*
X68502400Y-133756400I-1500000J0D01*
G01*
M02*
