G04 #@! TF.GenerationSoftware,KiCad,Pcbnew,6.0.11-2627ca5db0~126~ubuntu22.04.1*
G04 #@! TF.CreationDate,2023-03-31T10:20:35-07:00*
G04 #@! TF.ProjectId,mini-button-pcb,6d696e69-2d62-4757-9474-6f6e2d706362,rev?*
G04 #@! TF.SameCoordinates,Original*
G04 #@! TF.FileFunction,Legend,Top*
G04 #@! TF.FilePolarity,Positive*
%FSLAX46Y46*%
G04 Gerber Fmt 4.6, Leading zero omitted, Abs format (unit mm)*
G04 Created by KiCad (PCBNEW 6.0.11-2627ca5db0~126~ubuntu22.04.1) date 2023-03-31 10:20:35*
%MOMM*%
%LPD*%
G01*
G04 APERTURE LIST*
G04 Aperture macros list*
%AMRoundRect*
0 Rectangle with rounded corners*
0 $1 Rounding radius*
0 $2 $3 $4 $5 $6 $7 $8 $9 X,Y pos of 4 corners*
0 Add a 4 corners polygon primitive as box body*
4,1,4,$2,$3,$4,$5,$6,$7,$8,$9,$2,$3,0*
0 Add four circle primitives for the rounded corners*
1,1,$1+$1,$2,$3*
1,1,$1+$1,$4,$5*
1,1,$1+$1,$6,$7*
1,1,$1+$1,$8,$9*
0 Add four rect primitives between the rounded corners*
20,1,$1+$1,$2,$3,$4,$5,0*
20,1,$1+$1,$4,$5,$6,$7,0*
20,1,$1+$1,$6,$7,$8,$9,0*
20,1,$1+$1,$8,$9,$2,$3,0*%
G04 Aperture macros list end*
%ADD10C,0.120000*%
%ADD11C,2.200000*%
%ADD12C,2.000000*%
%ADD13RoundRect,0.250000X0.625000X-0.350000X0.625000X0.350000X-0.625000X0.350000X-0.625000X-0.350000X0*%
%ADD14O,1.750000X1.200000*%
G04 APERTURE END LIST*
D10*
X122250000Y-73750000D02*
X117750000Y-73750000D01*
X123500000Y-77750000D02*
X123500000Y-76250000D01*
X116500000Y-76250000D02*
X116500000Y-77750000D01*
X117750000Y-80250000D02*
X122250000Y-80250000D01*
X152150000Y-80800000D02*
X154410000Y-80800000D01*
X150050000Y-79500000D02*
X150050000Y-74500000D01*
X150550000Y-72700000D02*
X152150000Y-72700000D01*
X148190000Y-82060000D02*
X148190000Y-81140000D01*
X146590000Y-81140000D02*
X146590000Y-82060000D01*
X148190000Y-80860000D02*
X148190000Y-81140000D01*
X146590000Y-82060000D02*
X154410000Y-82060000D01*
X152150000Y-81300000D02*
X152150000Y-80300000D01*
X154410000Y-79500000D02*
X150050000Y-79500000D01*
X148190000Y-72860000D02*
X148190000Y-73140000D01*
X150550000Y-81300000D02*
X152150000Y-81300000D01*
X150050000Y-74500000D02*
X154410000Y-74500000D01*
X152150000Y-73700000D02*
X150550000Y-73700000D01*
X152150000Y-72700000D02*
X152150000Y-73700000D01*
X146590000Y-72860000D02*
X148190000Y-72860000D01*
X152150000Y-80300000D02*
X150550000Y-80300000D01*
X154410000Y-82060000D02*
X154410000Y-71940000D01*
X154410000Y-71940000D02*
X146590000Y-71940000D01*
X150550000Y-80300000D02*
X150550000Y-81300000D01*
X150550000Y-73700000D02*
X150550000Y-72700000D01*
X148190000Y-81140000D02*
X146590000Y-81140000D01*
X146590000Y-71940000D02*
X146590000Y-72860000D01*
X152150000Y-80300000D02*
X154410000Y-80300000D01*
X148190000Y-71940000D02*
X148190000Y-72860000D01*
X148190000Y-80860000D02*
X146975000Y-80860000D01*
X136500000Y-76250000D02*
X136500000Y-77750000D01*
X143500000Y-77750000D02*
X143500000Y-76250000D01*
X142250000Y-73750000D02*
X137750000Y-73750000D01*
X137750000Y-80250000D02*
X142250000Y-80250000D01*
X127750000Y-80250000D02*
X132250000Y-80250000D01*
X133500000Y-77750000D02*
X133500000Y-76250000D01*
X126500000Y-76250000D02*
X126500000Y-77750000D01*
X132250000Y-73750000D02*
X127750000Y-73750000D01*
%LPC*%
D11*
X113800000Y-71200000D03*
D12*
X116750000Y-74750000D03*
X123250000Y-74750000D03*
X116750000Y-79250000D03*
X123250000Y-79250000D03*
D13*
X148050000Y-80000000D03*
D14*
X148050000Y-78000000D03*
X148050000Y-76000000D03*
X148050000Y-74000000D03*
D12*
X136750000Y-74750000D03*
X143250000Y-74750000D03*
X136750000Y-79250000D03*
X143250000Y-79250000D03*
X126750000Y-74750000D03*
X133250000Y-74750000D03*
X133250000Y-79250000D03*
X126750000Y-79250000D03*
D11*
X113792000Y-82804000D03*
X143800000Y-83200000D03*
X143800000Y-70800000D03*
M02*
