  0
SECTION
  2
HEADER
  9
$ACADVER
  1
AC1027
  9
$ACADMAINTVER
 70
   105
  9
$DWGCODEPAGE
  3
ANSI_1252
  9
$LASTSAVEDBY
  1
dm
  9
$REQUIREDVERSIONS
160
                 0
  9
$INSBASE
 10
0.0
 20
0.0
 30
0.0
  9
$EXTMIN
 10
-175.4289321881345
 20
-94.57106781204777
 30
0.0
  9
$EXTMAX
 10
156.9129547427185
 20
95.42893218813455
 30
0.0
  9
$LIMMIN
 10
0.0
 20
0.0
  9
$LIMMAX
 10
12.0
 20
9.0
  9
$ORTHOMODE
 70
     0
  9
$REGENMODE
 70
     1
  9
$FILLMODE
 70
     1
  9
$QTEXTMODE
 70
     0
  9
$MIRRTEXT
 70
     0
  9
$LTSCALE
 40
1.0
  9
$ATTMODE
 70
     1
  9
$TEXTSIZE
 40
0.2
  9
$TRACEWID
 40
0.05
  9
$TEXTSTYLE
  7
Standard
  9
$CLAYER
  8
0
  9
$CELTYPE
  6
ByLayer
  9
$CECOLOR
 62
   256
  9
$CELTSCALE
 40
1.0
  9
$DISPSILH
 70
     0
  9
$DIMSCALE
 40
1.0
  9
$DIMASZ
 40
2.5
  9
$DIMEXO
 40
0.625
  9
$DIMDLI
 40
5.0
  9
$DIMRND
 40
0.0
  9
$DIMDLE
 40
0.0
  9
$DIMEXE
 40
1.25
  9
$DIMTP
 40
0.0
  9
$DIMTM
 40
0.0
  9
$DIMTXT
 40
2.5
  9
$DIMCEN
 40
0.09
  9
$DIMTSZ
 40
0.0
  9
$DIMTOL
 70
     0
  9
$DIMLIM
 70
     0
  9
$DIMTIH
 70
     0
  9
$DIMTOH
 70
     1
  9
$DIMSE1
 70
     0
  9
$DIMSE2
 70
     0
  9
$DIMTAD
 70
     1
  9
$DIMZIN
 70
     8
  9
$DIMBLK
  1

  9
$DIMASO
 70
     1
  9
$DIMSHO
 70
     1
  9
$DIMPOST
  1

  9
$DIMAPOST
  1

  9
$DIMALT
 70
     0
  9
$DIMALTD
 70
     2
  9
$DIMALTF
 40
25.4
  9
$DIMLFAC
 40
1.0
  9
$DIMTOFL
 70
     0
  9
$DIMTVP
 40
0.0
  9
$DIMTIX
 70
     0
  9
$DIMSOXD
 70
     0
  9
$DIMSAH
 70
     0
  9
$DIMBLK1
  1

  9
$DIMBLK2
  1

  9
$DIMSTYLE
  2
Standard
  9
$DIMCLRD
 70
     0
  9
$DIMCLRE
 70
     0
  9
$DIMCLRT
 70
     0
  9
$DIMTFAC
 40
1.0
  9
$DIMGAP
 40
0.625
  9
$DIMJUST
 70
     0
  9
$DIMSD1
 70
     0
  9
$DIMSD2
 70
     0
  9
$DIMTOLJ
 70
     1
  9
$DIMTZIN
 70
     0
  9
$DIMALTZ
 70
     0
  9
$DIMALTTZ
 70
     0
  9
$DIMUPT
 70
     0
  9
$DIMDEC
 70
     4
  9
$DIMTDEC
 70
     4
  9
$DIMALTU
 70
     2
  9
$DIMALTTD
 70
     2
  9
$DIMTXSTY
  7
Standard
  9
$DIMAUNIT
 70
     0
  9
$DIMADEC
 70
     0
  9
$DIMALTRND
 40
0.0
  9
$DIMAZIN
 70
     2
  9
$DIMDSEP
 70
    46
  9
$DIMATFIT
 70
     0
  9
$DIMFRAC
 70
     0
  9
$DIMLDRBLK
  1

  9
$DIMLUNIT
 70
     2
  9
$DIMLWD
 70
    -2
  9
$DIMLWE
 70
    -2
  9
$DIMTMOVE
 70
     0
  9
$DIMFXL
 40
1.0
  9
$DIMFXLON
 70
     0
  9
$DIMJOGANG
 40
0.7853981633974483
  9
$DIMTFILL
 70
     0
  9
$DIMTFILLCLR
 70
     0
  9
$DIMARCSYM
 70
     0
  9
$DIMLTYPE
  6

  9
$DIMLTEX1
  6

  9
$DIMLTEX2
  6

  9
$DIMTXTDIRECTION
 70
     0
  9
$LUNITS
 70
     2
  9
$LUPREC
 70
     4
  9
$SKETCHINC
 40
0.1
  9
$FILLETRAD
 40
0.5
  9
$AUNITS
 70
     0
  9
$AUPREC
 70
     0
  9
$MENU
  1
.
  9
$ELEVATION
 40
0.0
  9
$PELEVATION
 40
0.0
  9
$THICKNESS
 40
0.0
  9
$LIMCHECK
 70
     0
  9
$CHAMFERA
 40
0.0
  9
$CHAMFERB
 40
0.0
  9
$CHAMFERC
 40
0.0
  9
$CHAMFERD
 40
0.0
  9
$SKPOLY
 70
     0
  9
$TDCREATE
 40
2459949.85399838
  9
$TDUCREATE
 40
2459950.145665046
  9
$TDUPDATE
 40
2459949.853998634
  9
$TDUUPDATE
 40
2459950.145665301
  9
$TDINDWG
 40
0.0000000116
  9
$TDUSRTIMER
 40
0.0000000116
  9
$USRTIMER
 70
     1
  9
$ANGBASE
 50
0.0
  9
$ANGDIR
 70
     0
  9
$PDMODE
 70
     0
  9
$PDSIZE
 40
0.0
  9
$PLINEWID
 40
0.0
  9
$SPLFRAME
 70
     0
  9
$SPLINETYPE
 70
     6
  9
$SPLINESEGS
 70
     8
  9
$HANDSEED
  5
48D
  9
$SURFTAB1
 70
     6
  9
$SURFTAB2
 70
     6
  9
$SURFTYPE
 70
     6
  9
$SURFU
 70
     6
  9
$SURFV
 70
     6
  9
$UCSBASE
  2

  9
$UCSNAME
  2

  9
$UCSORG
 10
0.0
 20
0.0
 30
0.0
  9
$UCSXDIR
 10
1.0
 20
0.0
 30
0.0
  9
$UCSYDIR
 10
0.0
 20
1.0
 30
0.0
  9
$UCSORTHOREF
  2

  9
$UCSORTHOVIEW
 70
     0
  9
$UCSORGTOP
 10
0.0
 20
0.0
 30
0.0
  9
$UCSORGBOTTOM
 10
0.0
 20
0.0
 30
0.0
  9
$UCSORGLEFT
 10
0.0
 20
0.0
 30
0.0
  9
$UCSORGRIGHT
 10
0.0
 20
0.0
 30
0.0
  9
$UCSORGFRONT
 10
0.0
 20
0.0
 30
0.0
  9
$UCSORGBACK
 10
0.0
 20
0.0
 30
0.0
  9
$PUCSBASE
  2

  9
$PUCSNAME
  2

  9
$PUCSORG
 10
0.0
 20
0.0
 30
0.0
  9
$PUCSXDIR
 10
1.0
 20
0.0
 30
0.0
  9
$PUCSYDIR
 10
0.0
 20
1.0
 30
0.0
  9
$PUCSORTHOREF
  2

  9
$PUCSORTHOVIEW
 70
     0
  9
$PUCSORGTOP
 10
0.0
 20
0.0
 30
0.0
  9
$PUCSORGBOTTOM
 10
0.0
 20
0.0
 30
0.0
  9
$PUCSORGLEFT
 10
0.0
 20
0.0
 30
0.0
  9
$PUCSORGRIGHT
 10
0.0
 20
0.0
 30
0.0
  9
$PUCSORGFRONT
 10
0.0
 20
0.0
 30
0.0
  9
$PUCSORGBACK
 10
0.0
 20
0.0
 30
0.0
  9
$USERI1
 70
     0
  9
$USERI2
 70
     0
  9
$USERI3
 70
     0
  9
$USERI4
 70
     0
  9
$USERI5
 70
     0
  9
$USERR1
 40
0.0
  9
$USERR2
 40
0.0
  9
$USERR3
 40
0.0
  9
$USERR4
 40
0.0
  9
$USERR5
 40
0.0
  9
$WORLDVIEW
 70
     1
  9
$SHADEDGE
 70
     3
  9
$SHADEDIF
 70
    70
  9
$TILEMODE
 70
     1
  9
$MAXACTVP
 70
    64
  9
$PINSBASE
 10
0.0
 20
0.0
 30
0.0
  9
$PLIMCHECK
 70
     0
  9
$PEXTMIN
 10
0.0
 20
0.0
 30
0.0
  9
$PEXTMAX
 10
0.0
 20
0.0
 30
0.0
  9
$PLIMMIN
 10
-20.0
 20
-7.5
  9
$PLIMMAX
 10
277.0
 20
202.5
  9
$UNITMODE
 70
     0
  9
$VISRETAIN
 70
     1
  9
$PLINEGEN
 70
     0
  9
$PSLTSCALE
 70
     1
  9
$TREEDEPTH
 70
  3020
  9
$CMLSTYLE
  2
Standard
  9
$CMLJUST
 70
     0
  9
$CMLSCALE
 40
1.0
  9
$PROXYGRAPHICS
 70
     1
  9
$MEASUREMENT
 70
     1
  9
$CELWEIGHT
370
    -1
  9
$ENDCAPS
280
     0
  9
$JOINSTYLE
280
     0
  9
$LWDISPLAY
290
     0
  9
$INSUNITS
 70
     4
  9
$HYPERLINKBASE
  1

  9
$STYLESHEET
  1

  9
$XEDIT
290
     1
  9
$CEPSNTYPE
380
     0
  9
$PSTYLEMODE
290
     1
  9
$FINGERPRINTGUID
  2
{66617774-b178-f271-b779-316665667471}
  9
$VERSIONGUID
  2
{FAEB1C32-E019-11D5-929B-00C0DF256EC4}
  9
$EXTNAMES
290
     1
  9
$PSVPSCALE
 40
0.0
  9
$OLESTARTUP
290
     0
  9
$SORTENTS
280
   127
  9
$INDEXCTL
280
     0
  9
$HIDETEXT
280
     1
  9
$XCLIPFRAME
280
     2
  9
$HALOGAP
280
     0
  9
$OBSCOLOR
 70
   257
  9
$OBSLTYPE
280
     0
  9
$INTERSECTIONDISPLAY
280
     0
  9
$INTERSECTIONCOLOR
 70
   257
  9
$DIMASSOC
280
     2
  9
$PROJECTNAME
  1

  9
$CAMERADISPLAY
290
     0
  9
$LENSLENGTH
 40
50.0
  9
$CAMERAHEIGHT
 40
0.0
  9
$STEPSPERSEC
 40
2.0
  9
$STEPSIZE
 40
6.0
  9
$3DDWFPREC
 40
2.0
  9
$PSOLWIDTH
 40
0.25
  9
$PSOLHEIGHT
 40
4.0
  9
$LOFTANG1
 40
1.570796326794897
  9
$LOFTANG2
 40
1.570796326794897
  9
$LOFTMAG1
 40
0.0
  9
$LOFTMAG2
 40
0.0
  9
$LOFTPARAM
 70
     7
  9
$LOFTNORMALS
280
     1
  9
$LATITUDE
 40
37.795
  9
$LONGITUDE
 40
-122.394
  9
$NORTHDIRECTION
 40
0.0
  9
$TIMEZONE
 70
 -8000
  9
$LIGHTGLYPHDISPLAY
280
     1
  9
$TILEMODELIGHTSYNCH
280
     1
  9
$CMATERIAL
347
3CF
  9
$SOLIDHIST
280
     0
  9
$SHOWHIST
280
     1
  9
$DWFFRAME
280
     2
  9
$DGNFRAME
280
     2
  9
$REALWORLDSCALE
290
     1
  9
$INTERFERECOLOR
 62
   256
  9
$CSHADOW
280
     0
  9
$SHADOWPLANELOCATION
 40
0.0
  0
ENDSEC
  0
SECTION
  2
CLASSES
  0
CLASS
  1
ACDBDICTIONARYWDFLT
  2
AcDbDictionaryWithDefault
  3
ObjectDBX Classes
 90
        0
 91
        3
280
     0
281
     0
  0
CLASS
  1
VISUALSTYLE
  2
AcDbVisualStyle
  3
ObjectDBX Classes
 90
     4095
 91
        3
280
     0
281
     0
  0
CLASS
  1
MATERIAL
  2
AcDbMaterial
  3
ObjectDBX Classes
 90
     1153
 91
        3
280
     0
281
     0
  0
CLASS
  1
SCALE
  2
AcDbScale
  3
ObjectDBX Classes
 90
     1153
 91
        3
280
     0
281
     0
  0
CLASS
  1
TABLESTYLE
  2
AcDbTableStyle
  3
ObjectDBX Classes
 90
     4095
 91
        3
280
     0
281
     0
  0
CLASS
  1
MLEADERSTYLE
  2
AcDbMLeaderStyle
  3
ACDB_MLEADERSTYLE_CLASS
 90
     4095
 91
        3
280
     0
281
     0
  0
CLASS
  1
SUN
  2
AcDbSun
  3
SCENEOE
 90
     1153
 91
        3
280
     0
281
     0
  0
CLASS
  1
DICTIONARYVAR
  2
AcDbDictionaryVar
  3
ObjectDBX Classes
 90
        0
 91
        3
280
     0
281
     0
  0
CLASS
  1
CELLSTYLEMAP
  2
AcDbCellStyleMap
  3
ObjectDBX Classes
 90
     1152
 91
        3
280
     0
281
     0
  0
ENDSEC
  0
SECTION
  2
TABLES
  0
TABLE
  2
VPORT
  5
394
330
0
100
AcDbSymbolTable
 70
     1
  0
VPORT
  5
3B4
330
394
100
AcDbSymbolTableRecord
100
AcDbViewportTableRecord
  2
*Active
 70
     0
 10
0.0
 20
0.0
 11
1.0
 21
1.0
 12
-9.257988722707978
 22
0.4289321880434045
 13
0.0
 23
0.0
 14
0.5
 24
0.5
 15
0.5
 25
0.5
 16
0.0
 26
0.0
 36
1.0
 17
0.0
 27
0.0
 37
0.0
 40
262.390831211884
 41
1.37719298245614
 42
50.0
 43
0.0
 44
0.0
 50
0.0
 51
0.0
 71
     0
 72
   100
 73
     1
 74
     3
 75
     0
 76
     0
 77
     0
 78
     0
281
     0
 65
     1
110
0.0
120
0.0
130
0.0
111
1.0
121
0.0
131
0.0
112
0.0
122
1.0
132
0.0
 79
     0
146
0.0
348
3BA
 60
     3
 61
     5
292
     1
282
     1
141
0.0
142
0.0
 63
   250
361
3F8
  0
ENDTAB
  0
TABLE
  2
LTYPE
  5
391
330
0
100
AcDbSymbolTable
 70
    48
  0
LTYPE
  5
39F
330
391
100
AcDbSymbolTableRecord
100
AcDbLinetypeTableRecord
  2
ByBlock
 70
     0
  3

 72
    65
 73
     0
 40
0.0
  0
LTYPE
  5
3A0
330
391
100
AcDbSymbolTableRecord
100
AcDbLinetypeTableRecord
  2
ByLayer
 70
     0
  3

 72
    65
 73
     0
 40
0.0
  0
LTYPE
  5
3A1
330
391
100
AcDbSymbolTableRecord
100
AcDbLinetypeTableRecord
  2
Continuous
 70
     0
  3
Solid line
 72
    65
 73
     0
 40
0.0
  0
LTYPE
  5
432
330
391
100
AcDbSymbolTableRecord
100
AcDbLinetypeTableRecord
  2
ACAD_ISO12W100
 70
     0
  3
ISO dash double-dot __ . . __ . . __ . . __ . . 
 72
    65
 73
     6
 40
21.0
 49
12.0
 74
     0
 49
-3.0
 74
     0
 49
0.0
 74
     0
 49
-3.0
 74
     0
 49
0.0
 74
     0
 49
-3.0
 74
     0
  0
LTYPE
  5
433
330
391
100
AcDbSymbolTableRecord
100
AcDbLinetypeTableRecord
  2
ACAD_ISO15W100
 70
     0
  3
ISO double-dash triple-dot __ __ . . . __ __ . .
 72
    65
 73
    10
 40
39.0
 49
12.0
 74
     0
 49
-3.0
 74
     0
 49
12.0
 74
     0
 49
-3.0
 74
     0
 49
0.0
 74
     0
 49
-3.0
 74
     0
 49
0.0
 74
     0
 49
-3.0
 74
     0
 49
0.0
 74
     0
 49
-3.0
 74
     0
  0
LTYPE
  5
434
330
391
100
AcDbSymbolTableRecord
100
AcDbLinetypeTableRecord
  2
ACAD_ISO14W100
 70
     0
  3
ISO dash triple-dot __ . . . __ . . . __ . . . _
 72
    65
 73
     8
 40
24.0
 49
12.0
 74
     0
 49
-3.0
 74
     0
 49
0.0
 74
     0
 49
-3.0
 74
     0
 49
0.0
 74
     0
 49
-3.0
 74
     0
 49
0.0
 74
     0
 49
-3.0
 74
     0
  0
LTYPE
  5
435
330
391
100
AcDbSymbolTableRecord
100
AcDbLinetypeTableRecord
  2
BORDER
 70
     0
  3
Border __ __ . __ __ . __ __ . __ __ . __ __ .
 72
    65
 73
     6
 40
44.45
 49
12.7
 74
     0
 49
-6.35
 74
     0
 49
12.7
 74
     0
 49
-6.35
 74
     0
 49
0.0
 74
     0
 49
-6.35
 74
     0
  0
LTYPE
  5
437
330
391
100
AcDbSymbolTableRecord
100
AcDbLinetypeTableRecord
  2
BATTING
 70
     0
  3
Batting SSSSSSSSSSSSSSSSSSSSSSSSSSSSSSSSSSSSSSSSSSSSSSS
 72
    65
 73
     4
 40
10.16254
 49
0.00254
 74
     0
 49
-2.54
 74
     2
 75
     0
340
436
 46
2.54
 50
0.0
 44
-2.54
 45
0.0
  9
BAT
 49
-5.08
 74
     2
 75
     0
340
436
 46
2.54
 50
180.0
 44
2.54
 45
0.0
  9
BAT
 49
-2.54
 74
     0
  0
LTYPE
  5
438
330
391
100
AcDbSymbolTableRecord
100
AcDbLinetypeTableRecord
  2
ACAD_ISO03W100
 70
     0
  3
ISO dash space __    __    __    __    __    __
 72
    65
 73
     2
 40
30.0
 49
12.0
 74
     0
 49
-18.0
 74
     0
  0
LTYPE
  5
439
330
391
100
AcDbSymbolTableRecord
100
AcDbLinetypeTableRecord
  2
ACAD_ISO02W100
 70
     0
  3
ISO dash __ __ __ __ __ __ __ __ __ __ __ __ __
 72
    65
 73
     2
 40
15.0
 49
12.0
 74
     0
 49
-3.0
 74
     0
  0
LTYPE
  5
43A
330
391
100
AcDbSymbolTableRecord
100
AcDbLinetypeTableRecord
  2
ACAD_ISO05W100
 70
     0
  3
ISO long-dash double-dot ____ .. ____ .. ____ . 
 72
    65
 73
     6
 40
33.0
 49
24.0
 74
     0
 49
-3.0
 74
     0
 49
0.0
 74
     0
 49
-3.0
 74
     0
 49
0.0
 74
     0
 49
-3.0
 74
     0
  0
LTYPE
  5
43B
330
391
100
AcDbSymbolTableRecord
100
AcDbLinetypeTableRecord
  2
ACAD_ISO04W100
 70
     0
  3
ISO long-dash dot ____ . ____ . ____ . ____ . _
 72
    65
 73
     4
 40
30.0
 49
24.0
 74
     0
 49
-3.0
 74
     0
 49
0.0
 74
     0
 49
-3.0
 74
     0
  0
LTYPE
  5
43C
330
391
100
AcDbSymbolTableRecord
100
AcDbLinetypeTableRecord
  2
ACAD_ISO07W100
 70
     0
  3
ISO dot . . . . . . . . . . . . . . . . . . . . 
 72
    65
 73
     2
 40
3.0
 49
0.0
 74
     0
 49
-3.0
 74
     0
  0
LTYPE
  5
43D
330
391
100
AcDbSymbolTableRecord
100
AcDbLinetypeTableRecord
  2
ACAD_ISO06W100
 70
     0
  3
ISO long-dash triple-dot ____ ... ____ ... ____
 72
    65
 73
     8
 40
36.0
 49
24.0
 74
     0
 49
-3.0
 74
     0
 49
0.0
 74
     0
 49
-3.0
 74
     0
 49
0.0
 74
     0
 49
-3.0
 74
     0
 49
0.0
 74
     0
 49
-3.0
 74
     0
  0
LTYPE
  5
43E
330
391
100
AcDbSymbolTableRecord
100
AcDbLinetypeTableRecord
  2
ACAD_ISO09W100
 70
     0
  3
ISO long-dash double-short-dash ____ __ __ ____
 72
    65
 73
     6
 40
45.0
 49
24.0
 74
     0
 49
-3.0
 74
     0
 49
6.0
 74
     0
 49
-3.0
 74
     0
 49
6.0
 74
     0
 49
-3.0
 74
     0
  0
LTYPE
  5
43F
330
391
100
AcDbSymbolTableRecord
100
AcDbLinetypeTableRecord
  2
ACAD_ISO08W100
 70
     0
  3
ISO long-dash short-dash ____ __ ____ __ ____ _
 72
    65
 73
     4
 40
36.0
 49
24.0
 74
     0
 49
-3.0
 74
     0
 49
6.0
 74
     0
 49
-3.0
 74
     0
  0
LTYPE
  5
441
330
391
100
AcDbSymbolTableRecord
100
AcDbLinetypeTableRecord
  2
HOT_WATER_SUPPLY
 70
     0
  3
Hot water supply ---- HW ---- HW ---- HW ----
 72
    65
 73
     3
 40
22.86
 49
12.7
 74
     0
 49
-5.08
 74
     2
 75
     0
340
440
 46
2.54
 50
0.0
 44
-2.54
 45
-1.27
  9
HW
 49
-5.08
 74
     0
  0
LTYPE
  5
442
330
391
100
AcDbSymbolTableRecord
100
AcDbLinetypeTableRecord
  2
HIDDENX2
 70
     0
  3
Hidden (2x) ____ ____ ____ ____ ____ ____ ____ 
 72
    65
 73
     2
 40
19.05
 49
12.7
 74
     0
 49
-6.35
 74
     0
  0
LTYPE
  5
443
330
391
100
AcDbSymbolTableRecord
100
AcDbLinetypeTableRecord
  2
PHANTOM2
 70
     0
  3
Phantom (.5x) ___ _ _ ___ _ _ ___ _ _ ___ _ _
 72
    65
 73
     6
 40
31.75
 49
15.875
 74
     0
 49
-3.175
 74
     0
 49
3.175
 74
     0
 49
-3.175
 74
     0
 49
3.175
 74
     0
 49
-3.175
 74
     0
  0
LTYPE
  5
444
330
391
100
AcDbSymbolTableRecord
100
AcDbLinetypeTableRecord
  2
PHANTOM
 70
     0
  3
Phantom ______  __  __  ______  __  __  ______ 
 72
    65
 73
     6
 40
63.50000000000001
 49
31.75
 74
     0
 49
-6.35
 74
     0
 49
6.35
 74
     0
 49
-6.35
 74
     0
 49
6.35
 74
     0
 49
-6.35
 74
     0
  0
LTYPE
  5
445
330
391
100
AcDbSymbolTableRecord
100
AcDbLinetypeTableRecord
  2
TRACKS
 70
     0
  3
Tracks -|-|-|-|-|-|-|-|-|-|-|-|-|-|-|-|-|-|-|-|-|-|-|-|-
 72
    65
 73
     2
 40
7.62
 49
3.81
 74
     2
 75
     0
340
436
 46
6.35
 50
0.0
 44
0.0
 45
0.0
  9
TRACK1
 49
3.81
 74
     0
  0
LTYPE
  5
446
330
391
100
AcDbSymbolTableRecord
100
AcDbLinetypeTableRecord
  2
PHANTOMX2
 70
     0
  3
Phantom (2x) ____________    ____    ____   _
 72
    65
 73
     6
 40
127.0
 49
63.5
 74
     0
 49
-12.7
 74
     0
 49
12.7
 74
     0
 49
-12.7
 74
     0
 49
12.7
 74
     0
 49
-12.7
 74
     0
  0
LTYPE
  5
447
330
391
100
AcDbSymbolTableRecord
100
AcDbLinetypeTableRecord
  2
ZIGZAG
 70
     0
  3
Zig zag /\/\/\/\/\/\/\/\/\/\/\/\/\/\/\/\/\/\/\/\/\/\/\/
 72
    65
 73
     4
 40
20.32254
 49
0.00254
 74
     0
 49
-5.08
 74
     2
 75
     0
340
436
 46
5.08
 50
0.0
 44
-5.08
 45
0.0
  9
ZIG
 49
-10.16
 74
     2
 75
     0
340
436
 46
5.08
 50
180.0
 44
5.08
 45
0.0
  9
ZIG
 49
-5.08
 74
     0
  0
LTYPE
  5
449
330
391
100
AcDbSymbolTableRecord
100
AcDbLinetypeTableRecord
  2
DRAINAGE
 70
     0
  3
Drainage ---->---->---->----
 72
    65
 73
     2
 40
10.16
 49
5.08
 74
     2
 75
     0
340
448
 46
2.54
 50
180.0
 44
0.0
 45
0.0
  9
RIGHT_ARROW
 49
5.08
 74
     0
  0
LTYPE
  5
44A
330
391
100
AcDbSymbolTableRecord
100
AcDbLinetypeTableRecord
  2
DOTX2
 70
     0
  3
Dot (2x) .  .  .  .  .  .  .  .  .  .  .  .  .  .
 72
    65
 73
     2
 40
12.7
 49
0.0
 74
     0
 49
-12.7
 74
     0
  0
LTYPE
  5
44B
330
391
100
AcDbSymbolTableRecord
100
AcDbLinetypeTableRecord
  2
FENCELINE1
 70
     0
  3
Fenceline circle ----0-----0----0-----0----0-----0--
 72
    65
 73
     4
 40
36.83
 49
6.35
 74
     0
 49
-2.54
 74
     2
 75
     0
340
436
 46
2.54
 50
0.0
 44
-2.54
 45
0.0
  9
CIRC1
 49
-2.54
 74
     0
 49
25.4
 74
     0
  0
LTYPE
  5
44C
330
391
100
AcDbSymbolTableRecord
100
AcDbLinetypeTableRecord
  2
DRAINAGE2
 70
     0
  3
Drainage reversed----<----<----<----
 72
    65
 73
     2
 40
10.16
 49
5.08
 74
     2
 75
     0
340
448
 46
2.54
 50
0.0
 44
0.0
 45
0.0
  9
RIGHT_ARROW
 49
5.08
 74
     0
  0
LTYPE
  5
44D
330
391
100
AcDbSymbolTableRecord
100
AcDbLinetypeTableRecord
  2
GAS_LINE
 70
     0
  3
Gas line ----GAS----GAS----GAS----GAS----GAS----GAS--
 72
    65
 73
     3
 40
24.13
 49
12.7
 74
     0
 49
-5.08
 74
     2
 75
     0
340
440
 46
2.54
 50
0.0
 44
-2.54
 45
-1.27
  9
GAS
 49
-6.35
 74
     0
  0
LTYPE
  5
44E
330
391
100
AcDbSymbolTableRecord
100
AcDbLinetypeTableRecord
  2
FENCELINE2
 70
     0
  3
Fenceline square ----[]-----[]----[]-----[]----[]---
 72
    65
 73
     4
 40
36.83
 49
6.35
 74
     0
 49
-2.54
 74
     2
 75
     0
340
436
 46
2.54
 50
0.0
 44
-2.54
 45
0.0
  9
BOX
 49
-2.54
 74
     0
 49
25.4
 74
     0
  0
LTYPE
  5
44F
330
391
100
AcDbSymbolTableRecord
100
AcDbLinetypeTableRecord
  2
HIDDEN2
 70
     0
  3
Hidden (.5x) _ _ _ _ _ _ _ _ _ _ _ _ _ _ _ _ _ 
 72
    65
 73
     2
 40
4.762499999999999
 49
3.175
 74
     0
 49
-1.5875
 74
     0
  0
LTYPE
  5
450
330
391
100
AcDbSymbolTableRecord
100
AcDbLinetypeTableRecord
  2
HIDDEN
 70
     0
  3
Hidden __ __ __ __ __ __ __ __ __ __ __ __ __ __
 72
    65
 73
     2
 40
9.524999999999999
 49
6.35
 74
     0
 49
-3.175
 74
     0
  0
LTYPE
  5
451
330
391
100
AcDbSymbolTableRecord
100
AcDbLinetypeTableRecord
  2
DASHED2
 70
     0
  3
Dashed (.5x) _ _ _ _ _ _ _ _ _ _ _ _ _ _ _ _ _ 
 72
    65
 73
     2
 40
9.524999999999999
 49
6.35
 74
     0
 49
-3.175
 74
     0
  0
LTYPE
  5
452
330
391
100
AcDbSymbolTableRecord
100
AcDbLinetypeTableRecord
  2
DASHED
 70
     0
  3
Dashed __ __ __ __ __ __ __ __ __ __ __ __ __ _
 72
    65
 73
     2
 40
19.05
 49
12.7
 74
     0
 49
-6.35
 74
     0
  0
LTYPE
  5
453
330
391
100
AcDbSymbolTableRecord
100
AcDbLinetypeTableRecord
  2
DIVIDE
 70
     0
  3
Divide ____ . . ____ . . ____ . . ____ . . ____
 72
    65
 73
     6
 40
31.75
 49
12.7
 74
     0
 49
-6.35
 74
     0
 49
0.0
 74
     0
 49
-6.35
 74
     0
 49
0.0
 74
     0
 49
-6.35
 74
     0
  0
LTYPE
  5
454
330
391
100
AcDbSymbolTableRecord
100
AcDbLinetypeTableRecord
  2
DASHEDX2
 70
     0
  3
Dashed (2x) ____  ____  ____  ____  ____  ___
 72
    65
 73
     2
 40
38.09999999999999
 49
25.4
 74
     0
 49
-12.7
 74
     0
  0
LTYPE
  5
455
330
391
100
AcDbSymbolTableRecord
100
AcDbLinetypeTableRecord
  2
DIVIDEX2
 70
     0
  3
Divide (2x) ________  .  .  ________  .  .  _
 72
    65
 73
     6
 40
63.5
 49
25.4
 74
     0
 49
-12.7
 74
     0
 49
0.0
 74
     0
 49
-12.7
 74
     0
 49
0.0
 74
     0
 49
-12.7
 74
     0
  0
LTYPE
  5
456
330
391
100
AcDbSymbolTableRecord
100
AcDbLinetypeTableRecord
  2
DIVIDE2
 70
     0
  3
Divide (.5x) __..__..__..__..__..__..__..__.._
 72
    65
 73
     6
 40
15.875
 49
6.35
 74
     0
 49
-3.175
 74
     0
 49
0.0
 74
     0
 49
-3.175
 74
     0
 49
0.0
 74
     0
 49
-3.175
 74
     0
  0
LTYPE
  5
457
330
391
100
AcDbSymbolTableRecord
100
AcDbLinetypeTableRecord
  2
DOT2
 70
     0
  3
Dot (.5x) ........................................
 72
    65
 73
     2
 40
3.175
 49
0.0
 74
     0
 49
-3.175
 74
     0
  0
LTYPE
  5
458
330
391
100
AcDbSymbolTableRecord
100
AcDbLinetypeTableRecord
  2
DOT
 70
     0
  3
Dot . . . . . . . . . . . . . . . . . . . . . . . .
 72
    65
 73
     2
 40
6.35
 49
0.0
 74
     0
 49
-6.35
 74
     0
  0
LTYPE
  5
459
330
391
100
AcDbSymbolTableRecord
100
AcDbLinetypeTableRecord
  2
BORDERX2
 70
     0
  3
Border (2x) ____  ____  .  ____  ____  .  ___
 72
    65
 73
     6
 40
88.89999999999999
 49
25.4
 74
     0
 49
-12.7
 74
     0
 49
25.4
 74
     0
 49
-12.7
 74
     0
 49
0.0
 74
     0
 49
-12.7
 74
     0
  0
LTYPE
  5
45A
330
391
100
AcDbSymbolTableRecord
100
AcDbLinetypeTableRecord
  2
BORDER2
 70
     0
  3
Border (.5x) __.__.__.__.__.__.__.__.__.__.__.
 72
    65
 73
     6
 40
22.225
 49
6.35
 74
     0
 49
-3.175
 74
     0
 49
6.35
 74
     0
 49
-3.175
 74
     0
 49
0.0
 74
     0
 49
-3.175
 74
     0
  0
LTYPE
  5
45B
330
391
100
AcDbSymbolTableRecord
100
AcDbLinetypeTableRecord
  2
CENTER2
 70
     0
  3
Center (.5x) ___ _ ___ _ ___ _ ___ _ ___ _ ___
 72
    65
 73
     4
 40
28.575
 49
19.05
 74
     0
 49
-3.175
 74
     0
 49
3.175
 74
     0
 49
-3.175
 74
     0
  0
LTYPE
  5
45C
330
391
100
AcDbSymbolTableRecord
100
AcDbLinetypeTableRecord
  2
CENTER
 70
     0
  3
Center ____ _ ____ _ ____ _ ____ _ ____ _ ____
 72
    65
 73
     4
 40
50.8
 49
31.75
 74
     0
 49
-6.35
 74
     0
 49
6.35
 74
     0
 49
-6.35
 74
     0
  0
LTYPE
  5
45D
330
391
100
AcDbSymbolTableRecord
100
AcDbLinetypeTableRecord
  2
DASHDOT
 70
     0
  3
Dash dot __ . __ . __ . __ . __ . __ . __ . __
 72
    65
 73
     4
 40
25.4
 49
12.7
 74
     0
 49
-6.35
 74
     0
 49
0.0
 74
     0
 49
-6.35
 74
     0
  0
LTYPE
  5
45E
330
391
100
AcDbSymbolTableRecord
100
AcDbLinetypeTableRecord
  2
CENTERX2
 70
     0
  3
Center (2x) ________  __  ________  __  _____
 72
    65
 73
     4
 40
101.6
 49
63.5
 74
     0
 49
-12.7
 74
     0
 49
12.7
 74
     0
 49
-12.7
 74
     0
  0
LTYPE
  5
45F
330
391
100
AcDbSymbolTableRecord
100
AcDbLinetypeTableRecord
  2
DASHDOTX2
 70
     0
  3
Dash dot (2x) ____  .  ____  .  ____  .  ___
 72
    65
 73
     4
 40
50.8
 49
25.4
 74
     0
 49
-12.7
 74
     0
 49
0.0
 74
     0
 49
-12.7
 74
     0
  0
LTYPE
  5
460
330
391
100
AcDbSymbolTableRecord
100
AcDbLinetypeTableRecord
  2
DASHDOT2
 70
     0
  3
Dash dot (.5x) _._._._._._._._._._._._._._._.
 72
    65
 73
     4
 40
12.7
 49
6.35
 74
     0
 49
-3.175
 74
     0
 49
0.0
 74
     0
 49
-3.175
 74
     0
  0
LTYPE
  5
461
330
391
100
AcDbSymbolTableRecord
100
AcDbLinetypeTableRecord
  2
ACAD_ISO11W100
 70
     0
  3
ISO double-dash dot __ __ . __ __ . __ __ . __ _
 72
    65
 73
     6
 40
33.0
 49
12.0
 74
     0
 49
-3.0
 74
     0
 49
12.0
 74
     0
 49
-3.0
 74
     0
 49
0.0
 74
     0
 49
-3.0
 74
     0
  0
LTYPE
  5
462
330
391
100
AcDbSymbolTableRecord
100
AcDbLinetypeTableRecord
  2
ACAD_ISO10W100
 70
     0
  3
ISO dash dot __ . __ . __ . __ . __ . __ . __ . 
 72
    65
 73
     4
 40
18.0
 49
12.0
 74
     0
 49
-3.0
 74
     0
 49
0.0
 74
     0
 49
-3.0
 74
     0
  0
LTYPE
  5
463
330
391
100
AcDbSymbolTableRecord
100
AcDbLinetypeTableRecord
  2
ACAD_ISO13W100
 70
     0
  3
ISO double-dash double-dot __ __ . . __ __ . . _
 72
    65
 73
     8
 40
36.0
 49
12.0
 74
     0
 49
-3.0
 74
     0
 49
12.0
 74
     0
 49
-3.0
 74
     0
 49
0.0
 74
     0
 49
-3.0
 74
     0
 49
0.0
 74
     0
 49
-3.0
 74
     0
  0
ENDTAB
  0
TABLE
  2
LAYER
  5
38F
330
0
100
AcDbSymbolTable
 70
     1
  0
LAYER
  5
39C
330
38F
100
AcDbSymbolTableRecord
100
AcDbLayerTableRecord
  2
0
 70
     0
 62
     7
  6
Continuous
370
    25
390
39B
347
3D1
348
0
  0
ENDTAB
  0
TABLE
  2
STYLE
  5
390
330
0
100
AcDbSymbolTable
 70
     4
  0
STYLE
  5
39D
330
390
100
AcDbSymbolTableRecord
100
AcDbTextStyleTableRecord
  2
Standard
 70
     0
 40
0.0
 41
1.0
 50
0.0
 71
     0
 42
0.2
  3
txt
  4

  0
STYLE
  5
436
330
390
100
AcDbSymbolTableRecord
100
AcDbTextStyleTableRecord
  2
textstyle0
 70
     0
 40
0.0
 41
1.0
 50
0.0
 71
     0
 42
0.2
  3
ltypeshp.shx
  4

  0
STYLE
  5
440
330
390
100
AcDbSymbolTableRecord
100
AcDbTextStyleTableRecord
  2
textstyle1
 70
     0
 40
0.0
 41
1.0
 50
0.0
 71
     0
 42
0.2
  3
STANDARD
  4

  0
STYLE
  5
448
330
390
100
AcDbSymbolTableRecord
100
AcDbTextStyleTableRecord
  2
textstyle2
 70
     0
 40
0.0
 41
1.0
 50
0.0
 71
     0
 42
0.2
  3
qcadshp.shx
  4

  0
ENDTAB
  0
TABLE
  2
VIEW
  5
392
330
0
100
AcDbSymbolTable
 70
     0
  0
ENDTAB
  0
TABLE
  2
UCS
  5
393
330
0
100
AcDbSymbolTable
 70
     0
  0
ENDTAB
  0
TABLE
  2
APPID
  5
395
330
0
100
AcDbSymbolTable
 70
     2
  0
APPID
  5
39E
330
395
100
AcDbSymbolTableRecord
100
AcDbRegAppTableRecord
  2
ACAD
 70
     0
  0
APPID
  5
3F9
330
395
100
AcDbSymbolTableRecord
100
AcDbRegAppTableRecord
  2
QCAD
 70
     0
  0
ENDTAB
  0
TABLE
  2
DIMSTYLE
  5
396
330
0
100
AcDbSymbolTable
 70
     2
100
AcDbDimStyleTable
  0
DIMSTYLE
105
3B2
330
396
100
AcDbSymbolTableRecord
100
AcDbDimStyleTableRecord
  2
Standard
 70
     0
178
     0
340
39D
  0
DIMSTYLE
105
431
330
396
100
AcDbSymbolTableRecord
100
AcDbDimStyleTableRecord
  2
QCADDimStyle
 70
     0
 41
2.5
 42
0.625
 43
5.0
 44
1.25
 73
     0
 77
     1
 78
     8
 79
     2
140
2.5
147
0.625
178
     0
279
     2
340
39D
  0
ENDTAB
  0
TABLE
  2
BLOCK_RECORD
  5
38E
330
0
100
AcDbSymbolTable
 70
    10
  0
BLOCK_RECORD
  5
3AA
330
38E
100
AcDbSymbolTableRecord
100
AcDbBlockTableRecord
  2
*Model_Space
340
3AD
 70
     0
280
     1
281
     0
  0
BLOCK_RECORD
  5
3A6
330
38E
100
AcDbSymbolTableRecord
100
AcDbBlockTableRecord
  2
*Paper_Space
340
3A9
 70
     0
280
     1
281
     0
  0
BLOCK_RECORD
  5
466
330
38E
100
AcDbSymbolTableRecord
100
AcDbBlockTableRecord
  2
block 1
340
0
 70
     0
280
     1
281
     0
  0
BLOCK_RECORD
  5
469
330
38E
100
AcDbSymbolTableRecord
100
AcDbBlockTableRecord
  2
block 2
340
0
 70
     0
280
     1
281
     0
  0
BLOCK_RECORD
  5
46C
330
38E
100
AcDbSymbolTableRecord
100
AcDbBlockTableRecord
  2
block 3
340
0
 70
     0
280
     1
281
     0
  0
BLOCK_RECORD
  5
46F
330
38E
100
AcDbSymbolTableRecord
100
AcDbBlockTableRecord
  2
block 4
340
0
 70
     0
280
     1
281
     0
  0
BLOCK_RECORD
  5
472
330
38E
100
AcDbSymbolTableRecord
100
AcDbBlockTableRecord
  2
block 5
340
0
102
{BLKREFS
331
1E5
102
}
 70
     0
280
     1
281
     0
  0
BLOCK_RECORD
  5
475
330
38E
100
AcDbSymbolTableRecord
100
AcDbBlockTableRecord
  2
block 6
340
0
 70
     0
280
     1
281
     0
  0
BLOCK_RECORD
  5
478
330
38E
100
AcDbSymbolTableRecord
100
AcDbBlockTableRecord
  2
block 7
340
0
102
{BLKREFS
331
20D
102
}
 70
     0
280
     1
281
     0
  0
BLOCK_RECORD
  5
47B
330
38E
100
AcDbSymbolTableRecord
100
AcDbBlockTableRecord
  2
block 8
340
0
 70
     0
280
     1
281
     0
  0
BLOCK_RECORD
  5
47E
330
38E
100
AcDbSymbolTableRecord
100
AcDbBlockTableRecord
  2
block 9
340
0
 70
     0
280
     1
281
     0
  0
BLOCK_RECORD
  5
481
330
38E
100
AcDbSymbolTableRecord
100
AcDbBlockTableRecord
  2
block 10
340
0
 70
     0
280
     1
281
     0
  0
ENDTAB
  0
ENDSEC
  0
SECTION
  2
BLOCKS
  0
BLOCK
  5
3AB
330
3AA
100
AcDbEntity
  8
0
100
AcDbBlockBegin
  2
*Model_Space
 70
     0
 10
0.0
 20
0.0
 30
0.0
  3
*Model_Space
  1

  0
ENDBLK
  5
3AC
330
3AA
100
AcDbEntity
  8
0
100
AcDbBlockEnd
  0
BLOCK
  5
3A7
330
3A6
100
AcDbEntity
 67
     1
  8
0
100
AcDbBlockBegin
  2
*Paper_Space
 70
     0
 10
0.0
 20
0.0
 30
0.0
  3
*Paper_Space
  1

  0
ENDBLK
  5
3A8
330
3A6
100
AcDbEntity
 67
     1
  8
0
100
AcDbBlockEnd
  0
BLOCK
  5
467
330
466
100
AcDbEntity
  8
0
100
AcDbBlockBegin
  2
block 1
 70
     0
 10
0.0
 20
0.0
 30
0.0
  3
block 1
  1

  0
LINE
  5
EE
330
466
100
AcDbEntity
  8
0
 62
   178
420
        0
370
     5
100
AcDbLine
 10
0.5357812499999998
 20
-0.0661458333333333
 30
0.0
 11
0.5357812499999998
 21
-0.05953125
 31
0.0
  0
LINE
  5
ED
330
466
100
AcDbEntity
  8
0
 62
   178
420
        0
370
     5
100
AcDbLine
 10
0.5357812499999998
 20
-0.2513541666666666
 30
0.0
 11
0.5357812499999998
 21
-0.0661458333333333
 31
0.0
  0
LINE
  5
EC
330
466
100
AcDbEntity
  8
0
 62
   178
420
        0
370
     5
100
AcDbLine
 10
0.5423958333333332
 20
-0.05953125
 30
0.0
 11
0.7805208333333331
 21
-0.05953125
 31
0.0
  0
LINE
  5
F2
330
466
100
AcDbEntity
  8
0
 62
   178
420
        0
370
     5
100
AcDbLine
 10
0.7805208333333331
 20
-0.2579687499999999
 30
0.0
 11
0.7871354166666664
 21
-0.2579687499999999
 31
0.0
  0
LINE
  5
F1
330
466
100
AcDbEntity
  8
0
 62
   178
420
        0
370
     5
100
AcDbLine
 10
0.7805208333333331
 20
-0.05953125
 30
0.0
 11
0.7871354166666664
 21
-0.05953125
 31
0.0
  0
LINE
  5
F0
330
466
100
AcDbEntity
  8
0
 62
   178
420
        0
370
     5
100
AcDbLine
 10
0.5357812499999998
 20
-0.05953125
 30
0.0
 11
0.5423958333333332
 21
-0.05953125
 31
0.0
  0
LINE
  5
EF
330
466
100
AcDbEntity
  8
0
 62
   178
420
        0
370
     5
100
AcDbLine
 10
0.7805208333333331
 20
-0.2579687499999999
 30
0.0
 11
0.5423958333333332
 21
-0.2579687499999999
 31
0.0
  0
LINE
  5
F6
330
466
100
AcDbEntity
  8
0
 62
   178
420
        0
370
     5
100
AcDbLine
 10
0.7871354166666664
 20
-0.05953125
 30
0.0
 11
0.7871354166666664
 21
-0.0661458333333333
 31
0.0
  0
LINE
  5
F5
330
466
100
AcDbEntity
  8
0
 62
   178
420
        0
370
     5
100
AcDbLine
 10
0.5357812499999998
 20
-0.2579687499999999
 30
0.0
 11
0.5423958333333332
 21
-0.2579687499999999
 31
0.0
  0
LINE
  5
F4
330
466
100
AcDbEntity
  8
0
 62
   178
420
        0
370
     5
100
AcDbLine
 10
0.7871354166666664
 20
-0.0661458333333333
 30
0.0
 11
0.7871354166666664
 21
-0.2513541666666666
 31
0.0
  0
LINE
  5
F3
330
466
100
AcDbEntity
  8
0
 62
   178
420
        0
370
     5
100
AcDbLine
 10
0.7871354166666664
 20
-0.2579687499999999
 30
0.0
 11
0.7871354166666664
 21
-0.2513541666666666
 31
0.0
  0
LINE
  5
CA
330
466
100
AcDbEntity
  8
0
 62
   178
420
        0
370
     5
100
AcDbLine
 10
0.5357812499999998
 20
-0.2513541666666666
 30
0.0
 11
0.5357812499999998
 21
-0.2579687499999999
 31
0.0
  0
LINE
  5
C9
330
466
100
AcDbEntity
  8
0
 62
   178
420
        0
370
     5
100
AcDbLine
 10
0.2711979166666665
 20
-0.0661458333333333
 30
0.0
 11
0.2711979166666665
 21
-0.05953125
 31
0.0
  0
LINE
  5
F8
330
466
100
AcDbEntity
  8
0
 62
   178
420
        0
370
     5
100
AcDbLine
 10
0.2711979166666665
 20
-0.2513541666666666
 30
0.0
 11
0.2711979166666665
 21
-0.0661458333333333
 31
0.0
  0
LINE
  5
F7
330
466
100
AcDbEntity
  8
0
 62
   178
420
        0
370
     5
100
AcDbLine
 10
0.2778124999999999
 20
-0.05953125
 30
0.0
 11
0.5159374999999998
 21
-0.05953125
 31
0.0
  0
LINE
  5
CE
330
466
100
AcDbEntity
  8
0
 62
   178
420
        0
370
     5
100
AcDbLine
 10
0.5159374999999998
 20
-0.2579687499999999
 30
0.0
 11
0.5225520833333331
 21
-0.2579687499999999
 31
0.0
  0
LINE
  5
CD
330
466
100
AcDbEntity
  8
0
 62
   178
420
        0
370
     5
100
AcDbLine
 10
0.5159374999999998
 20
-0.05953125
 30
0.0
 11
0.5225520833333331
 21
-0.05953125
 31
0.0
  0
LINE
  5
CC
330
466
100
AcDbEntity
  8
0
 62
   178
420
        0
370
     5
100
AcDbLine
 10
0.2711979166666665
 20
-0.05953125
 30
0.0
 11
0.2778124999999999
 21
-0.05953125
 31
0.0
  0
LINE
  5
CB
330
466
100
AcDbEntity
  8
0
 62
   178
420
        0
370
     5
100
AcDbLine
 10
0.5159374999999998
 20
-0.2579687499999999
 30
0.0
 11
0.2778124999999999
 21
-0.2579687499999999
 31
0.0
  0
LINE
  5
D2
330
466
100
AcDbEntity
  8
0
 62
   178
420
        0
370
     5
100
AcDbLine
 10
0.5225520833333331
 20
-0.05953125
 30
0.0
 11
0.5225520833333331
 21
-0.0661458333333333
 31
0.0
  0
LINE
  5
D1
330
466
100
AcDbEntity
  8
0
 62
   178
420
        0
370
     5
100
AcDbLine
 10
0.2711979166666665
 20
-0.2579687499999999
 30
0.0
 11
0.2778124999999999
 21
-0.2579687499999999
 31
0.0
  0
LINE
  5
D0
330
466
100
AcDbEntity
  8
0
 62
   178
420
        0
370
     5
100
AcDbLine
 10
0.5225520833333331
 20
-0.0661458333333333
 30
0.0
 11
0.5225520833333331
 21
-0.2513541666666666
 31
0.0
  0
LINE
  5
CF
330
466
100
AcDbEntity
  8
0
 62
   178
420
        0
370
     5
100
AcDbLine
 10
0.5225520833333331
 20
-0.2579687499999999
 30
0.0
 11
0.5225520833333331
 21
-0.2513541666666666
 31
0.0
  0
LINE
  5
D6
330
466
100
AcDbEntity
  8
0
 62
   178
420
        0
370
     5
100
AcDbLine
 10
0.2711979166666665
 20
-0.2513541666666666
 30
0.0
 11
0.2711979166666665
 21
-0.2579687499999999
 31
0.0
  0
LINE
  5
D5
330
466
100
AcDbEntity
  8
0
 62
   178
420
        0
370
     5
100
AcDbLine
 10
0.0066145833333333
 20
-0.0661458333333333
 30
0.0
 11
0.0066145833333333
 21
-0.05953125
 31
0.0
  0
LINE
  5
D4
330
466
100
AcDbEntity
  8
0
 62
   178
420
        0
370
     5
100
AcDbLine
 10
0.0066145833333333
 20
-0.2513541666666666
 30
0.0
 11
0.0066145833333333
 21
-0.0661458333333333
 31
0.0
  0
LINE
  5
D3
330
466
100
AcDbEntity
  8
0
 62
   178
420
        0
370
     5
100
AcDbLine
 10
0.0132291666666666
 20
-0.05953125
 30
0.0
 11
0.2513541666666665
 21
-0.05953125
 31
0.0
  0
LINE
  5
DA
330
466
100
AcDbEntity
  8
0
 62
   178
420
        0
370
     5
100
AcDbLine
 10
0.2513541666666665
 20
-0.2579687499999999
 30
0.0
 11
0.2579687499999999
 21
-0.2579687499999999
 31
0.0
  0
LINE
  5
D9
330
466
100
AcDbEntity
  8
0
 62
   178
420
        0
370
     5
100
AcDbLine
 10
0.2513541666666665
 20
-0.05953125
 30
0.0
 11
0.2579687499999999
 21
-0.05953125
 31
0.0
  0
LINE
  5
D8
330
466
100
AcDbEntity
  8
0
 62
   178
420
        0
370
     5
100
AcDbLine
 10
0.0066145833333333
 20
-0.05953125
 30
0.0
 11
0.0132291666666666
 21
-0.05953125
 31
0.0
  0
LINE
  5
D7
330
466
100
AcDbEntity
  8
0
 62
   178
420
        0
370
     5
100
AcDbLine
 10
0.2513541666666665
 20
-0.2579687499999999
 30
0.0
 11
0.0132291666666666
 21
-0.2579687499999999
 31
0.0
  0
LINE
  5
DE
330
466
100
AcDbEntity
  8
0
 62
   178
420
        0
370
     5
100
AcDbLine
 10
0.2579687499999999
 20
-0.05953125
 30
0.0
 11
0.2579687499999999
 21
-0.0661458333333333
 31
0.0
  0
LINE
  5
DD
330
466
100
AcDbEntity
  8
0
 62
   178
420
        0
370
     5
100
AcDbLine
 10
0.0066145833333333
 20
-0.2579687499999999
 30
0.0
 11
0.0132291666666666
 21
-0.2579687499999999
 31
0.0
  0
LINE
  5
DC
330
466
100
AcDbEntity
  8
0
 62
   178
420
        0
370
     5
100
AcDbLine
 10
0.2579687499999999
 20
-0.0661458333333333
 30
0.0
 11
0.2579687499999999
 21
-0.2513541666666666
 31
0.0
  0
LINE
  5
DB
330
466
100
AcDbEntity
  8
0
 62
   178
420
        0
370
     5
100
AcDbLine
 10
0.2579687499999999
 20
-0.2579687499999999
 30
0.0
 11
0.2579687499999999
 21
-0.2513541666666666
 31
0.0
  0
LINE
  5
E5
330
466
100
AcDbEntity
  8
0
 62
   178
420
        0
370
     5
100
AcDbLine
 10
0.0066145833333333
 20
-0.2513541666666666
 30
0.0
 11
0.0066145833333333
 21
-0.2579687499999999
 31
0.0
  0
LINE
  5
E3
330
466
100
AcDbEntity
  8
0
 62
   178
420
        0
370
     5
100
AcDbLine
 10
1.053041666666666
 20
-0.3029479166666666
 30
0.0
 11
1.053041666666666
 21
-0.0145520833333333
 31
0.0
  0
LINE
  5
E1
330
466
100
AcDbEntity
  8
0
 62
   178
420
        0
370
     5
100
AcDbLine
 10
0.8254999999999998
 20
-0.3029479166666666
 30
0.0
 11
1.053041666666666
 21
-0.3029479166666666
 31
0.0
  0
LINE
  5
DF
330
466
100
AcDbEntity
  8
0
 62
   178
420
        0
370
     5
100
AcDbLine
 10
0.8254999999999998
 20
-0.0145520833333333
 30
0.0
 11
0.8254999999999998
 21
-0.3029479166666666
 31
0.0
  0
LINE
  5
E6
330
466
100
AcDbEntity
  8
0
 62
   178
420
        0
370
     5
100
AcDbLine
 10
1.053041666666666
 20
-0.0145520833333333
 30
0.0
 11
0.8254999999999998
 21
-0.0145520833333333
 31
0.0
  0
ARC
  5
E4
330
466
100
AcDbEntity
  8
0
 62
   178
420
        0
370
     5
100
AcDbCircle
 10
0.9657291666666663
 20
-0.0396875
 30
0.0
 40
0.0396875
100
AcDbArc
 50
0.0
 51
90.0
  0
ARC
  5
E2
330
466
100
AcDbEntity
  8
0
 62
   178
420
        0
370
     5
100
AcDbCircle
 10
0.9657291666666663
 20
-0.2778124999999999
 30
0.0
 40
0.0396875
100
AcDbArc
 50
270.0
 51
0.0
  0
ARC
  5
E0
330
466
100
AcDbEntity
  8
0
 62
   178
420
        0
370
     5
100
AcDbCircle
 10
-0.0000000000000001
 20
-0.2778124999999999
 30
0.0
 40
0.0396875
100
AcDbArc
 50
180.0
 51
270.0
  0
ARC
  5
EA
330
466
100
AcDbEntity
  8
0
 62
   178
420
        0
370
     5
100
AcDbCircle
 10
-0.0000000000000001
 20
-0.0396875
 30
0.0
 40
0.0396875
100
AcDbArc
 50
90.00000000000001
 51
180.0
  0
LINE
  5
E9
330
466
100
AcDbEntity
  8
0
 62
   178
420
        0
370
     5
100
AcDbLine
 10
1.005416666666666
 20
-0.0396875
 30
0.0
 11
1.005416666666666
 21
-0.2778124999999999
 31
0.0
  0
LINE
  5
E8
330
466
100
AcDbEntity
  8
0
 62
   178
420
        0
370
     5
100
AcDbLine
 10
-0.0396875
 20
-0.2778124999999999
 30
0.0
 11
-0.0396875
 21
-0.0396875
 31
0.0
  0
LINE
  5
E7
330
466
100
AcDbEntity
  8
0
 62
   178
420
        0
370
     5
100
AcDbLine
 10
0.9657291666666663
 20
-0.3174999999999999
 30
0.0
 11
-0.0000000000000001
 21
-0.3174999999999999
 31
0.0
  0
LINE
  5
EB
330
466
100
AcDbEntity
  8
0
 62
   178
420
        0
370
     5
100
AcDbLine
 10
0.9657291666666663
 20
0.0
 30
0.0
 11
-0.0000000000000001
 21
0.0
 31
0.0
  0
ENDBLK
  5
468
330
466
100
AcDbEntity
  8
0
100
AcDbBlockEnd
  0
BLOCK
  5
46A
330
469
100
AcDbEntity
  8
0
100
AcDbBlockBegin
  2
block 2
 70
     0
 10
0.0
 20
0.0
 30
0.0
  3
block 2
  1

  0
LINE
  5
FF
330
469
100
AcDbEntity
  8
0
 62
   178
420
        0
370
     5
100
AcDbLine
 10
-19.65861108843854
 20
3.519444440385415
 30
0.0
 11
-19.65861108843854
 21
3.770833328984374
 31
0.0
  0
LINE
  5
100
330
469
100
AcDbEntity
  8
0
 62
   178
420
        0
370
     5
100
AcDbLine
 10
-19.65861108843854
 20
-3.519444440385415
 30
0.0
 11
-19.65861108843854
 21
3.519444440385415
 31
0.0
  0
LINE
  5
101
330
469
100
AcDbEntity
  8
0
 62
   178
420
        0
370
     5
100
AcDbLine
 10
-19.40722219983958
 20
3.770833328984374
 30
0.0
 11
-10.35722221027709
 21
3.770833328984374
 31
0.0
  0
LINE
  5
103
330
469
100
AcDbEntity
  8
0
 62
   178
420
        0
370
     5
100
AcDbLine
 10
-10.35722221027709
 20
-3.770833328984374
 30
0.0
 11
-10.10583332167813
 21
-3.770833328984374
 31
0.0
  0
LINE
  5
104
330
469
100
AcDbEntity
  8
0
 62
   178
420
        0
370
     5
100
AcDbLine
 10
-10.35722221027709
 20
3.770833328984374
 30
0.0
 11
-10.10583332167813
 21
3.770833328984374
 31
0.0
  0
LINE
  5
105
330
469
100
AcDbEntity
  8
0
 62
   178
420
        0
370
     5
100
AcDbLine
 10
-19.65861108843854
 20
3.770833328984374
 30
0.0
 11
-19.40722219983958
 21
3.770833328984374
 31
0.0
  0
LINE
  5
FE
330
469
100
AcDbEntity
  8
0
 62
   178
420
        0
370
     5
100
AcDbLine
 10
-10.35722221027709
 20
-3.770833328984374
 30
0.0
 11
-19.40722219983958
 21
-3.770833328984374
 31
0.0
  0
LINE
  5
107
330
469
100
AcDbEntity
  8
0
 62
   178
420
        0
370
     5
100
AcDbLine
 10
-10.10583332167813
 20
3.770833328984374
 30
0.0
 11
-10.10583332167813
 21
3.519444440385415
 31
0.0
  0
LINE
  5
108
330
469
100
AcDbEntity
  8
0
 62
   178
420
        0
370
     5
100
AcDbLine
 10
-19.65861108843854
 20
-3.770833328984374
 30
0.0
 11
-19.40722219983958
 21
-3.770833328984374
 31
0.0
  0
LINE
  5
109
330
469
100
AcDbEntity
  8
0
 62
   178
420
        0
370
     5
100
AcDbLine
 10
-10.10583332167813
 20
3.519444440385415
 30
0.0
 11
-10.10583332167813
 21
-3.519444440385415
 31
0.0
  0
LINE
  5
102
330
469
100
AcDbEntity
  8
0
 62
   178
420
        0
370
     5
100
AcDbLine
 10
-10.10583332167813
 20
-3.770833328984374
 30
0.0
 11
-10.10583332167813
 21
-3.519444440385415
 31
0.0
  0
LINE
  5
10C
330
469
100
AcDbEntity
  8
0
 62
   178
420
        0
370
     5
100
AcDbLine
 10
-19.65861108843854
 20
-3.519444440385415
 30
0.0
 11
-19.65861108843854
 21
-3.770833328984374
 31
0.0
  0
LINE
  5
10D
330
469
100
AcDbEntity
  8
0
 62
   178
420
        0
370
     5
100
AcDbLine
 10
-29.71416663239687
 20
3.519444440385415
 30
0.0
 11
-29.71416663239687
 21
3.770833328984374
 31
0.0
  0
LINE
  5
10A
330
469
100
AcDbEntity
  8
0
 62
   178
420
        0
370
     5
100
AcDbLine
 10
-29.71416663239687
 20
-3.519444440385415
 30
0.0
 11
-29.71416663239687
 21
3.519444440385415
 31
0.0
  0
LINE
  5
106
330
469
100
AcDbEntity
  8
0
 62
   178
420
        0
370
     5
100
AcDbLine
 10
-29.46277774379791
 20
3.770833328984374
 30
0.0
 11
-20.41277775423542
 21
3.770833328984374
 31
0.0
  0
LINE
  5
10F
330
469
100
AcDbEntity
  8
0
 62
   178
420
        0
370
     5
100
AcDbLine
 10
-20.41277775423542
 20
-3.770833328984374
 30
0.0
 11
-20.16138886563646
 21
-3.770833328984374
 31
0.0
  0
LINE
  5
110
330
469
100
AcDbEntity
  8
0
 62
   178
420
        0
370
     5
100
AcDbLine
 10
-20.41277775423542
 20
3.770833328984374
 30
0.0
 11
-20.16138886563646
 21
3.770833328984374
 31
0.0
  0
LINE
  5
111
330
469
100
AcDbEntity
  8
0
 62
   178
420
        0
370
     5
100
AcDbLine
 10
-29.71416663239687
 20
3.770833328984374
 30
0.0
 11
-29.46277774379791
 21
3.770833328984374
 31
0.0
  0
LINE
  5
10B
330
469
100
AcDbEntity
  8
0
 62
   178
420
        0
370
     5
100
AcDbLine
 10
-20.41277775423542
 20
-3.770833328984374
 30
0.0
 11
-29.46277774379791
 21
-3.770833328984374
 31
0.0
  0
LINE
  5
113
330
469
100
AcDbEntity
  8
0
 62
   178
420
        0
370
     5
100
AcDbLine
 10
-20.16138886563646
 20
3.770833328984374
 30
0.0
 11
-20.16138886563646
 21
3.519444440385415
 31
0.0
  0
LINE
  5
114
330
469
100
AcDbEntity
  8
0
 62
   178
420
        0
370
     5
100
AcDbLine
 10
-29.71416663239687
 20
-3.770833328984374
 30
0.0
 11
-29.46277774379791
 21
-3.770833328984374
 31
0.0
  0
LINE
  5
115
330
469
100
AcDbEntity
  8
0
 62
   178
420
        0
370
     5
100
AcDbLine
 10
-20.16138886563646
 20
3.519444440385415
 30
0.0
 11
-20.16138886563646
 21
-3.519444440385415
 31
0.0
  0
LINE
  5
10E
330
469
100
AcDbEntity
  8
0
 62
   178
420
        0
370
     5
100
AcDbLine
 10
-20.16138886563646
 20
-3.770833328984374
 30
0.0
 11
-20.16138886563646
 21
-3.519444440385415
 31
0.0
  0
LINE
  5
117
330
469
100
AcDbEntity
  8
0
 62
   178
420
        0
370
     5
100
AcDbLine
 10
-29.71416663239687
 20
-3.519444440385415
 30
0.0
 11
-29.71416663239687
 21
-3.770833328984374
 31
0.0
  0
LINE
  5
118
330
469
100
AcDbEntity
  8
0
 62
   178
420
        0
370
     5
100
AcDbLine
 10
-39.7697221763552
 20
3.519444440385415
 30
0.0
 11
-39.7697221763552
 21
3.770833328984374
 31
0.0
  0
LINE
  5
119
330
469
100
AcDbEntity
  8
0
 62
   178
420
        0
370
     5
100
AcDbLine
 10
-39.7697221763552
 20
-3.519444440385415
 30
0.0
 11
-39.7697221763552
 21
3.519444440385415
 31
0.0
  0
LINE
  5
112
330
469
100
AcDbEntity
  8
0
 62
   178
420
        0
370
     5
100
AcDbLine
 10
-39.51833328775625
 20
3.770833328984374
 30
0.0
 11
-30.46833329819375
 21
3.770833328984374
 31
0.0
  0
LINE
  5
11B
330
469
100
AcDbEntity
  8
0
 62
   178
420
        0
370
     5
100
AcDbLine
 10
-30.46833329819375
 20
-3.770833328984374
 30
0.0
 11
-30.21694440959479
 21
-3.770833328984374
 31
0.0
  0
LINE
  5
11C
330
469
100
AcDbEntity
  8
0
 62
   178
420
        0
370
     5
100
AcDbLine
 10
-30.46833329819375
 20
3.770833328984374
 30
0.0
 11
-30.21694440959479
 21
3.770833328984374
 31
0.0
  0
LINE
  5
11D
330
469
100
AcDbEntity
  8
0
 62
   178
420
        0
370
     5
100
AcDbLine
 10
-39.7697221763552
 20
3.770833328984374
 30
0.0
 11
-39.51833328775625
 21
3.770833328984374
 31
0.0
  0
LINE
  5
116
330
469
100
AcDbEntity
  8
0
 62
   178
420
        0
370
     5
100
AcDbLine
 10
-30.46833329819375
 20
-3.770833328984374
 30
0.0
 11
-39.51833328775625
 21
-3.770833328984374
 31
0.0
  0
LINE
  5
11F
330
469
100
AcDbEntity
  8
0
 62
   178
420
        0
370
     5
100
AcDbLine
 10
-30.21694440959479
 20
3.770833328984374
 30
0.0
 11
-30.21694440959479
 21
3.519444440385415
 31
0.0
  0
LINE
  5
120
330
469
100
AcDbEntity
  8
0
 62
   178
420
        0
370
     5
100
AcDbLine
 10
-39.7697221763552
 20
-3.770833328984374
 30
0.0
 11
-39.51833328775625
 21
-3.770833328984374
 31
0.0
  0
LINE
  5
121
330
469
100
AcDbEntity
  8
0
 62
   178
420
        0
370
     5
100
AcDbLine
 10
-30.21694440959479
 20
3.519444440385415
 30
0.0
 11
-30.21694440959479
 21
-3.519444440385415
 31
0.0
  0
LINE
  5
11A
330
469
100
AcDbEntity
  8
0
 62
   178
420
        0
370
     5
100
AcDbLine
 10
-30.21694440959479
 20
-3.770833328984374
 30
0.0
 11
-30.21694440959479
 21
-3.519444440385415
 31
0.0
  0
LINE
  5
128
330
469
100
AcDbEntity
  8
0
 62
   178
420
        0
370
     5
100
AcDbLine
 10
-39.7697221763552
 20
-3.519444440385415
 30
0.0
 11
-39.7697221763552
 21
-3.770833328984374
 31
0.0
  0
LINE
  5
122
330
469
100
AcDbEntity
  8
0
 62
   178
420
        0
370
     5
100
AcDbLine
 10
0.0
 20
-5.48027777145729
 30
0.0
 11
0.0
 21
5.48027777145729
 31
0.0
  0
LINE
  5
124
330
469
100
AcDbEntity
  8
0
 62
   178
420
        0
370
     5
100
AcDbLine
 10
-8.647777767804168
 20
-5.48027777145729
 30
0.0
 11
0.0
 21
-5.48027777145729
 31
0.0
  0
LINE
  5
11E
330
469
100
AcDbEntity
  8
0
 62
   178
420
        0
370
     5
100
AcDbLine
 10
-8.647777767804168
 20
5.48027777145729
 30
0.0
 11
-8.647777767804168
 21
-5.48027777145729
 31
0.0
  0
LINE
  5
127
330
469
100
AcDbEntity
  8
0
 62
   178
420
        0
370
     5
100
AcDbLine
 10
0.0
 20
5.48027777145729
 30
0.0
 11
-8.647777767804168
 21
5.48027777145729
 31
0.0
  0
ARC
  5
129
330
469
100
AcDbEntity
  8
0
 62
   178
420
        0
370
     5
100
AcDbCircle
 10
-3.31833332950626
 20
4.524999994781247
 30
0.0
 40
1.508333331593752
100
AcDbArc
 50
0.0
 51
90.0
  0
ARC
  5
123
330
469
100
AcDbEntity
  8
0
 62
   178
420
        0
370
     5
100
AcDbCircle
 10
-3.31833332950626
 20
-4.524999994781247
 30
0.0
 40
1.508333331593752
100
AcDbArc
 50
270.0
 51
0.0
  0
ARC
  5
125
330
469
100
AcDbEntity
  8
0
 62
   178
420
        0
370
     5
100
AcDbCircle
 10
-40.02111106495416
 20
-4.524999994781249
 30
0.0
 40
1.508333331593749
100
AcDbArc
 50
180.0
 51
270.0
  0
ARC
  5
FB
330
469
100
AcDbEntity
  8
0
 62
   178
420
        0
370
     5
100
AcDbCircle
 10
-40.02111106495416
 20
4.524999994781248
 30
0.0
 40
1.50833333159375
100
AcDbArc
 50
90.00000000000001
 51
180.0
  0
LINE
  5
FC
330
469
100
AcDbEntity
  8
0
 62
   178
420
        0
370
     5
100
AcDbLine
 10
-1.809999997912506
 20
4.524999994781249
 30
0.0
 11
-1.809999997912506
 21
-4.524999994781249
 31
0.0
  0
LINE
  5
FD
330
469
100
AcDbEntity
  8
0
 62
   178
420
        0
370
     5
100
AcDbLine
 10
-41.52944439654792
 20
-4.524999994781249
 30
0.0
 11
-41.52944439654792
 21
4.524999994781249
 31
0.0
  0
LINE
  5
126
330
469
100
AcDbEntity
  8
0
 62
   178
420
        0
370
     5
100
AcDbLine
 10
-3.31833332950626
 20
-6.033333326374997
 30
0.0
 11
-40.02111106495416
 21
-6.033333326374997
 31
0.0
  0
LINE
  5
12A
330
469
100
AcDbEntity
  8
0
 62
   178
420
        0
370
     5
100
AcDbLine
 10
-3.31833332950626
 20
6.033333326374998
 30
0.0
 11
-40.02111106495416
 21
6.033333326374998
 31
0.0
  0
ENDBLK
  5
46B
330
469
100
AcDbEntity
  8
0
100
AcDbBlockEnd
  0
BLOCK
  5
46D
330
46C
100
AcDbEntity
  8
0
100
AcDbBlockBegin
  2
block 3
 70
     0
 10
0.0
 20
0.0
 30
0.0
  3
block 3
  1

  0
LINE
  5
176
330
46C
100
AcDbEntity
  8
0
 62
   178
420
        0
370
     5
100
AcDbLine
 10
-8.647777767804158
 20
5.480277771457295
 30
0.0
 11
-8.647777767804158
 21
-5.480277771457295
 31
0.0
  0
LINE
  5
17C
330
46C
100
AcDbEntity
  8
0
 62
   178
420
        0
370
     5
100
AcDbLine
 10
0.0000000000000142
 20
5.480277771457295
 30
0.0
 11
-8.647777767804158
 21
5.480277771457295
 31
0.0
  0
LINE
  5
172
330
46C
100
AcDbEntity
  8
0
 62
   178
420
        0
370
     5
100
AcDbLine
 10
0.0
 20
-5.480277771457295
 30
0.0
 11
0.0000000000000142
 21
5.480277771457295
 31
0.0
  0
LINE
  5
179
330
46C
100
AcDbEntity
  8
0
 62
   178
420
        0
370
     5
100
AcDbLine
 10
-8.647777767804158
 20
-5.480277771457295
 30
0.0
 11
0.0
 21
-5.480277771457295
 31
0.0
  0
ARC
  5
17E
330
46C
100
AcDbEntity
  8
0
 62
   178
420
        0
370
     5
100
AcDbCircle
 10
-5.329444438297898
 20
-4.524999994781254
 30
0.0
 40
1.508333331593752
100
AcDbArc
 50
180.0
 51
270.0
  0
ARC
  5
175
330
46C
100
AcDbEntity
  8
0
 62
   178
420
        0
370
     5
100
AcDbCircle
 10
-5.329444438297898
 20
4.52499999478124
 30
0.0
 40
1.508333331593752
100
AcDbArc
 50
90.0
 51
180.0
  0
LINE
  5
162
330
46C
100
AcDbEntity
  8
0
 62
   178
420
        0
370
     5
100
AcDbLine
 10
-6.837777769891645
 20
-4.524999994781254
 30
0.0
 11
-6.837777769891645
 21
4.524999994781254
 31
0.0
  0
ENDBLK
  5
46E
330
46C
100
AcDbEntity
  8
0
100
AcDbBlockEnd
  0
BLOCK
  5
470
330
46F
100
AcDbEntity
  8
0
100
AcDbBlockBegin
  2
block 4
 70
     0
 10
0.0
 20
0.0
 30
0.0
  3
block 4
  1

  0
LINE
  5
163
330
46F
100
AcDbEntity
  8
0
 62
   178
420
        0
370
     5
100
AcDbLine
 10
19.65861108843852
 20
-3.519444440385413
 30
0.0
 11
19.65861108843852
 21
-3.770833328984367
 31
0.0
  0
LINE
  5
15A
330
46F
100
AcDbEntity
  8
0
 62
   178
420
        0
370
     5
100
AcDbLine
 10
19.65861108843852
 20
3.519444440385399
 30
0.0
 11
19.65861108843852
 21
-3.519444440385413
 31
0.0
  0
LINE
  5
155
330
46F
100
AcDbEntity
  8
0
 62
   178
420
        0
370
     5
100
AcDbLine
 10
19.40722219983955
 20
-3.770833328984395
 30
0.0
 11
10.35722221027706
 21
-3.770833328984352
 31
0.0
  0
LINE
  5
15F
330
46F
100
AcDbEntity
  8
0
 62
   178
420
        0
370
     5
100
AcDbLine
 10
10.35722221027706
 20
3.770833328984338
 30
0.0
 11
10.10583332167811
 21
3.770833328984352
 31
0.0
  0
LINE
  5
168
330
46F
100
AcDbEntity
  8
0
 62
   178
420
        0
370
     5
100
AcDbLine
 10
10.35722221027706
 20
-3.770833328984352
 30
0.0
 11
10.10583332167811
 21
-3.770833328984367
 31
0.0
  0
LINE
  5
167
330
46F
100
AcDbEntity
  8
0
 62
   178
420
        0
370
     5
100
AcDbLine
 10
19.65861108843852
 20
-3.770833328984367
 30
0.0
 11
19.40722219983955
 21
-3.770833328984395
 31
0.0
  0
LINE
  5
159
330
46F
100
AcDbEntity
  8
0
 62
   178
420
        0
370
     5
100
AcDbLine
 10
10.35722221027706
 20
3.770833328984338
 30
0.0
 11
19.40722219983955
 21
3.770833328984381
 31
0.0
  0
LINE
  5
165
330
46F
100
AcDbEntity
  8
0
 62
   178
420
        0
370
     5
100
AcDbLine
 10
10.10583332167811
 20
-3.770833328984367
 30
0.0
 11
10.10583332167811
 21
-3.519444440385428
 31
0.0
  0
LINE
  5
16C
330
46F
100
AcDbEntity
  8
0
 62
   178
420
        0
370
     5
100
AcDbLine
 10
19.65861108843852
 20
3.770833328984352
 30
0.0
 11
19.40722219983955
 21
3.770833328984381
 31
0.0
  0
LINE
  5
16B
330
46F
100
AcDbEntity
  8
0
 62
   178
420
        0
370
     5
100
AcDbLine
 10
10.10583332167811
 20
-3.519444440385428
 30
0.0
 11
10.10583332167811
 21
3.519444440385413
 31
0.0
  0
LINE
  5
161
330
46F
100
AcDbEntity
  8
0
 62
   178
420
        0
370
     5
100
AcDbLine
 10
10.10583332167811
 20
3.770833328984352
 30
0.0
 11
10.10583332167811
 21
3.519444440385413
 31
0.0
  0
LINE
  5
169
330
46F
100
AcDbEntity
  8
0
 62
   178
420
        0
370
     5
100
AcDbLine
 10
19.65861108843852
 20
3.519444440385399
 30
0.0
 11
19.65861108843852
 21
3.770833328984352
 31
0.0
  0
LINE
  5
170
330
46F
100
AcDbEntity
  8
0
 62
   178
420
        0
370
     5
100
AcDbLine
 10
29.71416663239684
 20
-3.519444440385442
 30
0.0
 11
29.71416663239684
 21
-3.770833328984395
 31
0.0
  0
LINE
  5
16F
330
46F
100
AcDbEntity
  8
0
 62
   178
420
        0
370
     5
100
AcDbLine
 10
29.71416663239684
 20
3.519444440385413
 30
0.0
 11
29.71416663239684
 21
-3.519444440385442
 31
0.0
  0
LINE
  5
166
330
46F
100
AcDbEntity
  8
0
 62
   178
420
        0
370
     5
100
AcDbLine
 10
29.4627777437979
 20
-3.770833328984352
 30
0.0
 11
20.41277775423539
 21
-3.770833328984381
 31
0.0
  0
LINE
  5
16D
330
46F
100
AcDbEntity
  8
0
 62
   178
420
        0
370
     5
100
AcDbLine
 10
20.41277775423539
 20
3.770833328984367
 30
0.0
 11
20.16138886563643
 21
3.770833328984338
 31
0.0
  0
LINE
  5
174
330
46F
100
AcDbEntity
  8
0
 62
   178
420
        0
370
     5
100
AcDbLine
 10
20.41277775423539
 20
-3.770833328984381
 30
0.0
 11
20.16138886563643
 21
-3.770833328984352
 31
0.0
  0
LINE
  5
173
330
46F
100
AcDbEntity
  8
0
 62
   178
420
        0
370
     5
100
AcDbLine
 10
29.71416663239684
 20
-3.770833328984395
 30
0.0
 11
29.4627777437979
 21
-3.770833328984352
 31
0.0
  0
LINE
  5
16A
330
46F
100
AcDbEntity
  8
0
 62
   178
420
        0
370
     5
100
AcDbLine
 10
20.41277775423539
 20
3.770833328984367
 30
0.0
 11
29.4627777437979
 21
3.770833328984324
 31
0.0
  0
LINE
  5
171
330
46F
100
AcDbEntity
  8
0
 62
   178
420
        0
370
     5
100
AcDbLine
 10
20.16138886563643
 20
-3.770833328984352
 30
0.0
 11
20.16138886563643
 21
-3.519444440385399
 31
0.0
  0
LINE
  5
178
330
46F
100
AcDbEntity
  8
0
 62
   178
420
        0
370
     5
100
AcDbLine
 10
29.71416663239684
 20
3.770833328984381
 30
0.0
 11
29.4627777437979
 21
3.770833328984324
 31
0.0
  0
LINE
  5
177
330
46F
100
AcDbEntity
  8
0
 62
   178
420
        0
370
     5
100
AcDbLine
 10
20.16138886563643
 20
-3.519444440385399
 30
0.0
 11
20.16138886563643
 21
3.519444440385385
 31
0.0
  0
LINE
  5
16E
330
46F
100
AcDbEntity
  8
0
 62
   178
420
        0
370
     5
100
AcDbLine
 10
20.16138886563643
 20
3.770833328984338
 30
0.0
 11
20.16138886563643
 21
3.519444440385385
 31
0.0
  0
LINE
  5
17F
330
46F
100
AcDbEntity
  8
0
 62
   178
420
        0
370
     5
100
AcDbLine
 10
29.71416663239684
 20
3.519444440385413
 30
0.0
 11
29.71416663239684
 21
3.770833328984381
 31
0.0
  0
LINE
  5
188
330
46F
100
AcDbEntity
  8
0
 62
   178
420
        0
370
     5
100
AcDbLine
 10
0.0
 20
5.480277771457295
 30
0.0
 11
0.0
 21
-5.480277771457295
 31
0.0
  0
LINE
  5
185
330
46F
100
AcDbEntity
  8
0
 62
   178
420
        0
370
     5
100
AcDbLine
 10
8.647777767804172
 20
5.480277771457295
 30
0.0
 11
0.0
 21
5.480277771457295
 31
0.0
  0
LINE
  5
186
330
46F
100
AcDbEntity
  8
0
 62
   178
420
        0
370
     5
100
AcDbLine
 10
8.647777767804158
 20
-5.480277771457295
 30
0.0
 11
8.647777767804172
 21
5.480277771457295
 31
0.0
  0
LINE
  5
183
330
46F
100
AcDbEntity
  8
0
 62
   178
420
        0
370
     5
100
AcDbLine
 10
0.0
 20
-5.480277771457295
 30
0.0
 11
8.647777767804158
 21
-5.480277771457295
 31
0.0
  0
ARC
  5
184
330
46F
100
AcDbEntity
  8
0
 62
   178
420
        0
370
     5
100
AcDbCircle
 10
3.31833332950626
 20
-4.524999994781254
 30
0.0
 40
1.508333331593752
100
AcDbArc
 50
180.0
 51
270.0
  0
ARC
  5
189
330
46F
100
AcDbEntity
  8
0
 62
   178
420
        0
370
     5
100
AcDbCircle
 10
3.31833332950626
 20
4.52499999478124
 30
0.0
 40
1.508333331593752
100
AcDbArc
 50
90.0
 51
180.0
  0
ARC
  5
17B
330
46F
100
AcDbEntity
  8
0
 62
   178
420
        0
370
     5
100
AcDbCircle
 10
29.96555552099581
 20
4.524999994781197
 30
0.0
 40
1.508333331593749
100
AcDbArc
 50
0.0
 51
90.0
  0
ARC
  5
157
330
46F
100
AcDbEntity
  8
0
 62
   178
420
        0
370
     5
100
AcDbCircle
 10
29.96555552099581
 20
-4.524999994781211
 30
0.0
 40
1.50833333159375
100
AcDbArc
 50
270.0
 51
0.0
  0
LINE
  5
187
330
46F
100
AcDbEntity
  8
0
 62
   178
420
        0
370
     5
100
AcDbLine
 10
1.809999997912513
 20
-4.524999994781254
 30
0.0
 11
1.809999997912513
 21
4.524999994781254
 31
0.0
  0
LINE
  5
160
330
46F
100
AcDbEntity
  8
0
 62
   178
420
        0
370
     5
100
AcDbLine
 10
31.47388885258955
 20
4.524999994781254
 30
0.0
 11
31.47388885258955
 21
-4.524999994781282
 31
0.0
  0
LINE
  5
18A
330
46F
100
AcDbEntity
  8
0
100
AcDbLine
 10
3.31833332950626
 20
6.033333326374986
 30
0.0
 11
29.96555552099581
 21
6.033333326374944
 31
0.0
  0
LINE
  5
18B
330
46F
100
AcDbEntity
  8
0
100
AcDbLine
 10
3.31833332950626
 20
-6.033333326375001
 30
0.0
 11
29.96555552099581
 21
-6.033333326374958
 31
0.0
  0
ENDBLK
  5
471
330
46F
100
AcDbEntity
  8
0
100
AcDbBlockEnd
  0
BLOCK
  5
473
330
472
100
AcDbEntity
  8
0
100
AcDbBlockBegin
  2
block 5
 70
     0
 10
0.0
 20
0.0
 30
0.0
  3
block 5
  1

  0
LINE
  5
1E2
330
472
100
AcDbEntity
  8
0
 62
   178
420
        0
370
     5
100
AcDbLine
 10
9.552777766760428
 20
-3.519444440385413
 30
0.0
 11
9.552777766760428
 21
-3.770833328984367
 31
0.0
  0
LINE
  5
1D2
330
472
100
AcDbEntity
  8
0
 62
   178
420
        0
370
     5
100
AcDbLine
 10
9.552777766760428
 20
3.519444440385399
 30
0.0
 11
9.552777766760428
 21
-3.519444440385413
 31
0.0
  0
LINE
  5
1CE
330
472
100
AcDbEntity
  8
0
 62
   178
420
        0
370
     5
100
AcDbLine
 10
9.301388878161461
 20
-3.770833328984395
 30
0.0
 11
0.251388888598953
 21
-3.770833328984352
 31
0.0
  0
LINE
  5
1D5
330
472
100
AcDbEntity
  8
0
 62
   178
420
        0
370
     5
100
AcDbLine
 10
0.251388888598953
 20
3.770833328984338
 30
0.0
 11
0.0
 21
3.770833328984352
 31
0.0
  0
LINE
  5
1C7
330
472
100
AcDbEntity
  8
0
 62
   178
420
        0
370
     5
100
AcDbLine
 10
0.251388888598953
 20
-3.770833328984352
 30
0.0
 11
0.0
 21
-3.770833328984367
 31
0.0
  0
LINE
  5
1C1
330
472
100
AcDbEntity
  8
0
 62
   178
420
        0
370
     5
100
AcDbLine
 10
9.552777766760428
 20
-3.770833328984367
 30
0.0
 11
9.301388878161461
 21
-3.770833328984395
 31
0.0
  0
LINE
  5
1D3
330
472
100
AcDbEntity
  8
0
 62
   178
420
        0
370
     5
100
AcDbLine
 10
0.251388888598953
 20
3.770833328984338
 30
0.0
 11
9.301388878161461
 21
3.770833328984381
 31
0.0
  0
LINE
  5
1C3
330
472
100
AcDbEntity
  8
0
 62
   178
420
        0
370
     5
100
AcDbLine
 10
0.0
 20
-3.770833328984367
 30
0.0
 11
0.0
 21
-3.519444440385428
 31
0.0
  0
LINE
  5
1CB
330
472
100
AcDbEntity
  8
0
 62
   178
420
        0
370
     5
100
AcDbLine
 10
9.552777766760428
 20
3.770833328984352
 30
0.0
 11
9.301388878161461
 21
3.770833328984381
 31
0.0
  0
LINE
  5
1C4
330
472
100
AcDbEntity
  8
0
 62
   178
420
        0
370
     5
100
AcDbLine
 10
0.0
 20
-3.519444440385428
 30
0.0
 11
0.0
 21
3.519444440385413
 31
0.0
  0
LINE
  5
1E3
330
472
100
AcDbEntity
  8
0
 62
   178
420
        0
370
     5
100
AcDbLine
 10
0.0
 20
3.770833328984352
 30
0.0
 11
0.0
 21
3.519444440385413
 31
0.0
  0
LINE
  5
1C6
330
472
100
AcDbEntity
  8
0
 62
   178
420
        0
370
     5
100
AcDbLine
 10
9.552777766760428
 20
3.519444440385399
 30
0.0
 11
9.552777766760428
 21
3.770833328984352
 31
0.0
  0
LINE
  5
1D0
330
472
100
AcDbEntity
  8
0
 62
   178
420
        0
370
     5
100
AcDbLine
 10
19.60833331071872
 20
-3.519444440385442
 30
0.0
 11
19.60833331071872
 21
-3.770833328984395
 31
0.0
  0
LINE
  5
1C8
330
472
100
AcDbEntity
  8
0
 62
   178
420
        0
370
     5
100
AcDbLine
 10
19.60833331071872
 20
3.519444440385413
 30
0.0
 11
19.60833331071872
 21
-3.519444440385442
 31
0.0
  0
LINE
  5
1C2
330
472
100
AcDbEntity
  8
0
 62
   178
420
        0
370
     5
100
AcDbLine
 10
19.35694442211981
 20
-3.770833328984352
 30
0.0
 11
10.30694443255727
 21
-3.770833328984381
 31
0.0
  0
LINE
  5
1CA
330
472
100
AcDbEntity
  8
0
 62
   178
420
        0
370
     5
100
AcDbLine
 10
10.30694443255727
 20
3.770833328984367
 30
0.0
 11
10.05555554395831
 21
3.770833328984338
 31
0.0
  0
LINE
  5
1D4
330
472
100
AcDbEntity
  8
0
 62
   178
420
        0
370
     5
100
AcDbLine
 10
10.30694443255727
 20
-3.770833328984381
 30
0.0
 11
10.05555554395831
 21
-3.770833328984352
 31
0.0
  0
LINE
  5
1CD
330
472
100
AcDbEntity
  8
0
 62
   178
420
        0
370
     5
100
AcDbLine
 10
19.60833331071872
 20
-3.770833328984395
 30
0.0
 11
19.35694442211981
 21
-3.770833328984352
 31
0.0
  0
LINE
  5
1C5
330
472
100
AcDbEntity
  8
0
 62
   178
420
        0
370
     5
100
AcDbLine
 10
10.30694443255727
 20
3.770833328984367
 30
0.0
 11
19.35694442211981
 21
3.770833328984324
 31
0.0
  0
LINE
  5
1CF
330
472
100
AcDbEntity
  8
0
 62
   178
420
        0
370
     5
100
AcDbLine
 10
10.05555554395831
 20
-3.770833328984352
 30
0.0
 11
10.05555554395831
 21
-3.519444440385399
 31
0.0
  0
LINE
  5
1D8
330
472
100
AcDbEntity
  8
0
 62
   178
420
        0
370
     5
100
AcDbLine
 10
19.60833331071872
 20
3.770833328984381
 30
0.0
 11
19.35694442211981
 21
3.770833328984324
 31
0.0
  0
LINE
  5
1D1
330
472
100
AcDbEntity
  8
0
 62
   178
420
        0
370
     5
100
AcDbLine
 10
10.05555554395831
 20
-3.519444440385399
 30
0.0
 11
10.05555554395831
 21
3.519444440385385
 31
0.0
  0
LINE
  5
1C9
330
472
100
AcDbEntity
  8
0
 62
   178
420
        0
370
     5
100
AcDbLine
 10
10.05555554395831
 20
3.770833328984338
 30
0.0
 11
10.05555554395831
 21
3.519444440385385
 31
0.0
  0
LINE
  5
1D9
330
472
100
AcDbEntity
  8
0
 62
   178
420
        0
370
     5
100
AcDbLine
 10
19.60833331071872
 20
3.519444440385413
 30
0.0
 11
19.60833331071872
 21
3.770833328984381
 31
0.0
  0
ENDBLK
  5
474
330
472
100
AcDbEntity
  8
0
100
AcDbBlockEnd
  0
BLOCK
  5
476
330
475
100
AcDbEntity
  8
0
100
AcDbBlockBegin
  2
block 6
 70
     0
 10
0.0
 20
0.0
 30
0.0
  3
block 6
  1

  0
LINE
  5
19C
330
475
100
AcDbEntity
  8
0
 62
   178
420
        0
370
     5
100
AcDbLine
 10
5.279166660578127
 20
7.29027776936978
 30
0.0
 11
5.279166660578127
 21
7.541666657968733
 31
0.0
  0
LINE
  5
193
330
475
100
AcDbEntity
  8
0
 62
   178
420
        0
370
     5
100
AcDbLine
 10
5.279166660578127
 20
0.251388888598953
 30
0.0
 11
5.279166660578127
 21
7.29027776936978
 31
0.0
  0
LINE
  5
192
330
475
100
AcDbEntity
  8
0
 62
   178
420
        0
370
     5
100
AcDbLine
 10
5.530555549177095
 20
7.541666657968733
 30
0.0
 11
14.58055553873959
 21
7.541666657968733
 31
0.0
  0
LINE
  5
190
330
475
100
AcDbEntity
  8
0
 62
   178
420
        0
370
     5
100
AcDbLine
 10
14.58055553873959
 20
0.0
 30
0.0
 11
14.83194442733856
 21
0.0
 31
0.0
  0
LINE
  5
198
330
475
100
AcDbEntity
  8
0
 62
   178
420
        0
370
     5
100
AcDbLine
 10
14.58055553873959
 20
7.541666657968733
 30
0.0
 11
14.83194442733856
 21
7.541666657968733
 31
0.0
  0
LINE
  5
196
330
475
100
AcDbEntity
  8
0
 62
   178
420
        0
370
     5
100
AcDbLine
 10
5.279166660578127
 20
7.541666657968733
 30
0.0
 11
5.530555549177095
 21
7.541666657968733
 31
0.0
  0
LINE
  5
19E
330
475
100
AcDbEntity
  8
0
 62
   178
420
        0
370
     5
100
AcDbLine
 10
14.58055553873959
 20
0.0
 30
0.0
 11
5.530555549177095
 21
0.0
 31
0.0
  0
LINE
  5
194
330
475
100
AcDbEntity
  8
0
 62
   178
420
        0
370
     5
100
AcDbLine
 10
14.83194442733856
 20
7.541666657968733
 30
0.0
 11
14.83194442733856
 21
7.29027776936978
 31
0.0
  0
LINE
  5
19D
330
475
100
AcDbEntity
  8
0
 62
   178
420
        0
370
     5
100
AcDbLine
 10
5.279166660578127
 20
0.0
 30
0.0
 11
5.530555549177095
 21
0.0
 31
0.0
  0
LINE
  5
19B
330
475
100
AcDbEntity
  8
0
 62
   178
420
        0
370
     5
100
AcDbLine
 10
14.83194442733856
 20
7.29027776936978
 30
0.0
 11
14.83194442733856
 21
0.251388888598953
 31
0.0
  0
LINE
  5
191
330
475
100
AcDbEntity
  8
0
 62
   178
420
        0
370
     5
100
AcDbLine
 10
14.83194442733856
 20
0.0
 30
0.0
 11
14.83194442733856
 21
0.251388888598953
 31
0.0
  0
LINE
  5
1A4
330
475
100
AcDbEntity
  8
0
 62
   178
420
        0
370
     5
100
AcDbLine
 10
5.279166660578127
 20
0.251388888598953
 30
0.0
 11
5.279166660578127
 21
0.0
 31
0.0
  0
LINE
  5
1A3
330
475
100
AcDbEntity
  8
0
 62
   178
420
        0
370
     5
100
AcDbLine
 10
-4.776388883380207
 20
7.29027776936978
 30
0.0
 11
-4.776388883380207
 21
7.541666657968733
 31
0.0
  0
LINE
  5
19A
330
475
100
AcDbEntity
  8
0
 62
   178
420
        0
370
     5
100
AcDbLine
 10
-4.776388883380207
 20
0.251388888598953
 30
0.0
 11
-4.776388883380207
 21
7.29027776936978
 31
0.0
  0
LINE
  5
195
330
475
100
AcDbEntity
  8
0
 62
   178
420
        0
370
     5
100
AcDbLine
 10
-4.52499999478124
 20
7.541666657968733
 30
0.0
 11
4.524999994781254
 21
7.541666657968733
 31
0.0
  0
LINE
  5
19F
330
475
100
AcDbEntity
  8
0
 62
   178
420
        0
370
     5
100
AcDbLine
 10
4.524999994781254
 20
0.0
 30
0.0
 11
4.776388883380207
 21
0.0
 31
0.0
  0
LINE
  5
1A8
330
475
100
AcDbEntity
  8
0
 62
   178
420
        0
370
     5
100
AcDbLine
 10
4.524999994781254
 20
7.541666657968733
 30
0.0
 11
4.776388883380207
 21
7.541666657968733
 31
0.0
  0
LINE
  5
1A7
330
475
100
AcDbEntity
  8
0
 62
   178
420
        0
370
     5
100
AcDbLine
 10
-4.776388883380207
 20
7.541666657968733
 30
0.0
 11
-4.52499999478124
 21
7.541666657968733
 31
0.0
  0
LINE
  5
199
330
475
100
AcDbEntity
  8
0
 62
   178
420
        0
370
     5
100
AcDbLine
 10
4.524999994781254
 20
0.0
 30
0.0
 11
-4.52499999478124
 21
0.0
 31
0.0
  0
LINE
  5
1A5
330
475
100
AcDbEntity
  8
0
 62
   178
420
        0
370
     5
100
AcDbLine
 10
4.776388883380207
 20
7.541666657968733
 30
0.0
 11
4.776388883380207
 21
7.29027776936978
 31
0.0
  0
LINE
  5
1AC
330
475
100
AcDbEntity
  8
0
 62
   178
420
        0
370
     5
100
AcDbLine
 10
-4.776388883380207
 20
0.0
 30
0.0
 11
-4.52499999478124
 21
0.0
 31
0.0
  0
LINE
  5
1AB
330
475
100
AcDbEntity
  8
0
 62
   178
420
        0
370
     5
100
AcDbLine
 10
4.776388883380207
 20
7.29027776936978
 30
0.0
 11
4.776388883380207
 21
0.251388888598953
 31
0.0
  0
LINE
  5
1A1
330
475
100
AcDbEntity
  8
0
 62
   178
420
        0
370
     5
100
AcDbLine
 10
4.776388883380207
 20
0.0
 30
0.0
 11
4.776388883380207
 21
0.251388888598953
 31
0.0
  0
LINE
  5
1A9
330
475
100
AcDbEntity
  8
0
 62
   178
420
        0
370
     5
100
AcDbLine
 10
-4.776388883380207
 20
0.251388888598953
 30
0.0
 11
-4.776388883380207
 21
0.0
 31
0.0
  0
LINE
  5
1B0
330
475
100
AcDbEntity
  8
0
 62
   178
420
        0
370
     5
100
AcDbLine
 10
-14.83194442733853
 20
7.29027776936978
 30
0.0
 11
-14.83194442733853
 21
7.541666657968733
 31
0.0
  0
LINE
  5
1AF
330
475
100
AcDbEntity
  8
0
 62
   178
420
        0
370
     5
100
AcDbLine
 10
-14.83194442733853
 20
0.251388888598953
 30
0.0
 11
-14.83194442733853
 21
7.29027776936978
 31
0.0
  0
LINE
  5
1A6
330
475
100
AcDbEntity
  8
0
 62
   178
420
        0
370
     5
100
AcDbLine
 10
-14.58055553873959
 20
7.541666657968733
 30
0.0
 11
-5.53055554917708
 21
7.541666657968733
 31
0.0
  0
LINE
  5
1AD
330
475
100
AcDbEntity
  8
0
 62
   178
420
        0
370
     5
100
AcDbLine
 10
-5.53055554917708
 20
0.0
 30
0.0
 11
-5.279166660578113
 21
0.0
 31
0.0
  0
LINE
  5
1B4
330
475
100
AcDbEntity
  8
0
 62
   178
420
        0
370
     5
100
AcDbLine
 10
-5.53055554917708
 20
7.541666657968733
 30
0.0
 11
-5.279166660578113
 21
7.541666657968733
 31
0.0
  0
LINE
  5
1B3
330
475
100
AcDbEntity
  8
0
 62
   178
420
        0
370
     5
100
AcDbLine
 10
-14.83194442733853
 20
7.541666657968733
 30
0.0
 11
-14.58055553873959
 21
7.541666657968733
 31
0.0
  0
LINE
  5
1AA
330
475
100
AcDbEntity
  8
0
 62
   178
420
        0
370
     5
100
AcDbLine
 10
-5.53055554917708
 20
0.0
 30
0.0
 11
-14.58055553873959
 21
0.0
 31
0.0
  0
LINE
  5
1B1
330
475
100
AcDbEntity
  8
0
 62
   178
420
        0
370
     5
100
AcDbLine
 10
-5.279166660578113
 20
7.541666657968733
 30
0.0
 11
-5.279166660578113
 21
7.29027776936978
 31
0.0
  0
LINE
  5
1B8
330
475
100
AcDbEntity
  8
0
 62
   178
420
        0
370
     5
100
AcDbLine
 10
-14.83194442733853
 20
0.0
 30
0.0
 11
-14.58055553873959
 21
0.0
 31
0.0
  0
LINE
  5
1B7
330
475
100
AcDbEntity
  8
0
 62
   178
420
        0
370
     5
100
AcDbLine
 10
-5.279166660578113
 20
7.29027776936978
 30
0.0
 11
-5.279166660578113
 21
0.251388888598953
 31
0.0
  0
LINE
  5
1AE
330
475
100
AcDbEntity
  8
0
 62
   178
420
        0
370
     5
100
AcDbLine
 10
-5.279166660578113
 20
0.0
 30
0.0
 11
-5.279166660578113
 21
0.251388888598953
 31
0.0
  0
LINE
  5
1BF
330
475
100
AcDbEntity
  8
0
 62
   178
420
        0
370
     5
100
AcDbLine
 10
-14.83194442733853
 20
0.251388888598953
 30
0.0
 11
-14.83194442733853
 21
0.0
 31
0.0
  0
ENDBLK
  5
477
330
475
100
AcDbEntity
  8
0
100
AcDbBlockEnd
  0
BLOCK
  5
479
330
478
100
AcDbEntity
  8
0
100
AcDbBlockBegin
  2
block 7
 70
     0
 10
0.0
 20
0.0
 30
0.0
  3
block 7
  1

  0
LINE
  5
201
330
478
100
AcDbEntity
  8
0
 62
   178
420
        0
370
     5
100
AcDbLine
 10
-3.519444440385342
 20
20.11111108791665
 30
0.0
 11
-3.77083332898431
 21
20.11111108791665
 31
0.0
  0
LINE
  5
1EA
330
478
100
AcDbEntity
  8
0
 62
   178
420
        0
370
     5
100
AcDbLine
 10
3.519444440385485
 20
20.11111108791665
 30
0.0
 11
-3.519444440385342
 21
20.11111108791665
 31
0.0
  0
LINE
  5
1EC
330
478
100
AcDbEntity
  8
0
 62
   178
420
        0
370
     5
100
AcDbLine
 10
-3.77083332898431
 20
20.36249997651562
 30
0.0
 11
-3.77083332898431
 21
29.41249996607812
 31
0.0
  0
LINE
  5
1F0
330
478
100
AcDbEntity
  8
0
 62
   178
420
        0
370
     5
100
AcDbLine
 10
3.770833328984423
 20
29.41249996607812
 30
0.0
 11
3.770833328984423
 21
29.66388885467708
 31
0.0
  0
LINE
  5
1FC
330
478
100
AcDbEntity
  8
0
 62
   178
420
        0
370
     5
100
AcDbLine
 10
-3.77083332898431
 20
29.41249996607812
 30
0.0
 11
-3.77083332898431
 21
29.66388885467708
 31
0.0
  0
LINE
  5
1F3
330
478
100
AcDbEntity
  8
0
 62
   178
420
        0
370
     5
100
AcDbLine
 10
-3.77083332898431
 20
20.11111108791665
 30
0.0
 11
-3.77083332898431
 21
20.36249997651562
 31
0.0
  0
LINE
  5
1FF
330
478
100
AcDbEntity
  8
0
 62
   178
420
        0
370
     5
100
AcDbLine
 10
3.770833328984423
 20
29.41249996607812
 30
0.0
 11
3.770833328984423
 21
20.36249997651562
 31
0.0
  0
LINE
  5
1F6
330
478
100
AcDbEntity
  8
0
 62
   178
420
        0
370
     5
100
AcDbLine
 10
-3.77083332898431
 20
29.66388885467708
 30
0.0
 11
-3.519444440385342
 21
29.66388885467708
 31
0.0
  0
LINE
  5
200
330
478
100
AcDbEntity
  8
0
 62
   178
420
        0
370
     5
100
AcDbLine
 10
3.770833328984423
 20
20.11111108791665
 30
0.0
 11
3.770833328984423
 21
20.36249997651562
 31
0.0
  0
LINE
  5
1F8
330
478
100
AcDbEntity
  8
0
 62
   178
420
        0
370
     5
100
AcDbLine
 10
-3.519444440385342
 20
29.66388885467708
 30
0.0
 11
3.519444440385456
 21
29.66388885467708
 31
0.0
  0
LINE
  5
1EE
330
478
100
AcDbEntity
  8
0
 62
   178
420
        0
370
     5
100
AcDbLine
 10
3.770833328984423
 20
29.66388885467708
 30
0.0
 11
3.519444440385456
 21
29.66388885467708
 31
0.0
  0
LINE
  5
209
330
478
100
AcDbEntity
  8
0
 62
   178
420
        0
370
     5
100
AcDbLine
 10
3.519444440385485
 20
20.11111108791665
 30
0.0
 11
3.770833328984423
 21
20.11111108791665
 31
0.0
  0
LINE
  5
204
330
478
100
AcDbEntity
  8
0
 62
   178
420
        0
370
     5
100
AcDbLine
 10
-3.519444440385371
 20
10.05555554395832
 30
0.0
 11
-3.77083332898431
 21
10.05555554395832
 31
0.0
  0
LINE
  5
1FA
330
478
100
AcDbEntity
  8
0
 62
   178
420
        0
370
     5
100
AcDbLine
 10
3.519444440385485
 20
10.05555554395832
 30
0.0
 11
-3.519444440385371
 21
10.05555554395832
 31
0.0
  0
LINE
  5
1F4
330
478
100
AcDbEntity
  8
0
 62
   178
420
        0
370
     5
100
AcDbLine
 10
-3.77083332898431
 20
10.30694443255729
 30
0.0
 11
-3.77083332898431
 21
19.35694442211978
 31
0.0
  0
LINE
  5
1FE
330
478
100
AcDbEntity
  8
0
 62
   178
420
        0
370
     5
100
AcDbLine
 10
3.770833328984423
 20
19.35694442211978
 30
0.0
 11
3.770833328984423
 21
19.60833331071873
 31
0.0
  0
LINE
  5
1E9
330
478
100
AcDbEntity
  8
0
 62
   178
420
        0
370
     5
100
AcDbLine
 10
-3.77083332898431
 20
19.35694442211978
 30
0.0
 11
-3.77083332898431
 21
19.60833331071873
 31
0.0
  0
LINE
  5
206
330
478
100
AcDbEntity
  8
0
 62
   178
420
        0
370
     5
100
AcDbLine
 10
-3.77083332898431
 20
10.05555554395832
 30
0.0
 11
-3.77083332898431
 21
10.30694443255729
 31
0.0
  0
LINE
  5
1FB
330
478
100
AcDbEntity
  8
0
 62
   178
420
        0
370
     5
100
AcDbLine
 10
3.770833328984423
 20
19.35694442211978
 30
0.0
 11
3.770833328984423
 21
10.30694443255729
 31
0.0
  0
LINE
  5
208
330
478
100
AcDbEntity
  8
0
 62
   178
420
        0
370
     5
100
AcDbLine
 10
-3.77083332898431
 20
19.60833331071873
 30
0.0
 11
-3.519444440385342
 21
19.60833331071873
 31
0.0
  0
LINE
  5
1F1
330
478
100
AcDbEntity
  8
0
 62
   178
420
        0
370
     5
100
AcDbLine
 10
3.770833328984423
 20
10.05555554395832
 30
0.0
 11
3.770833328984423
 21
10.30694443255729
 31
0.0
  0
LINE
  5
20A
330
478
100
AcDbEntity
  8
0
 62
   178
420
        0
370
     5
100
AcDbLine
 10
-3.519444440385342
 20
19.60833331071873
 30
0.0
 11
3.519444440385485
 21
19.60833331071873
 31
0.0
  0
LINE
  5
205
330
478
100
AcDbEntity
  8
0
 62
   178
420
        0
370
     5
100
AcDbLine
 10
3.770833328984423
 20
19.60833331071873
 30
0.0
 11
3.519444440385485
 21
19.60833331071873
 31
0.0
  0
LINE
  5
1E8
330
478
100
AcDbEntity
  8
0
 62
   178
420
        0
370
     5
100
AcDbLine
 10
3.519444440385485
 20
10.05555554395832
 30
0.0
 11
3.770833328984423
 21
10.05555554395832
 31
0.0
  0
LINE
  5
1F7
330
478
100
AcDbEntity
  8
0
 62
   178
420
        0
370
     5
100
AcDbLine
 10
-3.519444440385342
 20
0.0
 30
0.0
 11
-3.77083332898431
 21
-0.0000000000000071
 31
0.0
  0
LINE
  5
1EB
330
478
100
AcDbEntity
  8
0
 62
   178
420
        0
370
     5
100
AcDbLine
 10
3.519444440385342
 20
0.0
 30
0.0
 11
-3.519444440385342
 21
0.0
 31
0.0
  0
LINE
  5
207
330
478
100
AcDbEntity
  8
0
 62
   178
420
        0
370
     5
100
AcDbLine
 10
-3.77083332898431
 20
0.2513888885989388
 30
0.0
 11
-3.77083332898431
 21
9.301388878161447
 31
0.0
  0
LINE
  5
1EF
330
478
100
AcDbEntity
  8
0
 62
   178
420
        0
370
     5
100
AcDbLine
 10
3.770833328984423
 20
9.301388878161447
 30
0.0
 11
3.770833328984423
 21
9.552777766760414
 31
0.0
  0
LINE
  5
1FD
330
478
100
AcDbEntity
  8
0
 62
   178
420
        0
370
     5
100
AcDbLine
 10
-3.77083332898431
 20
9.301388878161447
 30
0.0
 11
-3.77083332898431
 21
9.552777766760414
 31
0.0
  0
LINE
  5
1F2
330
478
100
AcDbEntity
  8
0
 62
   178
420
        0
370
     5
100
AcDbLine
 10
-3.77083332898431
 20
-0.0000000000000071
 30
0.0
 11
-3.77083332898431
 21
0.2513888885989388
 31
0.0
  0
LINE
  5
20B
330
478
100
AcDbEntity
  8
0
 62
   178
420
        0
370
     5
100
AcDbLine
 10
3.770833328984423
 20
9.301388878161447
 30
0.0
 11
3.770833328984423
 21
0.2513888885989388
 31
0.0
  0
LINE
  5
1F5
330
478
100
AcDbEntity
  8
0
 62
   178
420
        0
370
     5
100
AcDbLine
 10
-3.77083332898431
 20
9.552777766760414
 30
0.0
 11
-3.519444440385342
 21
9.552777766760414
 31
0.0
  0
LINE
  5
202
330
478
100
AcDbEntity
  8
0
 62
   178
420
        0
370
     5
100
AcDbLine
 10
3.770833328984423
 20
0.0
 30
0.0
 11
3.770833328984423
 21
0.2513888885989388
 31
0.0
  0
LINE
  5
1F9
330
478
100
AcDbEntity
  8
0
 62
   178
420
        0
370
     5
100
AcDbLine
 10
-3.519444440385342
 20
9.552777766760414
 30
0.0
 11
3.519444440385456
 21
9.552777766760414
 31
0.0
  0
LINE
  5
1ED
330
478
100
AcDbEntity
  8
0
 62
   178
420
        0
370
     5
100
AcDbLine
 10
3.770833328984423
 20
9.552777766760414
 30
0.0
 11
3.519444440385456
 21
9.552777766760414
 31
0.0
  0
LINE
  5
203
330
478
100
AcDbEntity
  8
0
 62
   178
420
        0
370
     5
100
AcDbLine
 10
3.519444440385342
 20
0.0
 30
0.0
 11
3.770833328984423
 21
0.0
 31
0.0
  0
ENDBLK
  5
47A
330
478
100
AcDbEntity
  8
0
100
AcDbBlockEnd
  0
BLOCK
  5
47C
330
47B
100
AcDbEntity
  8
0
100
AcDbBlockBegin
  2
block 8
 70
     0
 10
0.0
 20
0.0
 30
0.0
  3
block 8
  1

  0
LINE
  5
13F
330
47B
100
AcDbEntity
  8
0
100
AcDbLine
 10
-5.428932188134411
 20
-174.5710678120478
 30
0.0
 11
306.9129547427185
 21
-174.5710678120478
 31
0.0
  0
ARC
  5
140
330
47B
100
AcDbEntity
  8
0
100
AcDbCircle
 10
-5.428932188134411
 20
-164.5710678120478
 30
0.0
 40
10.0
100
AcDbArc
 50
180.0
 51
270.0
1001
QCAD
1000
reversed:1
  0
ARC
  5
141
330
47B
100
AcDbEntity
  8
0
100
AcDbCircle
 10
-5.428932188134496
 20
5.428932188134553
 30
0.0
 40
10.0
100
AcDbArc
 50
90.00000000000016
 51
180.0
1001
QCAD
1000
reversed:1
  0
ARC
  5
142
330
47B
100
AcDbEntity
  8
0
100
AcDbCircle
 10
306.9129547427185
 20
5.428932187952228
 30
0.0
 40
10.0
100
AcDbArc
 50
0.0
 51
89.99999999993324
1001
QCAD
1000
reversed:1
  0
ARC
  5
143
330
47B
100
AcDbEntity
  8
0
100
AcDbCircle
 10
306.9129547427185
 20
-164.5710678120478
 30
0.0
 40
10.0
100
AcDbArc
 50
270.0
 51
0.0
1001
QCAD
1000
reversed:1
  0
LINE
  5
144
330
47B
100
AcDbEntity
  8
0
100
AcDbLine
 10
-5.428932188134496
 20
15.42893218813452
 30
0.0
 11
306.9129547427301
 21
15.42893218795223
 31
0.0
  0
LINE
  5
145
330
47B
100
AcDbEntity
  8
0
100
AcDbLine
 10
316.9129547427185
 20
-164.5710678120478
 30
0.0
 11
316.9129547427185
 21
5.428932187952228
 31
0.0
  0
LINE
  5
146
330
47B
100
AcDbEntity
  8
0
100
AcDbLine
 10
-15.4289321881345
 20
-164.5710678118654
 30
0.0
 11
-15.4289321881345
 21
5.428932188134553
 31
0.0
  0
CIRCLE
  5
147
330
47B
100
AcDbEntity
  8
0
100
AcDbCircle
 10
0.0
 20
0.0
 30
0.0
 40
1.900000000000006
  0
CIRCLE
  5
148
330
47B
100
AcDbEntity
  8
0
100
AcDbCircle
 10
301.4840225545881
 20
-0.000000000186418
 30
0.0
 40
1.900000000000006
  0
CIRCLE
  5
149
330
47B
100
AcDbEntity
  8
0
100
AcDbCircle
 10
301.4840225545839
 20
-159.1421356239132
 30
0.0
 40
1.900000000000006
  0
CIRCLE
  5
14A
330
47B
100
AcDbEntity
  8
0
100
AcDbCircle
 10
0.0000000000000853
 20
-159.1421356239132
 30
0.0
 40
1.900000000000006
  0
INSERT
  5
1E5
330
47B
100
AcDbEntity
  8
0
100
AcDbBlockReference
  2
block 5
 10
294.5710678118655
 20
-24.57106781186545
 30
0.0
 50
90.0
  0
INSERT
  5
20D
330
47B
100
AcDbEntity
  8
0
100
AcDbBlockReference
  2
block 7
 10
0.701000860628227
 20
-49.56974489533555
 30
0.0
  0
ENDBLK
  5
47D
330
47B
100
AcDbEntity
  8
0
100
AcDbBlockEnd
  0
BLOCK
  5
47F
330
47E
100
AcDbEntity
  8
0
100
AcDbBlockBegin
  2
block 9
 70
     0
 10
0.0
 20
0.0
 30
0.0
  3
block 9
  1

  0
LINE
  5
241
330
47E
100
AcDbEntity
  8
0
 62
   178
420
        0
370
     5
100
AcDbLine
 10
-3.519444440385399
 20
-9.552777766760428
 30
0.0
 11
-3.770833328984367
 21
-9.552777766760428
 31
0.0
  0
LINE
  5
24C
330
47E
100
AcDbEntity
  8
0
 62
   178
420
        0
370
     5
100
AcDbLine
 10
3.519444440385428
 20
-9.552777766760428
 30
0.0
 11
-3.519444440385399
 21
-9.552777766760428
 31
0.0
  0
LINE
  5
252
330
47E
100
AcDbEntity
  8
0
 62
   178
420
        0
370
     5
100
AcDbLine
 10
-3.770833328984367
 20
-9.301388878161461
 30
0.0
 11
-3.770833328984367
 21
-0.2513888885989672
 31
0.0
  0
LINE
  5
256
330
47E
100
AcDbEntity
  8
0
 62
   178
420
        0
370
     5
100
AcDbLine
 10
3.770833328984367
 20
-0.2513888885989672
 30
0.0
 11
3.770833328984367
 21
0.0
 31
0.0
  0
LINE
  5
23F
330
47E
100
AcDbEntity
  8
0
 62
   178
420
        0
370
     5
100
AcDbLine
 10
-3.770833328984367
 20
-0.2513888885989672
 30
0.0
 11
-3.770833328984367
 21
0.0
 31
0.0
  0
LINE
  5
253
330
47E
100
AcDbEntity
  8
0
 62
   178
420
        0
370
     5
100
AcDbLine
 10
-3.770833328984367
 20
-9.552777766760428
 30
0.0
 11
-3.770833328984367
 21
-9.301388878161461
 31
0.0
  0
LINE
  5
23B
330
47E
100
AcDbEntity
  8
0
 62
   178
420
        0
370
     5
100
AcDbLine
 10
3.770833328984367
 20
-0.2513888885989672
 30
0.0
 11
3.770833328984367
 21
-9.301388878161461
 31
0.0
  0
LINE
  5
234
330
47E
100
AcDbEntity
  8
0
 62
   178
420
        0
370
     5
100
AcDbLine
 10
-3.770833328984367
 20
0.0
 30
0.0
 11
-3.519444440385399
 21
0.0
 31
0.0
  0
LINE
  5
242
330
47E
100
AcDbEntity
  8
0
 62
   178
420
        0
370
     5
100
AcDbLine
 10
3.770833328984367
 20
-9.552777766760428
 30
0.0
 11
3.770833328984367
 21
-9.301388878161461
 31
0.0
  0
LINE
  5
23A
330
47E
100
AcDbEntity
  8
0
 62
   178
420
        0
370
     5
100
AcDbLine
 10
-3.519444440385399
 20
0.0
 30
0.0
 11
3.519444440385399
 21
0.0
 31
0.0
  0
LINE
  5
250
330
47E
100
AcDbEntity
  8
0
 62
   178
420
        0
370
     5
100
AcDbLine
 10
3.770833328984367
 20
0.0
 30
0.0
 11
3.519444440385399
 21
0.0
 31
0.0
  0
LINE
  5
249
330
47E
100
AcDbEntity
  8
0
 62
   178
420
        0
370
     5
100
AcDbLine
 10
3.519444440385428
 20
-9.552777766760428
 30
0.0
 11
3.770833328984367
 21
-9.552777766760428
 31
0.0
  0
LINE
  5
246
330
47E
100
AcDbEntity
  8
0
 62
   178
420
        0
370
     5
100
AcDbLine
 10
-3.519444440385428
 20
-19.60833331071876
 30
0.0
 11
-3.770833328984367
 21
-19.60833331071876
 31
0.0
  0
LINE
  5
238
330
47E
100
AcDbEntity
  8
0
 62
   178
420
        0
370
     5
100
AcDbLine
 10
3.519444440385428
 20
-19.60833331071876
 30
0.0
 11
-3.519444440385428
 21
-19.60833331071876
 31
0.0
  0
LINE
  5
236
330
47E
100
AcDbEntity
  8
0
 62
   178
420
        0
370
     5
100
AcDbLine
 10
-3.770833328984367
 20
-19.3569444221198
 30
0.0
 11
-3.770833328984367
 21
-10.3069444325573
 31
0.0
  0
LINE
  5
23C
330
47E
100
AcDbEntity
  8
0
 62
   178
420
        0
370
     5
100
AcDbLine
 10
3.770833328984367
 20
-10.3069444325573
 30
0.0
 11
3.770833328984367
 21
-10.05555554395835
 31
0.0
  0
LINE
  5
24D
330
47E
100
AcDbEntity
  8
0
 62
   178
420
        0
370
     5
100
AcDbLine
 10
-3.770833328984367
 20
-10.3069444325573
 30
0.0
 11
-3.770833328984367
 21
-10.05555554395835
 31
0.0
  0
LINE
  5
244
330
47E
100
AcDbEntity
  8
0
 62
   178
420
        0
370
     5
100
AcDbLine
 10
-3.770833328984367
 20
-19.60833331071876
 30
0.0
 11
-3.770833328984367
 21
-19.3569444221198
 31
0.0
  0
LINE
  5
237
330
47E
100
AcDbEntity
  8
0
 62
   178
420
        0
370
     5
100
AcDbLine
 10
3.770833328984367
 20
-10.3069444325573
 30
0.0
 11
3.770833328984367
 21
-19.3569444221198
 31
0.0
  0
LINE
  5
24A
330
47E
100
AcDbEntity
  8
0
 62
   178
420
        0
370
     5
100
AcDbLine
 10
-3.770833328984367
 20
-10.05555554395835
 30
0.0
 11
-3.519444440385399
 21
-10.05555554395835
 31
0.0
  0
LINE
  5
255
330
47E
100
AcDbEntity
  8
0
 62
   178
420
        0
370
     5
100
AcDbLine
 10
3.770833328984367
 20
-19.60833331071876
 30
0.0
 11
3.770833328984367
 21
-19.3569444221198
 31
0.0
  0
LINE
  5
248
330
47E
100
AcDbEntity
  8
0
 62
   178
420
        0
370
     5
100
AcDbLine
 10
-3.519444440385399
 20
-10.05555554395835
 30
0.0
 11
3.519444440385428
 21
-10.05555554395835
 31
0.0
  0
LINE
  5
245
330
47E
100
AcDbEntity
  8
0
 62
   178
420
        0
370
     5
100
AcDbLine
 10
3.770833328984367
 20
-10.05555554395835
 30
0.0
 11
3.519444440385428
 21
-10.05555554395835
 31
0.0
  0
LINE
  5
24E
330
47E
100
AcDbEntity
  8
0
 62
   178
420
        0
370
     5
100
AcDbLine
 10
3.519444440385428
 20
-19.60833331071876
 30
0.0
 11
3.770833328984367
 21
-19.60833331071876
 31
0.0
  0
LINE
  5
233
330
47E
100
AcDbEntity
  8
0
 62
   178
420
        0
370
     5
100
AcDbLine
 10
-3.519444440385399
 20
-29.66388885467708
 30
0.0
 11
-3.770833328984367
 21
-29.66388885467709
 31
0.0
  0
LINE
  5
24B
330
47E
100
AcDbEntity
  8
0
 62
   178
420
        0
370
     5
100
AcDbLine
 10
3.519444440385286
 20
-29.66388885467708
 30
0.0
 11
-3.519444440385399
 21
-29.66388885467708
 31
0.0
  0
LINE
  5
243
330
47E
100
AcDbEntity
  8
0
 62
   178
420
        0
370
     5
100
AcDbLine
 10
-3.770833328984367
 20
-29.41249996607814
 30
0.0
 11
-3.770833328984367
 21
-20.36249997651564
 31
0.0
  0
LINE
  5
24F
330
47E
100
AcDbEntity
  8
0
 62
   178
420
        0
370
     5
100
AcDbLine
 10
3.770833328984367
 20
-20.36249997651564
 30
0.0
 11
3.770833328984367
 21
-20.11111108791667
 31
0.0
  0
LINE
  5
23D
330
47E
100
AcDbEntity
  8
0
 62
   178
420
        0
370
     5
100
AcDbLine
 10
-3.770833328984367
 20
-20.36249997651564
 30
0.0
 11
-3.770833328984367
 21
-20.11111108791667
 31
0.0
  0
LINE
  5
254
330
47E
100
AcDbEntity
  8
0
 62
   178
420
        0
370
     5
100
AcDbLine
 10
-3.770833328984367
 20
-29.66388885467709
 30
0.0
 11
-3.770833328984367
 21
-29.41249996607814
 31
0.0
  0
LINE
  5
247
330
47E
100
AcDbEntity
  8
0
 62
   178
420
        0
370
     5
100
AcDbLine
 10
3.770833328984367
 20
-20.36249997651564
 30
0.0
 11
3.770833328984367
 21
-29.41249996607814
 31
0.0
  0
LINE
  5
235
330
47E
100
AcDbEntity
  8
0
 62
   178
420
        0
370
     5
100
AcDbLine
 10
-3.770833328984367
 20
-20.11111108791667
 30
0.0
 11
-3.519444440385399
 21
-20.11111108791667
 31
0.0
  0
LINE
  5
240
330
47E
100
AcDbEntity
  8
0
 62
   178
420
        0
370
     5
100
AcDbLine
 10
3.770833328984367
 20
-29.66388885467708
 30
0.0
 11
3.770833328984367
 21
-29.41249996607814
 31
0.0
  0
LINE
  5
239
330
47E
100
AcDbEntity
  8
0
 62
   178
420
        0
370
     5
100
AcDbLine
 10
-3.519444440385399
 20
-20.11111108791667
 30
0.0
 11
3.519444440385399
 21
-20.11111108791667
 31
0.0
  0
LINE
  5
251
330
47E
100
AcDbEntity
  8
0
 62
   178
420
        0
370
     5
100
AcDbLine
 10
3.770833328984367
 20
-20.11111108791667
 30
0.0
 11
3.519444440385399
 21
-20.11111108791667
 31
0.0
  0
LINE
  5
23E
330
47E
100
AcDbEntity
  8
0
 62
   178
420
        0
370
     5
100
AcDbLine
 10
3.519444440385286
 20
-29.66388885467708
 30
0.0
 11
3.770833328984367
 21
-29.66388885467708
 31
0.0
  0
ENDBLK
  5
480
330
47E
100
AcDbEntity
  8
0
100
AcDbBlockEnd
  0
BLOCK
  5
482
330
481
100
AcDbEntity
  8
0
100
AcDbBlockBegin
  2
block 10
 70
     0
 10
0.0
 20
0.0
 30
0.0
  3
block 10
  1

  0
LINE
  5
262
330
481
100
AcDbEntity
  8
0
 62
   178
420
        0
370
     5
100
AcDbLine
 10
3.519444440385371
 20
-10.05555554395829
 30
0.0
 11
3.770833328984338
 21
-10.05555554395829
 31
0.0
  0
LINE
  5
26D
330
481
100
AcDbEntity
  8
0
 62
   178
420
        0
370
     5
100
AcDbLine
 10
-3.519444440385428
 20
-10.05555554395829
 30
0.0
 11
3.519444440385371
 21
-10.05555554395829
 31
0.0
  0
LINE
  5
26A
330
481
100
AcDbEntity
  8
0
 62
   178
420
        0
370
     5
100
AcDbLine
 10
3.770833328984367
 20
-10.30694443255726
 30
0.0
 11
3.770833328984338
 21
-19.35694442211977
 31
0.0
  0
LINE
  5
270
330
481
100
AcDbEntity
  8
0
 62
   178
420
        0
370
     5
100
AcDbLine
 10
-3.770833328984367
 20
-19.35694442211977
 30
0.0
 11
-3.770833328984367
 21
-19.60833331071872
 31
0.0
  0
LINE
  5
25F
330
481
100
AcDbEntity
  8
0
 62
   178
420
        0
370
     5
100
AcDbLine
 10
3.770833328984338
 20
-19.35694442211977
 30
0.0
 11
3.770833328984338
 21
-19.60833331071872
 31
0.0
  0
LINE
  5
25E
330
481
100
AcDbEntity
  8
0
 62
   178
420
        0
370
     5
100
AcDbLine
 10
3.770833328984338
 20
-10.05555554395829
 30
0.0
 11
3.770833328984367
 21
-10.30694443255726
 31
0.0
  0
LINE
  5
26C
330
481
100
AcDbEntity
  8
0
 62
   178
420
        0
370
     5
100
AcDbLine
 10
-3.770833328984367
 20
-19.35694442211977
 30
0.0
 11
-3.770833328984423
 21
-10.30694443255726
 31
0.0
  0
LINE
  5
25C
330
481
100
AcDbEntity
  8
0
 62
   178
420
        0
370
     5
100
AcDbLine
 10
3.770833328984338
 20
-19.60833331071872
 30
0.0
 11
3.519444440385399
 21
-19.60833331071872
 31
0.0
  0
LINE
  5
265
330
481
100
AcDbEntity
  8
0
 62
   178
420
        0
370
     5
100
AcDbLine
 10
-3.770833328984395
 20
-10.05555554395829
 30
0.0
 11
-3.770833328984423
 21
-10.30694443255726
 31
0.0
  0
LINE
  5
264
330
481
100
AcDbEntity
  8
0
 62
   178
420
        0
370
     5
100
AcDbLine
 10
3.519444440385399
 20
-19.60833331071872
 30
0.0
 11
-3.519444440385456
 21
-19.60833331071872
 31
0.0
  0
LINE
  5
260
330
481
100
AcDbEntity
  8
0
 62
   178
420
        0
370
     5
100
AcDbLine
 10
-3.770833328984367
 20
-19.60833331071872
 30
0.0
 11
-3.519444440385456
 21
-19.60833331071872
 31
0.0
  0
LINE
  5
261
330
481
100
AcDbEntity
  8
0
 62
   178
420
        0
370
     5
100
AcDbLine
 10
-3.519444440385428
 20
-10.05555554395829
 30
0.0
 11
-3.770833328984395
 21
-10.05555554395829
 31
0.0
  0
LINE
  5
26F
330
481
100
AcDbEntity
  8
0
 62
   178
420
        0
370
     5
100
AcDbLine
 10
3.519444440385428
 20
0.0
 30
0.0
 11
3.770833328984395
 21
0.0
 31
0.0
  0
LINE
  5
268
330
481
100
AcDbEntity
  8
0
 62
   178
420
        0
370
     5
100
AcDbLine
 10
-3.519444440385428
 20
0.0
 30
0.0
 11
3.519444440385428
 21
0.0
 31
0.0
  0
LINE
  5
25D
330
481
100
AcDbEntity
  8
0
 62
   178
420
        0
370
     5
100
AcDbLine
 10
3.770833328984338
 20
-0.2513888885989104
 30
0.0
 11
3.770833328984367
 21
-9.301388878161447
 31
0.0
  0
LINE
  5
266
330
481
100
AcDbEntity
  8
0
 62
   178
420
        0
370
     5
100
AcDbLine
 10
-3.770833328984395
 20
-9.301388878161447
 30
0.0
 11
-3.770833328984367
 21
-9.552777766760414
 31
0.0
  0
LINE
  5
271
330
481
100
AcDbEntity
  8
0
 62
   178
420
        0
370
     5
100
AcDbLine
 10
3.770833328984367
 20
-9.301388878161447
 30
0.0
 11
3.770833328984338
 21
-9.552777766760414
 31
0.0
  0
LINE
  5
26B
330
481
100
AcDbEntity
  8
0
 62
   178
420
        0
370
     5
100
AcDbLine
 10
3.770833328984395
 20
0.0
 30
0.0
 11
3.770833328984338
 21
-0.2513888885989104
 31
0.0
  0
LINE
  5
263
330
481
100
AcDbEntity
  8
0
 62
   178
420
        0
370
     5
100
AcDbLine
 10
-3.770833328984395
 20
-9.301388878161447
 30
0.0
 11
-3.770833328984338
 21
-0.2513888885989104
 31
0.0
  0
LINE
  5
269
330
481
100
AcDbEntity
  8
0
 62
   178
420
        0
370
     5
100
AcDbLine
 10
3.770833328984338
 20
-9.552777766760414
 30
0.0
 11
3.519444440385371
 21
-9.552777766760414
 31
0.0
  0
LINE
  5
25B
330
481
100
AcDbEntity
  8
0
 62
   178
420
        0
370
     5
100
AcDbLine
 10
-3.770833328984423
 20
0.0
 30
0.0
 11
-3.770833328984338
 21
-0.2513888885989104
 31
0.0
  0
LINE
  5
26E
330
481
100
AcDbEntity
  8
0
 62
   178
420
        0
370
     5
100
AcDbLine
 10
3.519444440385371
 20
-9.552777766760414
 30
0.0
 11
-3.519444440385428
 21
-9.552777766760414
 31
0.0
  0
LINE
  5
267
330
481
100
AcDbEntity
  8
0
 62
   178
420
        0
370
     5
100
AcDbLine
 10
-3.770833328984367
 20
-9.552777766760414
 30
0.0
 11
-3.519444440385428
 21
-9.552777766760414
 31
0.0
  0
LINE
  5
25A
330
481
100
AcDbEntity
  8
0
 62
   178
420
        0
370
     5
100
AcDbLine
 10
-3.519444440385428
 20
0.0
 30
0.0
 11
-3.770833328984423
 21
0.0
 31
0.0
  0
ENDBLK
  5
483
330
481
100
AcDbEntity
  8
0
100
AcDbBlockEnd
  0
ENDSEC
  0
SECTION
  2
ENTITIES
  0
CIRCLE
  5
218
330
3AA
100
AcDbEntity
  8
0
100
AcDbCircle
 10
79.36397649270552
 20
57.88464418560812
 30
0.0
 40
12.0
  0
CIRCLE
  5
217
330
3AA
100
AcDbEntity
  8
0
100
AcDbCircle
 10
79.4105304927055
 20
27.07607543560812
 30
0.0
 40
12.0
  0
CIRCLE
  5
216
330
3AA
100
AcDbEntity
  8
0
100
AcDbCircle
 10
50.91295474270535
 20
57.88964418597831
 30
0.0
 40
12.0
  0
CIRCLE
  5
215
330
3AA
100
AcDbEntity
  8
0
100
AcDbCircle
 10
26.8145602427054
 20
42.06364268560802
 30
0.0
 40
12.0
  0
LINE
  5
21E
330
3AA
100
AcDbEntity
  8
0
100
AcDbLine
 10
-59.64765968733684
 20
64.96634812873879
 30
0.0
 11
-63.76820125537725
 21
45.5461550976888
 31
0.0
  0
CIRCLE
  5
21D
330
3AA
100
AcDbEntity
  8
0
100
AcDbCircle
 10
26.81961074270544
 20
11.29206618560801
 30
0.0
 40
12.0
  0
CIRCLE
  5
21B
330
3AA
100
AcDbEntity
  8
0
100
AcDbCircle
 10
50.92074099270539
 20
27.08207543560823
 30
0.0
 40
12.0
  0
CIRCLE
  5
21A
330
3AA
100
AcDbEntity
  8
0
100
AcDbCircle
 10
107.4538004927054
 20
50.77464418560811
 30
0.0
 40
12.0
  0
CIRCLE
  5
223
330
3AA
100
AcDbEntity
  8
0
100
AcDbCircle
 10
107.4251654927055
 20
19.98607618560811
 30
0.0
 40
12.0
  0
LINE
  5
221
330
3AA
100
AcDbEntity
  8
0
100
AcDbLine
 10
-48.56093114735174
 20
21.41591814911499
 30
0.0
 11
-44.32200174328256
 21
41.398117784998
 31
0.0
  0
LINE
  5
220
330
3AA
100
AcDbEntity
  8
0
100
AcDbLine
 10
-103.3906072959249
 20
53.9979463370288
 30
0.0
 11
-107.634254306274
 21
33.99456842657131
 31
0.0
  0
LINE
  5
21F
330
3AA
100
AcDbEntity
  8
0
100
AcDbLine
 10
-44.32200174328256
 20
41.398117784998
 30
0.0
 11
-63.76820125537725
 21
45.5461550976888
 31
0.0
  0
LINE
  5
22C
330
3AA
100
AcDbEntity
  8
0
100
AcDbLine
 10
-79.84506787880385
 20
69.259439768562
 30
0.0
 11
-59.64765968733684
 21
64.96634812873879
 31
0.0
  0
LINE
  5
229
330
3AA
100
AcDbEntity
  8
0
100
AcDbLine
 10
-83.96173016844855
 20
49.85360403413651
 30
0.0
 11
-103.3906072959249
 21
53.9979463370288
 31
0.0
  0
LINE
  5
227
330
3AA
100
AcDbEntity
  8
0
100
AcDbLine
 10
-107.634254306274
 20
33.99456842657131
 30
0.0
 11
-48.56093114735174
 21
21.41591814911499
 31
0.0
  0
LINE
  5
225
330
3AA
100
AcDbEntity
  8
0
100
AcDbLine
 10
-83.96173016844855
 20
49.85360403413651
 30
0.0
 11
-79.84506787880385
 21
69.259439768562
 31
0.0
  0
LINE
  5
22F
330
3AA
100
AcDbEntity
  8
0
100
AcDbLine
 10
-165.4289321881344
 20
-94.57106781204777
 30
0.0
 11
146.9129547427185
 21
-94.57106781204777
 31
0.0
  0
ARC
  5
228
330
3AA
100
AcDbEntity
  8
0
100
AcDbCircle
 10
-165.4289321881344
 20
-84.57106781204777
 30
0.0
 40
10.0
100
AcDbArc
 50
180.0
 51
270.0
1001
QCAD
1000
reversed:1
  0
ARC
  5
226
330
3AA
100
AcDbEntity
  8
0
100
AcDbCircle
 10
-165.4289321881345
 20
85.42893218813455
 30
0.0
 40
10.0
100
AcDbArc
 50
90.00000000000016
 51
180.0
1001
QCAD
1000
reversed:1
  0
ARC
  5
224
330
3AA
100
AcDbEntity
  8
0
100
AcDbCircle
 10
146.9129547427185
 20
85.42893218795223
 30
0.0
 40
10.0
100
AcDbArc
 50
0.0
 51
89.99999999993324
1001
QCAD
1000
reversed:1
  0
ARC
  5
222
330
3AA
100
AcDbEntity
  8
0
100
AcDbCircle
 10
146.9129547427185
 20
-84.57106781204777
 30
0.0
 40
10.0
100
AcDbArc
 50
270.0
 51
0.0
1001
QCAD
1000
reversed:1
  0
LINE
  5
231
330
3AA
100
AcDbEntity
  8
0
100
AcDbLine
 10
-165.4289321881345
 20
95.42893218813452
 30
0.0
 11
146.9129547427301
 21
95.42893218795223
 31
0.0
  0
LINE
  5
230
330
3AA
100
AcDbEntity
  8
0
100
AcDbLine
 10
156.9129547427185
 20
-84.57106781204777
 30
0.0
 11
156.9129547427185
 21
85.42893218795223
 31
0.0
  0
LINE
  5
22D
330
3AA
100
AcDbEntity
  8
0
100
AcDbLine
 10
-175.4289321881345
 20
-84.57106781186545
 30
0.0
 11
-175.4289321881345
 21
85.42893218813455
 31
0.0
  0
CIRCLE
  5
22A
330
3AA
100
AcDbEntity
  8
0
100
AcDbCircle
 10
-160.0
 20
80.0
 30
0.0
 40
1.900000000000006
  0
CIRCLE
  5
212
330
3AA
100
AcDbEntity
  8
0
100
AcDbCircle
 10
141.4840225545881
 20
79.99999999981358
 30
0.0
 40
1.900000000000006
  0
CIRCLE
  5
211
330
3AA
100
AcDbEntity
  8
0
100
AcDbCircle
 10
141.4840225545839
 20
-79.14213562391325
 30
0.0
 40
1.900000000000006
  0
CIRCLE
  5
210
330
3AA
100
AcDbEntity
  8
0
100
AcDbCircle
 10
-159.9999999999999
 20
-79.14213562391325
 30
0.0
 40
1.900000000000006
  0
LINE
  5
28F
330
3AA
100
AcDbEntity
  8
0
100
AcDbLine
 10
-146.0
 20
84.77083332898437
 30
0.0
 11
-114.3361111453229
 21
84.77083332898437
 31
0.0
  0
LINE
  5
290
330
3AA
100
AcDbEntity
  8
0
100
AcDbLine
 10
-114.3361111453229
 20
84.77083332898437
 30
0.0
 11
-114.3361111453229
 21
75.22916667101563
 31
0.0
  0
LINE
  5
291
330
3AA
100
AcDbEntity
  8
0
100
AcDbLine
 10
-114.3361111453229
 20
75.22916667101563
 30
0.0
 11
-146.0
 21
75.22916667101563
 31
0.0
  0
LINE
  5
292
330
3AA
100
AcDbEntity
  8
0
100
AcDbLine
 10
-146.0
 20
75.22916667101563
 30
0.0
 11
-146.0
 21
84.77083332898437
 31
0.0
  0
LINE
  5
293
330
3AA
100
AcDbEntity
  8
0
100
AcDbLine
 10
95.82013369991101
 20
84.77083332879796
 30
0.0
 11
127.4840225545881
 21
84.77083332879796
 31
0.0
  0
LINE
  5
294
330
3AA
100
AcDbEntity
  8
0
100
AcDbLine
 10
127.4840225545881
 20
84.77083332879796
 30
0.0
 11
127.4840225545881
 21
75.22916667082922
 31
0.0
  0
LINE
  5
295
330
3AA
100
AcDbEntity
  8
0
100
AcDbLine
 10
127.4840225545881
 20
75.22916667082922
 30
0.0
 11
95.82013369991101
 21
75.22916667082922
 31
0.0
  0
LINE
  5
296
330
3AA
100
AcDbEntity
  8
0
100
AcDbLine
 10
95.82013369991101
 20
75.22916667082922
 30
0.0
 11
95.82013369991101
 21
84.77083332879796
 31
0.0
  0
VIEWPORT
  5
464
330
3A6
100
AcDbEntity
 67
     1
  8
0
100
AcDbViewport
 10
128.5
 20
97.5
 30
0.0
 40
314.226
 41
222.18
 68
     1
 69
     1
 12
128.5
 22
97.5
 13
0.0
 23
0.0
 14
10.0
 24
10.0
 15
10.0
 25
10.0
 16
0.0
 26
0.0
 36
1.0
 17
0.0
 27
0.0
 37
0.0
 42
50.0
 43
0.0
 44
0.0
 45
222.18
 50
0.0
 51
0.0
 72
   100
 90
   557152
  1

281
     0
 71
     1
 74
     0
110
0.0
120
0.0
130
0.0
111
1.0
121
0.0
131
0.0
112
0.0
122
1.0
132
0.0
 79
     0
146
0.0
170
     0
 61
     5
348
3BA
292
     1
282
     1
141
0.0
142
0.0
 63
   256
361
465
  0
ENDSEC
  0
SECTION
  2
OBJECTS
  0
DICTIONARY
  5
398
330
0
100
AcDbDictionary
281
     1
  3
ACAD_DETAILVIEWSTYLE
350
48B
  3
ACAD_GROUP
350
399
  3
ACAD_LAYOUT
350
3A5
  3
ACAD_MATERIAL
350
3CE
  3
ACAD_MLEADERSTYLE
350
3F6
  3
ACAD_MLINESTYLE
350
3A2
  3
ACAD_PLOTSETTINGS
350
3A4
  3
ACAD_PLOTSTYLENAME
350
39A
  3
ACAD_SCALELIST
350
3D2
  3
ACAD_SECTIONVIEWSTYLE
350
48C
  3
ACAD_TABLESTYLE
350
3F4
  3
ACAD_VISUALSTYLE
350
3B5
  3
ACDB_RECOMPOSE_DATA
350
488
  3
AcDbVariableDictionary
350
484
  3
QCAD_OBJECTS
350
3FA
  0
SUN
  5
3F8
330
3B4
100
AcDbSun
 90
        1
290
     0
 63
     7
421
 16777215
 40
1.0
291
     1
 91
  2455826
 92
 54000000
292
     0
 70
     2
 71
   256
280
     1
  0
SUN
  5
465
330
464
100
AcDbSun
 90
        1
290
     0
 63
     7
421
 16777215
 40
1.0
291
     1
 91
  2455826
 92
 54000000
292
     0
 70
     2
 71
   256
280
     1
  0
DICTIONARY
  5
48B
102
{ACAD_REACTORS
330
398
102
}
330
398
100
AcDbDictionary
281
     1
  0
DICTIONARY
  5
399
102
{ACAD_REACTORS
330
398
102
}
330
398
100
AcDbDictionary
281
     1
  0
DICTIONARY
  5
3A5
102
{ACAD_REACTORS
330
398
102
}
330
398
100
AcDbDictionary
281
     1
  3
Layout1
350
3A9
  3
Model
350
3AD
  0
DICTIONARY
  5
3CE
102
{ACAD_REACTORS
330
398
102
}
330
398
100
AcDbDictionary
281
     1
  3
ByBlock
350
3D0
  3
ByLayer
350
3CF
  3
Global
350
3D1
  0
DICTIONARY
  5
3F6
102
{ACAD_REACTORS
330
398
102
}
330
398
100
AcDbDictionary
281
     1
  3
Standard
350
3F7
  0
DICTIONARY
  5
3A2
102
{ACAD_REACTORS
330
398
102
}
330
398
100
AcDbDictionary
281
     1
  3
Standard
350
3A3
  0
DICTIONARY
  5
3A4
102
{ACAD_REACTORS
330
398
102
}
330
398
100
AcDbDictionary
281
     1
  0
ACDBDICTIONARYWDFLT
  5
39A
102
{ACAD_REACTORS
330
398
102
}
330
398
100
AcDbDictionary
281
     1
  3
Normal
350
39B
100
AcDbDictionaryWithDefault
340
39B
  0
DICTIONARY
  5
3D2
102
{ACAD_REACTORS
330
398
102
}
330
398
100
AcDbDictionary
281
     1
  3
A0
350
3D3
  3
A1
350
3D4
  3
A2
350
3D5
  3
A3
350
3D6
  3
A4
350
3D7
  3
A5
350
3D8
  3
A6
350
3D9
  3
A7
350
3DA
  3
A8
350
3DB
  3
A9
350
3DC
  3
B0
350
3DD
  3
B1
350
3DE
  3
B2
350
3DF
  3
B3
350
3E0
  3
B4
350
3E1
  3
B5
350
3E2
  3
B6
350
3E3
  3
B7
350
3E4
  3
B8
350
3E5
  3
B9
350
3E6
  3
C0
350
3E7
  3
C1
350
3E8
  3
C2
350
3E9
  3
C3
350
3EA
  3
C4
350
3EB
  3
C5
350
3EC
  3
C6
350
3ED
  3
C7
350
3EE
  3
C8
350
3EF
  3
C9
350
3F0
  3
D0
350
3F1
  3
D1
350
3F2
  3
D2
350
3F3
  0
DICTIONARY
  5
48C
102
{ACAD_REACTORS
330
398
102
}
330
398
100
AcDbDictionary
281
     1
  0
DICTIONARY
  5
3F4
102
{ACAD_REACTORS
330
398
102
}
330
398
100
AcDbDictionary
281
     1
  3
Standard
350
3F5
  0
DICTIONARY
  5
3B5
102
{ACAD_REACTORS
330
398
102
}
330
398
100
AcDbDictionary
281
     1
  3
2dWireframe
350
3BA
  3
Basic
350
3BD
  3
Brighten
350
3C1
  3
ColorChange
350
3C5
  3
Conceptual
350
3BF
  3
Dim
350
3C0
  3
EdgeColorOff
350
3C8
  3
Facepattern
350
3C4
  3
Flat
350
3B6
  3
FlatWithEdges
350
3B7
  3
Gouraud
350
3B8
  3
GouraudWithEdges
350
3B9
  3
Hidden
350
3BC
  3
JitterOff
350
3C6
  3
Linepattern
350
3C3
  3
OverhangOff
350
3C7
  3
Realistic
350
3BE
  3
Shaded
350
3CD
  3
Shaded with edges
350
3CC
  3
Shades of Gray
350
3C9
  3
Sketchy
350
3CA
  3
Thicken
350
3C2
  3
Wireframe
350
3BB
  3
X-Ray
350
3CB
  0
XRECORD
  5
488
102
{ACAD_REACTORS
330
398
102
}
330
398
100
AcDbXrecord
280
     1
 90
        1
330
3F5
  0
DICTIONARY
  5
484
102
{ACAD_REACTORS
330
398
102
}
330
398
100
AcDbDictionary
281
     1
  3
CANNOSCALE
350
485
  3
CMLEADERSTYLE
350
48A
  3
CTABLESTYLE
350
489
  0
DICTIONARY
  5
3FA
102
{ACAD_REACTORS
330
398
102
}
330
398
100
AcDbDictionary
281
     1
  3
ColorSettings/BackgroundColor
350
3FC
  3
ColorSettings/ColorMode
350
3FD
  3
Grid/DisplayGrid00
350
3FE
  3
Grid/DisplayGrid01
350
3FF
  3
Grid/DisplayGrid02
350
400
  3
Grid/DisplayGrid03
350
401
  3
Grid/GridSpacingX00
350
402
  3
Grid/GridSpacingX01
350
403
  3
Grid/GridSpacingX02
350
404
  3
Grid/GridSpacingX03
350
405
  3
Grid/GridSpacingY00
350
406
  3
Grid/GridSpacingY01
350
407
  3
Grid/GridSpacingY02
350
408
  3
Grid/GridSpacingY03
350
409
  3
Grid/IsometricGrid00
350
40A
  3
Grid/IsometricGrid01
350
40B
  3
Grid/IsometricGrid02
350
40C
  3
Grid/IsometricGrid03
350
40D
  3
Grid/IsometricProjection00
350
40E
  3
Grid/IsometricProjection01
350
40F
  3
Grid/IsometricProjection02
350
410
  3
Grid/IsometricProjection03
350
411
  3
Grid/MetaGridSpacingX00
350
412
  3
Grid/MetaGridSpacingX01
350
413
  3
Grid/MetaGridSpacingX02
350
414
  3
Grid/MetaGridSpacingX03
350
415
  3
Grid/MetaGridSpacingY00
350
416
  3
Grid/MetaGridSpacingY01
350
417
  3
Grid/MetaGridSpacingY02
350
418
  3
Grid/MetaGridSpacingY03
350
419
  3
MultiPageSettings/Columns
350
41A
  3
MultiPageSettings/GlueMarginsBottom
350
41B
  3
MultiPageSettings/GlueMarginsLeft
350
41C
  3
MultiPageSettings/GlueMarginsRight
350
41D
  3
MultiPageSettings/GlueMarginsTop
350
41E
  3
MultiPageSettings/PrintCropMarks
350
41F
  3
MultiPageSettings/Rows
350
420
  3
PageSettings/OffsetX
350
421
  3
PageSettings/OffsetY
350
422
  3
PageSettings/PageOrientation
350
423
  3
PageSettings/PaperHeight
350
424
  3
PageSettings/PaperWidth
350
425
  3
PageSettings/Scale
350
426
  3
PageSettings/ShowPaperBorders
350
427
  3
PageTagSettings/EnablePageTags
350
428
  3
PageTagSettings/TagAlignment
350
429
  3
PageTagSettings/TagFont
350
42A
  3
PageTagSettings/TagPosition
350
42B
  3
QCADVersion
350
42C
  3
UnitSettings/PaperUnit
350
42D
  3
ViewportCenter
350
42E
  3
ViewportHeight
350
42F
  3
ViewportWidth
350
430
  0
LAYOUT
  5
3A9
102
{ACAD_REACTORS
330
3A5
102
}
330
3A5
100
AcDbPlotSettings
  1

  2
none_device
  4
ISO_A4_(210.00_x_297.00_MM)
  6

 40
7.5
 41
20.0
 42
7.5
 43
20.0
 44
210.0
 45
297.0
 46
0.0
 47
0.0
 48
0.0
 49
0.0
140
0.0
141
0.0
142
1.0
143
1.0
 70
   688
 72
     1
 73
     1
 74
     5
  7

 75
     0
 76
     0
 77
     2
 78
   300
147
1.0
148
0.0
149
0.0
100
AcDbLayout
  1
Layout1
 70
     1
 71
     0
 10
-20.0
 20
-7.5
 11
277.0
 21
202.5
 12
0.0
 22
0.0
 32
0.0
 14
0.0
 24
0.0
 34
0.0
 15
0.0
 25
0.0
 35
0.0
146
0.0
 13
0.0
 23
0.0
 33
0.0
 16
1.0
 26
0.0
 36
0.0
 17
0.0
 27
1.0
 37
0.0
 76
     0
330
3A6
331
464
  0
LAYOUT
  5
3AD
102
{ACAD_REACTORS
330
3A5
102
}
330
3A5
100
AcDbPlotSettings
  1

  2
none_device
  4
Letter_(8.50_x_11.00_Inches)
  6

 40
6.35
 41
6.35
 42
6.35000508
 43
6.35000508
 44
215.9
 45
279.4
 46
0.0
 47
0.0
 48
0.0
 49
0.0
140
0.0
141
0.0
142
1.0
143
1.0
 70
  1712
 72
     0
 73
     0
 74
     0
  7

 75
     0
 76
     0
 77
     2
 78
   300
147
1.0
148
0.0
149
0.0
100
AcDbLayout
  1
Model
 70
     1
 71
     0
 10
0.0
 20
0.0
 11
12.0
 21
9.0
 12
0.0
 22
0.0
 32
0.0
 14
-175.4289321881345
 24
-94.57106781204777
 34
0.0
 15
156.9129547427185
 25
95.42893218813455
 35
0.0
146
0.0
 13
0.0
 23
0.0
 33
0.0
 16
1.0
 26
0.0
 36
0.0
 17
0.0
 27
1.0
 37
0.0
 76
     0
330
3AA
331
3B4
  0
MATERIAL
  5
3D0
102
{ACAD_REACTORS
330
3CE
102
}
330
3CE
100
AcDbMaterial
  1
ByBlock
 72
     1
 94
      127
  0
MATERIAL
  5
3CF
102
{ACAD_REACTORS
330
3CE
102
}
330
3CE
100
AcDbMaterial
  1
ByLayer
 72
     1
 94
      127
  0
MATERIAL
  5
3D1
102
{ACAD_REACTORS
330
3CE
102
}
330
3CE
100
AcDbMaterial
  1
Global
 72
     1
 94
      127
  0
MLEADERSTYLE
  5
3F7
102
{ACAD_REACTORS
330
3F6
102
}
330
3F6
100
AcDbMLeaderStyle
179
     2
170
     2
171
     1
172
     0
 90
        2
 40
0.0
 41
0.0
173
     1
 91
-1056964608
340
39F
 92
       -2
290
     1
 42
0.09
291
     1
 43
0.36
  3
Standard
341
0
 44
0.18
300

342
39D
174
     1
178
     6
175
     1
176
     0
 93
-1056964608
 45
0.18
292
     0
297
     0
 46
0.18
343
0
 94
-1056964608
 47
1.0
 49
1.0
140
1.0
293
     1
141
0.0
294
     1
177
     0
142
1.0
295
     0
296
     0
143
0.125
271
     0
272
     9
273
     9
298
     0
  0
MLINESTYLE
  5
3A3
102
{ACAD_REACTORS
330
3A2
102
}
330
3A2
100
AcDbMlineStyle
  2
Standard
 70
     0
  3

 62
   256
 51
90.0
 52
90.0
 71
     2
 49
0.5
 62
   256
  6
BYLAYER
 49
-0.5
 62
   256
  6
BYLAYER
  0
ACDBPLACEHOLDER
  5
39B
102
{ACAD_REACTORS
330
39A
102
}
330
39A
  0
SCALE
  5
3D3
102
{ACAD_REACTORS
330
3D2
102
}
330
3D2
100
AcDbScale
 70
     0
300
1:1
140
1.0
141
1.0
290
     1
  0
SCALE
  5
3D4
102
{ACAD_REACTORS
330
3D2
102
}
330
3D2
100
AcDbScale
 70
     0
300
1:2
140
1.0
141
2.0
290
     0
  0
SCALE
  5
3D5
102
{ACAD_REACTORS
330
3D2
102
}
330
3D2
100
AcDbScale
 70
     0
300
1:4
140
1.0
141
4.0
290
     0
  0
SCALE
  5
3D6
102
{ACAD_REACTORS
330
3D2
102
}
330
3D2
100
AcDbScale
 70
     0
300
1:5
140
1.0
141
5.0
290
     0
  0
SCALE
  5
3D7
102
{ACAD_REACTORS
330
3D2
102
}
330
3D2
100
AcDbScale
 70
     0
300
1:8
140
1.0
141
8.0
290
     0
  0
SCALE
  5
3D8
102
{ACAD_REACTORS
330
3D2
102
}
330
3D2
100
AcDbScale
 70
     0
300
1:10
140
1.0
141
10.0
290
     0
  0
SCALE
  5
3D9
102
{ACAD_REACTORS
330
3D2
102
}
330
3D2
100
AcDbScale
 70
     0
300
1:16
140
1.0
141
16.0
290
     0
  0
SCALE
  5
3DA
102
{ACAD_REACTORS
330
3D2
102
}
330
3D2
100
AcDbScale
 70
     0
300
1:20
140
1.0
141
20.0
290
     0
  0
SCALE
  5
3DB
102
{ACAD_REACTORS
330
3D2
102
}
330
3D2
100
AcDbScale
 70
     0
300
1:30
140
1.0
141
30.0
290
     0
  0
SCALE
  5
3DC
102
{ACAD_REACTORS
330
3D2
102
}
330
3D2
100
AcDbScale
 70
     0
300
1:40
140
1.0
141
40.0
290
     0
  0
SCALE
  5
3DD
102
{ACAD_REACTORS
330
3D2
102
}
330
3D2
100
AcDbScale
 70
     0
300
1:50
140
1.0
141
50.0
290
     0
  0
SCALE
  5
3DE
102
{ACAD_REACTORS
330
3D2
102
}
330
3D2
100
AcDbScale
 70
     0
300
1:100
140
1.0
141
100.0
290
     0
  0
SCALE
  5
3DF
102
{ACAD_REACTORS
330
3D2
102
}
330
3D2
100
AcDbScale
 70
     0
300
2:1
140
2.0
141
1.0
290
     0
  0
SCALE
  5
3E0
102
{ACAD_REACTORS
330
3D2
102
}
330
3D2
100
AcDbScale
 70
     0
300
4:1
140
4.0
141
1.0
290
     0
  0
SCALE
  5
3E1
102
{ACAD_REACTORS
330
3D2
102
}
330
3D2
100
AcDbScale
 70
     0
300
8:1
140
8.0
141
1.0
290
     0
  0
SCALE
  5
3E2
102
{ACAD_REACTORS
330
3D2
102
}
330
3D2
100
AcDbScale
 70
     0
300
10:1
140
10.0
141
1.0
290
     0
  0
SCALE
  5
3E3
102
{ACAD_REACTORS
330
3D2
102
}
330
3D2
100
AcDbScale
 70
     0
300
100:1
140
100.0
141
1.0
290
     0
  0
SCALE
  5
3E4
102
{ACAD_REACTORS
330
3D2
102
}
330
3D2
100
AcDbScale
 70
     0
300
1/128" = 1'-0"
140
0.0078125
141
12.0
290
     0
  0
SCALE
  5
3E5
102
{ACAD_REACTORS
330
3D2
102
}
330
3D2
100
AcDbScale
 70
     0
300
1/64" = 1'-0"
140
0.015625
141
12.0
290
     0
  0
SCALE
  5
3E6
102
{ACAD_REACTORS
330
3D2
102
}
330
3D2
100
AcDbScale
 70
     0
300
1/32" = 1'-0"
140
0.03125
141
12.0
290
     0
  0
SCALE
  5
3E7
102
{ACAD_REACTORS
330
3D2
102
}
330
3D2
100
AcDbScale
 70
     0
300
1/16" = 1'-0"
140
0.0625
141
12.0
290
     0
  0
SCALE
  5
3E8
102
{ACAD_REACTORS
330
3D2
102
}
330
3D2
100
AcDbScale
 70
     0
300
3/32" = 1'-0"
140
0.09375
141
12.0
290
     0
  0
SCALE
  5
3E9
102
{ACAD_REACTORS
330
3D2
102
}
330
3D2
100
AcDbScale
 70
     0
300
1/8" = 1'-0"
140
0.125
141
12.0
290
     0
  0
SCALE
  5
3EA
102
{ACAD_REACTORS
330
3D2
102
}
330
3D2
100
AcDbScale
 70
     0
300
3/16" = 1'-0"
140
0.1875
141
12.0
290
     0
  0
SCALE
  5
3EB
102
{ACAD_REACTORS
330
3D2
102
}
330
3D2
100
AcDbScale
 70
     0
300
1/4" = 1'-0"
140
0.25
141
12.0
290
     0
  0
SCALE
  5
3EC
102
{ACAD_REACTORS
330
3D2
102
}
330
3D2
100
AcDbScale
 70
     0
300
3/8" = 1'-0"
140
0.375
141
12.0
290
     0
  0
SCALE
  5
3ED
102
{ACAD_REACTORS
330
3D2
102
}
330
3D2
100
AcDbScale
 70
     0
300
1/2" = 1'-0"
140
0.5
141
12.0
290
     0
  0
SCALE
  5
3EE
102
{ACAD_REACTORS
330
3D2
102
}
330
3D2
100
AcDbScale
 70
     0
300
3/4" = 1'-0"
140
0.75
141
12.0
290
     0
  0
SCALE
  5
3EF
102
{ACAD_REACTORS
330
3D2
102
}
330
3D2
100
AcDbScale
 70
     0
300
1" = 1'-0"
140
1.0
141
12.0
290
     0
  0
SCALE
  5
3F0
102
{ACAD_REACTORS
330
3D2
102
}
330
3D2
100
AcDbScale
 70
     0
300
1-1/2" = 1'-0"
140
1.5
141
12.0
290
     0
  0
SCALE
  5
3F1
102
{ACAD_REACTORS
330
3D2
102
}
330
3D2
100
AcDbScale
 70
     0
300
3" = 1'-0"
140
3.0
141
12.0
290
     0
  0
SCALE
  5
3F2
102
{ACAD_REACTORS
330
3D2
102
}
330
3D2
100
AcDbScale
 70
     0
300
6" = 1'-0"
140
6.0
141
12.0
290
     0
  0
SCALE
  5
3F3
102
{ACAD_REACTORS
330
3D2
102
}
330
3D2
100
AcDbScale
 70
     0
300
1'-0" = 1'-0"
140
12.0
141
12.0
290
     0
  0
TABLESTYLE
  5
3F5
102
{ACAD_REACTORS
330
3F4
102
}
102
{ACAD_XDICTIONARY
360
486
102
}
330
3F4
100
AcDbTableStyle
  3
Standard
 70
     0
 71
     0
 40
0.06
 41
0.06
280
     0
281
     0
  7
Standard
140
0.18
170
     2
 62
     0
 63
   257
283
     0
 90
        4
 91
        0
  1

274
    -2
284
     1
 64
     0
275
    -2
285
     1
 65
     0
276
    -2
286
     1
 66
     0
277
    -2
287
     1
 67
     0
278
    -2
288
     1
 68
     0
279
    -2
289
     1
 69
     0
  7
Standard
140
0.25
170
     5
 62
     0
 63
   257
283
     0
 90
        4
 91
        0
  1

274
    -2
284
     1
 64
     0
275
    -2
285
     1
 65
     0
276
    -2
286
     1
 66
     0
277
    -2
287
     1
 67
     0
278
    -2
288
     1
 68
     0
279
    -2
289
     1
 69
     0
  7
Standard
140
0.18
170
     5
 62
     0
 63
   257
283
     0
 90
        4
 91
        0
  1

274
    -2
284
     1
 64
     0
275
    -2
285
     1
 65
     0
276
    -2
286
     1
 66
     0
277
    -2
287
     1
 67
     0
278
    -2
288
     1
 68
     0
279
    -2
289
     1
 69
     0
  0
VISUALSTYLE
  5
3BA
102
{ACAD_REACTORS
330
3B5
102
}
330
3B5
100
AcDbVisualStyle
  2
2dWireframe
 70
     4
177
     3
291
     0
 70
    58
 90
        0
176
     1
 90
        2
176
     1
 90
        0
176
     1
 90
        0
176
     1
 40
0.6
176
     1
 40
30.0
176
     1
 62
     7
420
 16777215
176
     1
 90
        1
176
     1
 90
        4
176
     1
 62
     7
176
     1
 62
   257
176
     1
 90
        1
176
     1
 90
        1
176
     1
 40
1.0
176
     1
 90
        0
176
     1
 62
   257
176
     1
 40
1.0
176
     1
 90
        1
176
     1
 90
        6
176
     1
 90
        2
176
     1
 62
     7
176
     1
 90
        5
176
     1
 90
        0
176
     1
 90
        0
176
     1
290
     0
176
     1
 90
        1
176
     1
 40
0.0
176
     1
 90
        0
176
     1
290
     1
176
     1
290
     1
176
     1
290
     0
176
     1
290
     0
176
     1
290
     0
176
     1
290
     0
176
     1
290
     0
176
     1
290
     0
176
     1
290
     0
176
     1
 90
       50
176
     1
 40
0.0
176
     1
 40
1.0
176
     1
 90
        0
176
     1
 62
   178
420
        0
176
     1
 90
       50
176
     1
 90
        3
176
     1
 62
     5
420
      255
176
     1
290
     0
176
     1
 90
       50
176
     1
 90
       50
176
     1
 90
       50
176
     1
290
     0
176
     1
 90
       50
176
     1
 62
   256
176
     0
 40
1.0
176
     0
 90
        2
176
     1
  1
strokes_ogs.tif
176
     1
290
     0
176
     1
 40
1.0
176
     1
 40
1.0
176
     1
  0
VISUALSTYLE
  5
3BD
102
{ACAD_REACTORS
330
3B5
102
}
330
3B5
100
AcDbVisualStyle
  2
Basic
 70
     7
177
     3
291
     1
 70
    58
 90
        1
176
     1
 90
        0
176
     1
 90
        1
176
     1
 90
        0
176
     1
 40
0.6
176
     1
 40
30.0
176
     1
 62
     7
420
 16777215
176
     1
 90
        0
176
     1
 90
        4
176
     1
 62
     7
176
     1
 62
   257
176
     1
 90
        1
176
     1
 90
        1
176
     1
 40
1.0
176
     1
 90
        8
176
     1
 62
     7
176
     1
 40
1.0
176
     1
 90
        1
176
     1
 90
        6
176
     1
 90
        2
176
     1
 62
     7
176
     1
 90
        5
176
     1
 90
        0
176
     1
 90
        0
176
     1
290
     0
176
     1
 90
        1
176
     1
 40
0.0
176
     1
 90
        0
176
     1
290
     0
176
     1
290
     1
176
     1
290
     1
176
     1
290
     0
176
     1
290
     0
176
     1
290
     0
176
     1
290
     0
176
     1
290
     0
176
     1
290
     0
176
     1
 90
       50
176
     1
 40
0.0
176
     1
 40
1.0
176
     1
 90
        0
176
     1
 62
   178
420
        0
176
     1
 90
       50
176
     1
 90
        3
176
     1
 62
     5
420
      255
176
     1
290
     0
176
     1
 90
       50
176
     1
 90
       50
176
     1
 90
       50
176
     1
290
     0
176
     1
 90
       50
176
     1
 62
   256
176
     0
 40
1.0
176
     0
 90
        2
176
     1
  1
strokes_ogs.tif
176
     1
290
     0
176
     1
 40
1.0
176
     1
 40
1.0
176
     1
  0
VISUALSTYLE
  5
3C1
102
{ACAD_REACTORS
330
3B5
102
}
330
3B5
100
AcDbVisualStyle
  2
Brighten
 70
    12
177
     3
291
     1
 70
    58
 90
        2
176
     1
 90
        2
176
     1
 90
        0
176
     1
 90
        0
176
     1
 40
0.6
176
     1
 40
30.0
176
     1
 62
     7
420
 16777215
176
     1
 90
        1
176
     1
 90
        4
176
     1
 62
     7
176
     1
 62
   257
176
     1
 90
        1
176
     1
 90
        1
176
     1
 40
1.0
176
     1
 90
        8
176
     1
 62
     7
176
     1
 40
1.0
176
     1
 90
        1
176
     1
 90
        6
176
     1
 90
        2
176
     1
 62
     7
176
     1
 90
        5
176
     1
 90
        0
176
     1
 90
        0
176
     1
290
     0
176
     1
 90
        1
176
     1
 40
50.0
176
     1
 90
        0
176
     1
290
     0
176
     1
290
     1
176
     1
290
     1
176
     1
290
     0
176
     1
290
     0
176
     1
290
     0
176
     1
290
     0
176
     1
290
     0
176
     1
290
     0
176
     1
 90
       50
176
     1
 40
0.0
176
     1
 40
1.0
176
     1
 90
        0
176
     1
 62
   178
420
        0
176
     1
 90
       50
176
     1
 90
        3
176
     1
 62
     5
420
      255
176
     1
290
     0
176
     1
 90
       50
176
     1
 90
       50
176
     1
 90
       50
176
     1
290
     0
176
     1
 90
       50
176
     1
 62
   256
176
     0
 40
1.0
176
     0
 90
        2
176
     1
  1
strokes_ogs.tif
176
     1
290
     0
176
     1
 40
1.0
176
     1
 40
1.0
176
     1
  0
VISUALSTYLE
  5
3C5
102
{ACAD_REACTORS
330
3B5
102
}
330
3B5
100
AcDbVisualStyle
  2
ColorChange
 70
    16
177
     3
291
     1
 70
    58
 90
        2
176
     1
 90
        2
176
     1
 90
        3
176
     1
 90
        0
176
     1
 40
0.6
176
     1
 40
30.0
176
     1
 62
     8
420
  8421504
176
     1
 90
        1
176
     1
 90
        4
176
     1
 62
     7
176
     1
 62
   257
176
     1
 90
        1
176
     1
 90
        1
176
     1
 40
1.0
176
     1
 90
        8
176
     1
 62
     8
420
  8421504
176
     1
 40
1.0
176
     1
 90
        1
176
     1
 90
        6
176
     1
 90
        2
176
     1
 62
     7
176
     1
 90
        5
176
     1
 90
        0
176
     1
 90
        0
176
     1
290
     0
176
     1
 90
        1
176
     1
 40
0.0
176
     1
 90
        0
176
     1
290
     0
176
     1
290
     1
176
     1
290
     1
176
     1
290
     0
176
     1
290
     0
176
     1
290
     0
176
     1
290
     0
176
     1
290
     0
176
     1
290
     0
176
     1
 90
       50
176
     1
 40
0.0
176
     1
 40
1.0
176
     1
 90
        0
176
     1
 62
   178
420
        0
176
     1
 90
       50
176
     1
 90
        3
176
     1
 62
     5
420
      255
176
     1
290
     0
176
     1
 90
       50
176
     1
 90
       50
176
     1
 90
       50
176
     1
290
     0
176
     1
 90
       50
176
     1
 62
   256
176
     0
 40
1.0
176
     0
 90
        2
176
     1
  1
strokes_ogs.tif
176
     1
290
     0
176
     1
 40
1.0
176
     1
 40
1.0
176
     1
  0
VISUALSTYLE
  5
3BF
102
{ACAD_REACTORS
330
3B5
102
}
330
3B5
100
AcDbVisualStyle
  2
Conceptual
 70
     9
177
     3
291
     0
 70
    58
 90
        3
176
     1
 90
        2
176
     1
 90
        0
176
     1
 90
        0
176
     1
 40
0.6
176
     1
 40
30.0
176
     1
 62
     7
420
 16777215
176
     1
 90
        2
176
     1
 90
        2
176
     1
 62
     7
176
     1
 62
   257
176
     1
 90
        1
176
     1
 90
        1
176
     1
 40
179.0
176
     1
 90
        8
176
     1
 62
     7
176
     1
 40
1.0
176
     1
 90
        1
176
     1
 90
        6
176
     1
 90
        2
176
     1
 62
     7
176
     1
 90
        3
176
     1
 90
        0
176
     1
 90
        0
176
     1
290
     0
176
     1
 90
        1
176
     1
 40
0.0
176
     1
 90
        0
176
     1
290
     0
176
     1
290
     1
176
     1
290
     1
176
     1
290
     0
176
     1
290
     0
176
     1
290
     0
176
     1
290
     0
176
     1
290
     0
176
     1
290
     0
176
     1
 90
       50
176
     1
 40
0.0
176
     1
 40
1.0
176
     1
 90
        0
176
     1
 62
   178
420
        0
176
     1
 90
       50
176
     1
 90
        3
176
     1
 62
     5
420
      255
176
     1
290
     0
176
     1
 90
       50
176
     1
 90
       50
176
     1
 90
       50
176
     1
290
     0
176
     1
 90
       50
176
     1
 62
   256
176
     0
 40
1.0
176
     0
 90
        2
176
     1
  1
strokes_ogs.tif
176
     1
290
     0
176
     1
 40
1.0
176
     1
 40
1.0
176
     1
  0
VISUALSTYLE
  5
3C0
102
{ACAD_REACTORS
330
3B5
102
}
330
3B5
100
AcDbVisualStyle
  2
Dim
 70
    11
177
     3
291
     1
 70
    58
 90
        2
176
     1
 90
        2
176
     1
 90
        0
176
     1
 90
        0
176
     1
 40
0.6
176
     1
 40
30.0
176
     1
 62
     7
420
 16777215
176
     1
 90
        1
176
     1
 90
        4
176
     1
 62
     7
176
     1
 62
   257
176
     1
 90
        1
176
     1
 90
        1
176
     1
 40
1.0
176
     1
 90
        8
176
     1
 62
     7
176
     1
 40
1.0
176
     1
 90
        1
176
     1
 90
        6
176
     1
 90
        2
176
     1
 62
     7
176
     1
 90
        5
176
     1
 90
        0
176
     1
 90
        0
176
     1
290
     0
176
     1
 90
        1
176
     1
 40
-50.0
176
     1
 90
        0
176
     1
290
     0
176
     1
290
     1
176
     1
290
     1
176
     1
290
     0
176
     1
290
     0
176
     1
290
     0
176
     1
290
     0
176
     1
290
     0
176
     1
290
     0
176
     1
 90
       50
176
     1
 40
0.0
176
     1
 40
1.0
176
     1
 90
        0
176
     1
 62
   178
420
        0
176
     1
 90
       50
176
     1
 90
        3
176
     1
 62
     5
420
      255
176
     1
290
     0
176
     1
 90
       50
176
     1
 90
       50
176
     1
 90
       50
176
     1
290
     0
176
     1
 90
       50
176
     1
 62
   256
176
     0
 40
1.0
176
     0
 90
        2
176
     1
  1
strokes_ogs.tif
176
     1
290
     0
176
     1
 40
1.0
176
     1
 40
1.0
176
     1
  0
VISUALSTYLE
  5
3C8
102
{ACAD_REACTORS
330
3B5
102
}
330
3B5
100
AcDbVisualStyle
  2
EdgeColorOff
 70
    22
177
     3
291
     1
 70
    58
 90
        2
176
     0
 90
        2
176
     0
 90
        0
176
     0
 90
        0
176
     0
 40
0.6
176
     0
 40
30.0
176
     0
 62
     7
420
 16777215
176
     0
 90
        1
176
     0
 90
        4
176
     0
 62
     7
176
     0
 62
   257
176
     0
 90
        1
176
     0
 90
        1
176
     0
 40
1.0
176
     0
 90
        8
176
     2
 62
     7
176
     0
 40
1.0
176
     0
 90
        1
176
     0
 90
        6
176
     0
 90
        2
176
     0
 62
     7
176
     0
 90
        5
176
     0
 90
        0
176
     0
 90
        0
176
     0
290
     0
176
     0
 90
        1
176
     0
 40
0.0
176
     0
 90
        0
176
     0
290
     0
176
     0
290
     1
176
     0
290
     1
176
     0
290
     0
176
     0
290
     0
176
     0
290
     0
176
     0
290
     0
176
     0
290
     0
176
     0
290
     0
176
     0
 90
       50
176
     0
 40
0.0
176
     0
 40
1.0
176
     0
 90
        0
176
     0
 62
   178
420
        0
176
     0
 90
       50
176
     0
 90
        3
176
     0
 62
     5
420
      255
176
     0
290
     0
176
     0
 90
       50
176
     0
 90
       50
176
     0
 90
       50
176
     0
290
     0
176
     0
 90
       50
176
     0
 62
   256
176
     0
 40
1.0
176
     0
 90
        2
176
     0
  1
strokes_ogs.tif
176
     0
290
     0
176
     0
 40
1.0
176
     0
 40
1.0
176
     0
  0
VISUALSTYLE
  5
3C4
102
{ACAD_REACTORS
330
3B5
102
}
330
3B5
100
AcDbVisualStyle
  2
Facepattern
 70
    15
177
     3
291
     1
 70
    58
 90
        2
176
     1
 90
        2
176
     1
 90
        0
176
     1
 90
        0
176
     1
 40
0.6
176
     1
 40
30.0
176
     1
 62
     7
420
 16777215
176
     1
 90
        1
176
     1
 90
        4
176
     1
 62
     7
176
     1
 62
   257
176
     1
 90
        1
176
     1
 90
        1
176
     1
 40
1.0
176
     1
 90
        8
176
     1
 62
     7
176
     1
 40
1.0
176
     1
 90
        1
176
     1
 90
        6
176
     1
 90
        2
176
     1
 62
     7
176
     1
 90
        5
176
     1
 90
        0
176
     1
 90
        0
176
     1
290
     0
176
     1
 90
        1
176
     1
 40
0.0
176
     1
 90
        0
176
     1
290
     0
176
     1
290
     1
176
     1
290
     1
176
     1
290
     0
176
     1
290
     0
176
     1
290
     0
176
     1
290
     0
176
     1
290
     0
176
     1
290
     0
176
     1
 90
       50
176
     1
 40
0.0
176
     1
 40
1.0
176
     1
 90
        0
176
     1
 62
   178
420
        0
176
     1
 90
       50
176
     1
 90
        3
176
     1
 62
     5
420
      255
176
     1
290
     0
176
     1
 90
       50
176
     1
 90
       50
176
     1
 90
       50
176
     1
290
     0
176
     1
 90
       50
176
     1
 62
   256
176
     0
 40
1.0
176
     0
 90
        2
176
     1
  1
strokes_ogs.tif
176
     1
290
     0
176
     1
 40
1.0
176
     1
 40
1.0
176
     1
  0
VISUALSTYLE
  5
3B6
102
{ACAD_REACTORS
330
3B5
102
}
330
3B5
100
AcDbVisualStyle
  2
Flat
 70
     0
177
     3
291
     1
 70
    58
 90
        2
176
     1
 90
        1
176
     1
 90
        1
176
     1
 90
        2
176
     1
 40
0.6
176
     1
 40
30.0
176
     1
 62
     7
420
 16777215
176
     1
 90
        0
176
     1
 90
        0
176
     1
 62
     7
176
     1
 62
   257
176
     1
 90
        1
176
     1
 90
        1
176
     1
 40
1.0
176
     1
 90
        8
176
     1
 62
     7
176
     1
 40
1.0
176
     1
 90
        1
176
     1
 90
        6
176
     1
 90
        2
176
     1
 62
     7
176
     1
 90
        5
176
     1
 90
        0
176
     1
 90
        0
176
     1
290
     0
176
     1
 90
       13
176
     1
 40
0.0
176
     1
 90
        0
176
     1
290
     0
176
     1
290
     1
176
     1
290
     1
176
     1
290
     0
176
     1
290
     0
176
     1
290
     0
176
     1
290
     0
176
     1
290
     0
176
     1
290
     0
176
     1
 90
       50
176
     1
 40
0.0
176
     1
 40
1.0
176
     1
 90
        0
176
     1
 62
   178
420
        0
176
     1
 90
       50
176
     1
 90
        3
176
     1
 62
     5
420
      255
176
     1
290
     0
176
     1
 90
       50
176
     1
 90
       50
176
     1
 90
       50
176
     1
290
     0
176
     1
 90
       50
176
     1
 62
   256
176
     0
 40
1.0
176
     0
 90
        2
176
     1
  1
strokes_ogs.tif
176
     1
290
     0
176
     1
 40
1.0
176
     1
 40
1.0
176
     1
  0
VISUALSTYLE
  5
3B7
102
{ACAD_REACTORS
330
3B5
102
}
330
3B5
100
AcDbVisualStyle
  2
FlatWithEdges
 70
     1
177
     3
291
     1
 70
    58
 90
        2
176
     1
 90
        1
176
     1
 90
        1
176
     1
 90
        2
176
     1
 40
0.6
176
     1
 40
30.0
176
     1
 62
     7
420
 16777215
176
     1
 90
        1
176
     1
 90
        0
176
     1
 62
     7
176
     1
 62
   257
176
     1
 90
        1
176
     1
 90
        1
176
     1
 40
1.0
176
     1
 90
        0
176
     1
 62
   257
176
     1
 40
1.0
176
     1
 90
        1
176
     1
 90
        6
176
     1
 90
        2
176
     1
 62
     7
176
     1
 90
        5
176
     1
 90
        0
176
     1
 90
        0
176
     1
290
     0
176
     1
 90
       13
176
     1
 40
0.0
176
     1
 90
        0
176
     1
290
     0
176
     1
290
     1
176
     1
290
     1
176
     1
290
     0
176
     1
290
     0
176
     1
290
     0
176
     1
290
     0
176
     1
290
     0
176
     1
290
     0
176
     1
 90
       50
176
     1
 40
0.0
176
     1
 40
1.0
176
     1
 90
        0
176
     1
 62
   178
420
        0
176
     1
 90
       50
176
     1
 90
        3
176
     1
 62
     5
420
      255
176
     1
290
     0
176
     1
 90
       50
176
     1
 90
       50
176
     1
 90
       50
176
     1
290
     0
176
     1
 90
       50
176
     1
 62
   256
176
     0
 40
1.0
176
     0
 90
        2
176
     1
  1
strokes_ogs.tif
176
     1
290
     0
176
     1
 40
1.0
176
     1
 40
1.0
176
     1
  0
VISUALSTYLE
  5
3B8
102
{ACAD_REACTORS
330
3B5
102
}
330
3B5
100
AcDbVisualStyle
  2
Gouraud
 70
     2
177
     3
291
     1
 70
    58
 90
        2
176
     1
 90
        2
176
     1
 90
        1
176
     1
 90
        2
176
     1
 40
0.6
176
     1
 40
30.0
176
     1
 62
     7
420
 16777215
176
     1
 90
        0
176
     1
 90
        0
176
     1
 62
     7
176
     1
 62
   257
176
     1
 90
        1
176
     1
 90
        1
176
     1
 40
1.0
176
     1
 90
        0
176
     1
 62
     7
176
     1
 40
1.0
176
     1
 90
        1
176
     1
 90
        6
176
     1
 90
        2
176
     1
 62
     7
176
     1
 90
        5
176
     1
 90
        0
176
     1
 90
        0
176
     1
290
     0
176
     1
 90
       13
176
     1
 40
0.0
176
     1
 90
        0
176
     1
290
     0
176
     1
290
     1
176
     1
290
     1
176
     1
290
     0
176
     1
290
     0
176
     1
290
     0
176
     1
290
     0
176
     1
290
     0
176
     1
290
     0
176
     1
 90
       50
176
     1
 40
0.0
176
     1
 40
1.0
176
     1
 90
        0
176
     1
 62
   178
420
        0
176
     1
 90
       50
176
     1
 90
        3
176
     1
 62
     5
420
      255
176
     1
290
     0
176
     1
 90
       50
176
     1
 90
       50
176
     1
 90
       50
176
     1
290
     0
176
     1
 90
       50
176
     1
 62
   256
176
     0
 40
1.0
176
     0
 90
        2
176
     1
  1
strokes_ogs.tif
176
     1
290
     0
176
     1
 40
1.0
176
     1
 40
1.0
176
     1
  0
VISUALSTYLE
  5
3B9
102
{ACAD_REACTORS
330
3B5
102
}
330
3B5
100
AcDbVisualStyle
  2
GouraudWithEdges
 70
     3
177
     3
291
     1
 70
    58
 90
        2
176
     1
 90
        2
176
     1
 90
        1
176
     1
 90
        2
176
     1
 40
0.6
176
     1
 40
30.0
176
     1
 62
     7
420
 16777215
176
     1
 90
        1
176
     1
 90
        0
176
     1
 62
     7
176
     1
 62
   257
176
     1
 90
        1
176
     1
 90
        1
176
     1
 40
1.0
176
     1
 90
        0
176
     1
 62
   257
176
     1
 40
1.0
176
     1
 90
        1
176
     1
 90
        6
176
     1
 90
        2
176
     1
 62
     7
176
     1
 90
        5
176
     1
 90
        0
176
     1
 90
        0
176
     1
290
     0
176
     1
 90
       13
176
     1
 40
0.0
176
     1
 90
        0
176
     1
290
     0
176
     1
290
     1
176
     1
290
     1
176
     1
290
     0
176
     1
290
     0
176
     1
290
     0
176
     1
290
     0
176
     1
290
     0
176
     1
290
     0
176
     1
 90
       50
176
     1
 40
0.0
176
     1
 40
1.0
176
     1
 90
        0
176
     1
 62
   178
420
        0
176
     1
 90
       50
176
     1
 90
        3
176
     1
 62
     5
420
      255
176
     1
290
     0
176
     1
 90
       50
176
     1
 90
       50
176
     1
 90
       50
176
     1
290
     0
176
     1
 90
       50
176
     1
 62
   256
176
     0
 40
1.0
176
     0
 90
        2
176
     1
  1
strokes_ogs.tif
176
     1
290
     0
176
     1
 40
1.0
176
     1
 40
1.0
176
     1
  0
VISUALSTYLE
  5
3BC
102
{ACAD_REACTORS
330
3B5
102
}
330
3B5
100
AcDbVisualStyle
  2
Hidden
 70
     6
177
     3
291
     0
 70
    58
 90
        1
176
     1
 90
        2
176
     1
 90
        2
176
     1
 90
        0
176
     1
 40
0.6
176
     1
 40
30.0
176
     1
 62
     7
420
 16777215
176
     1
 90
        2
176
     1
 90
        2
176
     1
 62
     7
176
     1
 62
   257
176
     1
 90
        2
176
     1
 90
        1
176
     1
 40
40.0
176
     1
 90
        0
176
     1
 62
   257
176
     1
 40
1.0
176
     1
 90
        1
176
     1
 90
        6
176
     1
 90
        2
176
     1
 62
     7
176
     1
 90
        3
176
     1
 90
        0
176
     1
 90
        0
176
     1
290
     0
176
     1
 90
        1
176
     1
 40
0.0
176
     1
 90
        0
176
     1
290
     0
176
     1
290
     1
176
     1
290
     1
176
     1
290
     0
176
     1
290
     0
176
     1
290
     0
176
     1
290
     0
176
     1
290
     0
176
     1
290
     0
176
     1
 90
       50
176
     1
 40
0.0
176
     1
 40
1.0
176
     1
 90
        0
176
     1
 62
   178
420
        0
176
     1
 90
       50
176
     1
 90
        3
176
     1
 62
     5
420
      255
176
     1
290
     0
176
     1
 90
       50
176
     1
 90
       50
176
     1
 90
       50
176
     1
290
     0
176
     1
 90
       50
176
     1
 62
   256
176
     0
 40
1.0
176
     0
 90
        2
176
     1
  1
strokes_ogs.tif
176
     1
290
     0
176
     1
 40
1.0
176
     1
 40
1.0
176
     1
  0
VISUALSTYLE
  5
3C6
102
{ACAD_REACTORS
330
3B5
102
}
330
3B5
100
AcDbVisualStyle
  2
JitterOff
 70
    20
177
     3
291
     1
 70
    58
 90
        2
176
     0
 90
        2
176
     0
 90
        0
176
     0
 90
        0
176
     0
 40
0.6
176
     0
 40
30.0
176
     0
 62
     7
420
 16777215
176
     0
 90
        1
176
     0
 90
        4
176
     0
 62
     7
176
     0
 62
   257
176
     0
 90
        1
176
     0
 90
        1
176
     0
 40
1.0
176
     0
 90
       10
176
     2
 62
     7
176
     0
 40
1.0
176
     0
 90
        1
176
     0
 90
        6
176
     0
 90
        2
176
     0
 62
     7
176
     0
 90
        5
176
     0
 90
        0
176
     0
 90
        0
176
     0
290
     0
176
     0
 90
        1
176
     0
 40
0.0
176
     0
 90
        0
176
     0
290
     0
176
     0
290
     1
176
     0
290
     1
176
     0
290
     0
176
     0
290
     0
176
     0
290
     0
176
     0
290
     0
176
     0
290
     0
176
     0
290
     0
176
     0
 90
       50
176
     0
 40
0.0
176
     0
 40
1.0
176
     0
 90
        0
176
     0
 62
   178
420
        0
176
     0
 90
       50
176
     0
 90
        3
176
     0
 62
     5
420
      255
176
     0
290
     0
176
     0
 90
       50
176
     0
 90
       50
176
     0
 90
       50
176
     0
290
     0
176
     0
 90
       50
176
     0
 62
   256
176
     0
 40
1.0
176
     0
 90
        2
176
     0
  1
strokes_ogs.tif
176
     0
290
     0
176
     0
 40
1.0
176
     0
 40
1.0
176
     0
  0
VISUALSTYLE
  5
3C3
102
{ACAD_REACTORS
330
3B5
102
}
330
3B5
100
AcDbVisualStyle
  2
Linepattern
 70
    14
177
     3
291
     1
 70
    58
 90
        2
176
     1
 90
        2
176
     1
 90
        0
176
     1
 90
        0
176
     1
 40
0.6
176
     1
 40
30.0
176
     1
 62
     7
420
 16777215
176
     1
 90
        1
176
     1
 90
        4
176
     1
 62
     7
176
     1
 62
   257
176
     1
 90
        7
176
     1
 90
        7
176
     1
 40
1.0
176
     1
 90
        8
176
     1
 62
     7
176
     1
 40
1.0
176
     1
 90
        1
176
     1
 90
        6
176
     1
 90
        2
176
     1
 62
     7
176
     1
 90
        5
176
     1
 90
        0
176
     1
 90
        0
176
     1
290
     0
176
     1
 90
        1
176
     1
 40
0.0
176
     1
 90
        0
176
     1
290
     0
176
     1
290
     1
176
     1
290
     1
176
     1
290
     0
176
     1
290
     0
176
     1
290
     0
176
     1
290
     0
176
     1
290
     0
176
     1
290
     0
176
     1
 90
       50
176
     1
 40
0.0
176
     1
 40
1.0
176
     1
 90
        0
176
     1
 62
   178
420
        0
176
     1
 90
       50
176
     1
 90
        3
176
     1
 62
     5
420
      255
176
     1
290
     0
176
     1
 90
       50
176
     1
 90
       50
176
     1
 90
       50
176
     1
290
     0
176
     1
 90
       50
176
     1
 62
   256
176
     0
 40
1.0
176
     0
 90
        2
176
     1
  1
strokes_ogs.tif
176
     1
290
     0
176
     1
 40
1.0
176
     1
 40
1.0
176
     1
  0
VISUALSTYLE
  5
3C7
102
{ACAD_REACTORS
330
3B5
102
}
330
3B5
100
AcDbVisualStyle
  2
OverhangOff
 70
    21
177
     3
291
     1
 70
    58
 90
        2
176
     0
 90
        2
176
     0
 90
        0
176
     0
 90
        0
176
     0
 40
0.6
176
     0
 40
30.0
176
     0
 62
     7
420
 16777215
176
     0
 90
        1
176
     0
 90
        4
176
     0
 62
     7
176
     0
 62
   257
176
     0
 90
        1
176
     0
 90
        1
176
     0
 40
1.0
176
     0
 90
        9
176
     2
 62
     7
176
     0
 40
1.0
176
     0
 90
        1
176
     0
 90
        6
176
     0
 90
        2
176
     0
 62
     7
176
     0
 90
        5
176
     0
 90
        0
176
     0
 90
        0
176
     0
290
     0
176
     0
 90
        1
176
     0
 40
0.0
176
     0
 90
        0
176
     0
290
     0
176
     0
290
     1
176
     0
290
     1
176
     0
290
     0
176
     0
290
     0
176
     0
290
     0
176
     0
290
     0
176
     0
290
     0
176
     0
290
     0
176
     0
 90
       50
176
     0
 40
0.0
176
     0
 40
1.0
176
     0
 90
        0
176
     0
 62
   178
420
        0
176
     0
 90
       50
176
     0
 90
        3
176
     0
 62
     5
420
      255
176
     0
290
     0
176
     0
 90
       50
176
     0
 90
       50
176
     0
 90
       50
176
     0
290
     0
176
     0
 90
       50
176
     0
 62
   256
176
     0
 40
1.0
176
     0
 90
        2
176
     0
  1
strokes_ogs.tif
176
     0
290
     0
176
     0
 40
1.0
176
     0
 40
1.0
176
     0
  0
VISUALSTYLE
  5
3BE
102
{ACAD_REACTORS
330
3B5
102
}
330
3B5
100
AcDbVisualStyle
  2
Realistic
 70
     8
177
     3
291
     0
 70
    58
 90
        2
176
     1
 90
        3
176
     1
 90
        0
176
     1
 90
        2
176
     1
 40
0.6
176
     1
 40
30.0
176
     1
 62
     7
420
 16777215
176
     1
 90
        0
176
     1
 90
        0
176
     1
 62
     7
176
     1
 62
   257
176
     1
 90
        1
176
     1
 90
        1
176
     1
 40
1.0
176
     1
 90
        8
176
     1
 62
   257
176
     1
 40
1.0
176
     1
 90
        1
176
     1
 90
        6
176
     1
 90
        2
176
     1
 62
     7
176
     1
 90
        3
176
     1
 90
        0
176
     1
 90
        0
176
     1
290
     0
176
     1
 90
       13
176
     1
 40
0.0
176
     1
 90
        0
176
     1
290
     0
176
     1
290
     1
176
     1
290
     1
176
     1
290
     0
176
     1
290
     0
176
     1
290
     0
176
     1
290
     0
176
     1
290
     0
176
     1
290
     0
176
     1
 90
       50
176
     1
 40
0.0
176
     1
 40
1.0
176
     1
 90
        0
176
     1
 62
   178
420
        0
176
     1
 90
       50
176
     1
 90
        3
176
     1
 62
     5
420
      255
176
     1
290
     0
176
     1
 90
       50
176
     1
 90
       50
176
     1
 90
       50
176
     1
290
     0
176
     1
 90
       50
176
     1
 62
   256
176
     0
 40
1.0
176
     0
 90
        2
176
     1
  1
strokes_ogs.tif
176
     1
290
     0
176
     1
 40
1.0
176
     1
 40
1.0
176
     1
  0
VISUALSTYLE
  5
3CD
102
{ACAD_REACTORS
330
3B5
102
}
330
3B5
100
AcDbVisualStyle
  2
Shaded
 70
    27
177
     3
291
     0
 70
    58
 90
        2
176
     1
 90
        2
176
     1
 90
        1
176
     1
 90
        2
176
     1
 40
0.6
176
     1
 40
30.0
176
     1
 62
     7
420
 16777215
176
     1
 90
        0
176
     1
 90
        4
176
     1
 62
     7
176
     1
 62
   257
176
     1
 90
        1
176
     1
 90
        1
176
     1
 40
1.0
176
     1
 90
        8
176
     1
 62
   257
176
     1
 40
1.0
176
     1
 90
        1
176
     1
 90
        6
176
     1
 90
        2
176
     1
 62
     8
420
  7895160
176
     1
 90
        3
176
     1
 90
        0
176
     1
 90
        0
176
     1
290
     0
176
     1
 90
        5
176
     1
 40
0.0
176
     1
 90
        0
176
     1
290
     0
176
     1
290
     1
176
     1
290
     1
176
     1
290
     0
176
     1
290
     0
176
     1
290
     0
176
     1
290
     0
176
     1
290
     0
176
     1
290
     0
176
     1
 90
       50
176
     1
 40
0.0
176
     1
 40
1.0
176
     1
 90
        0
176
     1
 62
   178
420
        0
176
     1
 90
       50
176
     1
 90
        3
176
     1
 62
     5
420
      255
176
     1
290
     0
176
     1
 90
       50
176
     1
 90
       50
176
     1
 90
       50
176
     1
290
     0
176
     1
 90
       50
176
     1
 62
   256
176
     0
 40
1.0
176
     0
 90
        2
176
     1
  1
strokes_ogs.tif
176
     1
290
     0
176
     1
 40
1.0
176
     1
 40
1.0
176
     1
  0
VISUALSTYLE
  5
3CC
102
{ACAD_REACTORS
330
3B5
102
}
330
3B5
100
AcDbVisualStyle
  2
Shaded with edges
 70
    26
177
     3
291
     0
 70
    58
 90
        2
176
     1
 90
        2
176
     1
 90
        1
176
     1
 90
        2
176
     1
 40
0.6
176
     1
 40
30.0
176
     1
 62
     7
420
 16777215
176
     1
 90
        1
176
     1
 90
       10
176
     1
 62
     7
176
     1
 62
   257
176
     1
 90
        2
176
     1
 90
        1
176
     1
 40
1.0
176
     1
 90
        8
176
     1
 62
   257
176
     1
 40
1.0
176
     1
 90
        1
176
     1
 90
        6
176
     1
 90
        2
176
     1
 62
     7
176
     1
 90
        3
176
     1
 90
        0
176
     1
 90
        0
176
     1
290
     0
176
     1
 90
        5
176
     1
 40
0.0
176
     1
 90
        0
176
     1
290
     0
176
     1
290
     1
176
     1
290
     1
176
     1
290
     0
176
     1
290
     0
176
     1
290
     0
176
     1
290
     0
176
     1
290
     0
176
     1
290
     0
176
     1
 90
       50
176
     1
 40
0.0
176
     1
 40
1.0
176
     1
 90
        0
176
     1
 62
   178
420
        0
176
     1
 90
       50
176
     1
 90
        3
176
     1
 62
     5
420
      255
176
     1
290
     0
176
     1
 90
       50
176
     1
 90
       50
176
     1
 90
       50
176
     1
290
     0
176
     1
 90
       50
176
     1
 62
   256
176
     0
 40
1.0
176
     0
 90
        2
176
     1
  1
strokes_ogs.tif
176
     1
290
     0
176
     1
 40
1.0
176
     1
 40
1.0
176
     1
  0
VISUALSTYLE
  5
3C9
102
{ACAD_REACTORS
330
3B5
102
}
330
3B5
100
AcDbVisualStyle
  2
Shades of Gray
 70
    23
177
     3
291
     0
 70
    58
 90
        2
176
     1
 90
        2
176
     1
 90
        3
176
     1
 90
        0
176
     1
 40
0.6
176
     1
 40
30.0
176
     1
 62
     7
420
 16777215
176
     1
 90
        2
176
     1
 90
        2
176
     1
 62
     7
176
     1
 62
     7
176
     1
 90
        1
176
     1
 90
        1
176
     1
 40
40.0
176
     1
 90
        8
176
     1
 62
     7
176
     1
 40
1.0
176
     1
 90
        1
176
     1
 90
        6
176
     1
 90
        2
176
     1
 62
     7
176
     1
 90
        3
176
     1
 90
        0
176
     1
 90
        0
176
     1
290
     0
176
     1
 90
        1
176
     1
 40
0.0
176
     1
 90
        0
176
     1
290
     0
176
     1
290
     1
176
     1
290
     1
176
     1
290
     0
176
     1
290
     0
176
     1
290
     0
176
     1
290
     0
176
     1
290
     0
176
     1
290
     0
176
     1
 90
       50
176
     1
 40
0.0
176
     1
 40
1.0
176
     1
 90
        0
176
     1
 62
   178
420
        0
176
     1
 90
       50
176
     1
 90
        3
176
     1
 62
     5
420
      255
176
     1
290
     0
176
     1
 90
       50
176
     1
 90
       50
176
     1
 90
       50
176
     1
290
     0
176
     1
 90
       50
176
     1
 62
   256
176
     0
 40
1.0
176
     0
 90
        2
176
     1
  1
strokes_ogs.tif
176
     1
290
     0
176
     1
 40
1.0
176
     1
 40
1.0
176
     1
  0
VISUALSTYLE
  5
3CA
102
{ACAD_REACTORS
330
3B5
102
}
330
3B5
100
AcDbVisualStyle
  2
Sketchy
 70
    24
177
     3
291
     0
 70
    58
 90
        1
176
     1
 90
        2
176
     1
 90
        2
176
     1
 90
        0
176
     1
 40
0.6
176
     1
 40
30.0
176
     1
 62
     7
420
 16777215
176
     1
 90
        2
176
     1
 90
        2
176
     1
 62
     7
176
     1
 62
     7
176
     1
 90
        1
176
     1
 90
        1
176
     1
 40
40.0
176
     1
 90
       11
176
     1
 62
     7
176
     1
 40
1.0
176
     1
 90
        1
176
     1
 90
        6
176
     1
 90
        2
176
     1
 62
     7
176
     1
 90
        6
176
     1
 90
        0
176
     1
 90
        0
176
     1
290
     0
176
     1
 90
        1
176
     1
 40
0.0
176
     1
 90
        0
176
     1
290
     0
176
     1
290
     1
176
     1
290
     1
176
     1
290
     0
176
     1
290
     0
176
     1
290
     0
176
     1
290
     0
176
     1
290
     0
176
     1
290
     0
176
     1
 90
       50
176
     1
 40
0.0
176
     1
 40
1.0
176
     1
 90
        0
176
     1
 62
   178
420
        0
176
     1
 90
       50
176
     1
 90
        3
176
     1
 62
     5
420
      255
176
     1
290
     0
176
     1
 90
       50
176
     1
 90
       50
176
     1
 90
       50
176
     1
290
     0
176
     1
 90
       50
176
     1
 62
   256
176
     0
 40
1.0
176
     0
 90
        2
176
     1
  1
strokes_ogs.tif
176
     1
290
     0
176
     1
 40
1.0
176
     1
 40
1.0
176
     1
  0
VISUALSTYLE
  5
3C2
102
{ACAD_REACTORS
330
3B5
102
}
330
3B5
100
AcDbVisualStyle
  2
Thicken
 70
    13
177
     3
291
     1
 70
    58
 90
        2
176
     1
 90
        2
176
     1
 90
        0
176
     1
 90
        0
176
     1
 40
0.6
176
     1
 40
30.0
176
     1
 62
     7
420
 16777215
176
     1
 90
        1
176
     1
 90
        4
176
     1
 62
     7
176
     1
 62
   257
176
     1
 90
        1
176
     1
 90
        1
176
     1
 40
1.0
176
     1
 90
       12
176
     1
 62
     7
176
     1
 40
1.0
176
     1
 90
        1
176
     1
 90
        6
176
     1
 90
        2
176
     1
 62
     7
176
     1
 90
        5
176
     1
 90
        0
176
     1
 90
        0
176
     1
290
     0
176
     1
 90
        1
176
     1
 40
0.0
176
     1
 90
        0
176
     1
290
     0
176
     1
290
     1
176
     1
290
     1
176
     1
290
     0
176
     1
290
     0
176
     1
290
     0
176
     1
290
     0
176
     1
290
     0
176
     1
290
     0
176
     1
 90
       50
176
     1
 40
0.0
176
     1
 40
1.0
176
     1
 90
        0
176
     1
 62
   178
420
        0
176
     1
 90
       50
176
     1
 90
        3
176
     1
 62
     5
420
      255
176
     1
290
     0
176
     1
 90
       50
176
     1
 90
       50
176
     1
 90
       50
176
     1
290
     0
176
     1
 90
       50
176
     1
 62
   256
176
     0
 40
1.0
176
     0
 90
        2
176
     1
  1
strokes_ogs.tif
176
     1
290
     0
176
     1
 40
1.0
176
     1
 40
1.0
176
     1
  0
VISUALSTYLE
  5
3BB
102
{ACAD_REACTORS
330
3B5
102
}
330
3B5
100
AcDbVisualStyle
  2
Wireframe
 70
     5
177
     3
291
     0
 70
    58
 90
        0
176
     1
 90
        2
176
     1
 90
        0
176
     1
 90
        0
176
     1
 40
0.6
176
     1
 40
30.0
176
     1
 62
     7
420
 16777215
176
     1
 90
        1
176
     1
 90
        4
176
     1
 62
     7
176
     1
 62
   257
176
     1
 90
        1
176
     1
 90
        1
176
     1
 40
1.0
176
     1
 90
        0
176
     1
 62
   257
176
     1
 40
1.0
176
     1
 90
        1
176
     1
 90
        6
176
     1
 90
        2
176
     1
 62
     7
176
     1
 90
        3
176
     1
 90
        0
176
     1
 90
        0
176
     1
290
     0
176
     1
 90
        1
176
     1
 40
0.0
176
     1
 90
        0
176
     1
290
     0
176
     1
290
     1
176
     1
290
     1
176
     1
290
     0
176
     1
290
     0
176
     1
290
     0
176
     1
290
     0
176
     1
290
     0
176
     1
290
     0
176
     1
 90
       50
176
     1
 40
0.0
176
     1
 40
1.0
176
     1
 90
        0
176
     1
 62
   178
420
        0
176
     1
 90
       50
176
     1
 90
        3
176
     1
 62
     5
420
      255
176
     1
290
     0
176
     1
 90
       50
176
     1
 90
       50
176
     1
 90
       50
176
     1
290
     0
176
     1
 90
       50
176
     1
 62
   256
176
     0
 40
1.0
176
     0
 90
        2
176
     1
  1
strokes_ogs.tif
176
     1
290
     0
176
     1
 40
1.0
176
     1
 40
1.0
176
     1
  0
VISUALSTYLE
  5
3CB
102
{ACAD_REACTORS
330
3B5
102
}
330
3B5
100
AcDbVisualStyle
  2
X-Ray
 70
    25
177
     3
291
     0
 70
    58
 90
        2
176
     1
 90
        2
176
     1
 90
        1
176
     1
 90
        1
176
     1
 40
0.5
176
     1
 40
30.0
176
     1
 62
     7
420
 16777215
176
     1
 90
        1
176
     1
 90
        0
176
     1
 62
     7
176
     1
 62
   257
176
     1
 90
        1
176
     1
 90
        1
176
     1
 40
1.0
176
     1
 90
        8
176
     1
 62
     7
176
     1
 40
1.0
176
     1
 90
        1
176
     1
 90
        6
176
     1
 90
        2
176
     1
 62
     7
176
     1
 90
        3
176
     1
 90
        0
176
     1
 90
        0
176
     1
290
     0
176
     1
 90
       13
176
     1
 40
0.0
176
     1
 90
        0
176
     1
290
     0
176
     1
290
     1
176
     1
290
     1
176
     1
290
     0
176
     1
290
     0
176
     1
290
     0
176
     1
290
     0
176
     1
290
     0
176
     1
290
     0
176
     1
 90
       50
176
     1
 40
0.0
176
     1
 40
1.0
176
     1
 90
        0
176
     1
 62
   178
420
        0
176
     1
 90
       50
176
     1
 90
        3
176
     1
 62
     5
420
      255
176
     1
290
     0
176
     1
 90
       50
176
     1
 90
       50
176
     1
 90
       50
176
     1
290
     0
176
     1
 90
       50
176
     1
 62
   256
176
     0
 40
1.0
176
     0
 90
        2
176
     1
  1
strokes_ogs.tif
176
     1
290
     0
176
     1
 40
1.0
176
     1
 40
1.0
176
     1
  0
DICTIONARYVAR
  5
485
102
{ACAD_REACTORS
330
484
102
}
330
484
100
DictionaryVariables
280
     0
  1
1:1
  0
DICTIONARYVAR
  5
48A
102
{ACAD_REACTORS
330
484
102
}
330
484
100
DictionaryVariables
280
     0
  1
Standard
  0
DICTIONARYVAR
  5
489
102
{ACAD_REACTORS
330
484
102
}
330
484
100
DictionaryVariables
280
     0
  1
Standard
  0
XRECORD
  5
3FC
102
{ACAD_REACTORS
330
3FA
102
}
330
3FA
100
AcDbXrecord
280
     1
1000
#ffffff
  0
XRECORD
  5
3FD
102
{ACAD_REACTORS
330
3FA
102
}
330
3FA
100
AcDbXrecord
280
     1
1000
FullColor
  0
XRECORD
  5
3FE
102
{ACAD_REACTORS
330
3FA
102
}
330
3FA
100
AcDbXrecord
280
     1
290
     1
  0
XRECORD
  5
3FF
102
{ACAD_REACTORS
330
3FA
102
}
330
3FA
100
AcDbXrecord
280
     1
290
     1
  0
XRECORD
  5
400
102
{ACAD_REACTORS
330
3FA
102
}
330
3FA
100
AcDbXrecord
280
     1
290
     1
  0
XRECORD
  5
401
102
{ACAD_REACTORS
330
3FA
102
}
330
3FA
100
AcDbXrecord
280
     1
290
     1
  0
XRECORD
  5
402
102
{ACAD_REACTORS
330
3FA
102
}
330
3FA
100
AcDbXrecord
280
     1
1000
0.01
  0
XRECORD
  5
403
102
{ACAD_REACTORS
330
3FA
102
}
330
3FA
100
AcDbXrecord
280
     1
1000
auto
  0
XRECORD
  5
404
102
{ACAD_REACTORS
330
3FA
102
}
330
3FA
100
AcDbXrecord
280
     1
1000
auto
  0
XRECORD
  5
405
102
{ACAD_REACTORS
330
3FA
102
}
330
3FA
100
AcDbXrecord
280
     1
1000
auto
  0
XRECORD
  5
406
102
{ACAD_REACTORS
330
3FA
102
}
330
3FA
100
AcDbXrecord
280
     1
1000
0.01
  0
XRECORD
  5
407
102
{ACAD_REACTORS
330
3FA
102
}
330
3FA
100
AcDbXrecord
280
     1
1000
auto
  0
XRECORD
  5
408
102
{ACAD_REACTORS
330
3FA
102
}
330
3FA
100
AcDbXrecord
280
     1
1000
auto
  0
XRECORD
  5
409
102
{ACAD_REACTORS
330
3FA
102
}
330
3FA
100
AcDbXrecord
280
     1
1000
auto
  0
XRECORD
  5
40A
102
{ACAD_REACTORS
330
3FA
102
}
330
3FA
100
AcDbXrecord
280
     1
290
     0
  0
XRECORD
  5
40B
102
{ACAD_REACTORS
330
3FA
102
}
330
3FA
100
AcDbXrecord
280
     1
290
     0
  0
XRECORD
  5
40C
102
{ACAD_REACTORS
330
3FA
102
}
330
3FA
100
AcDbXrecord
280
     1
290
     0
  0
XRECORD
  5
40D
102
{ACAD_REACTORS
330
3FA
102
}
330
3FA
100
AcDbXrecord
280
     1
290
     0
  0
XRECORD
  5
40E
102
{ACAD_REACTORS
330
3FA
102
}
330
3FA
100
AcDbXrecord
280
     1
 90
    65537
  0
XRECORD
  5
40F
102
{ACAD_REACTORS
330
3FA
102
}
330
3FA
100
AcDbXrecord
280
     1
 90
    65537
  0
XRECORD
  5
410
102
{ACAD_REACTORS
330
3FA
102
}
330
3FA
100
AcDbXrecord
280
     1
 90
    65537
  0
XRECORD
  5
411
102
{ACAD_REACTORS
330
3FA
102
}
330
3FA
100
AcDbXrecord
280
     1
 90
    65537
  0
XRECORD
  5
412
102
{ACAD_REACTORS
330
3FA
102
}
330
3FA
100
AcDbXrecord
280
     1
1000
1
  0
XRECORD
  5
413
102
{ACAD_REACTORS
330
3FA
102
}
330
3FA
100
AcDbXrecord
280
     1
1000
auto
  0
XRECORD
  5
414
102
{ACAD_REACTORS
330
3FA
102
}
330
3FA
100
AcDbXrecord
280
     1
1000
auto
  0
XRECORD
  5
415
102
{ACAD_REACTORS
330
3FA
102
}
330
3FA
100
AcDbXrecord
280
     1
1000
auto
  0
XRECORD
  5
416
102
{ACAD_REACTORS
330
3FA
102
}
330
3FA
100
AcDbXrecord
280
     1
1000
1
  0
XRECORD
  5
417
102
{ACAD_REACTORS
330
3FA
102
}
330
3FA
100
AcDbXrecord
280
     1
1000
auto
  0
XRECORD
  5
418
102
{ACAD_REACTORS
330
3FA
102
}
330
3FA
100
AcDbXrecord
280
     1
1000
auto
  0
XRECORD
  5
419
102
{ACAD_REACTORS
330
3FA
102
}
330
3FA
100
AcDbXrecord
280
     1
1000
auto
  0
XRECORD
  5
41A
102
{ACAD_REACTORS
330
3FA
102
}
330
3FA
100
AcDbXrecord
280
     1
 90
        1
  0
XRECORD
  5
41B
102
{ACAD_REACTORS
330
3FA
102
}
330
3FA
100
AcDbXrecord
280
     1
 40
10.0
  0
XRECORD
  5
41C
102
{ACAD_REACTORS
330
3FA
102
}
330
3FA
100
AcDbXrecord
280
     1
 40
10.0
  0
XRECORD
  5
41D
102
{ACAD_REACTORS
330
3FA
102
}
330
3FA
100
AcDbXrecord
280
     1
 40
10.0
  0
XRECORD
  5
41E
102
{ACAD_REACTORS
330
3FA
102
}
330
3FA
100
AcDbXrecord
280
     1
 40
10.0
  0
XRECORD
  5
41F
102
{ACAD_REACTORS
330
3FA
102
}
330
3FA
100
AcDbXrecord
280
     1
290
     0
  0
XRECORD
  5
420
102
{ACAD_REACTORS
330
3FA
102
}
330
3FA
100
AcDbXrecord
280
     1
 90
        1
  0
XRECORD
  5
421
102
{ACAD_REACTORS
330
3FA
102
}
330
3FA
100
AcDbXrecord
280
     1
 40
0.0
  0
XRECORD
  5
422
102
{ACAD_REACTORS
330
3FA
102
}
330
3FA
100
AcDbXrecord
280
     1
 40
0.0
  0
XRECORD
  5
423
102
{ACAD_REACTORS
330
3FA
102
}
330
3FA
100
AcDbXrecord
280
     1
1000
Portrait
  0
XRECORD
  5
424
102
{ACAD_REACTORS
330
3FA
102
}
330
3FA
100
AcDbXrecord
280
     1
 40
297.0
  0
XRECORD
  5
425
102
{ACAD_REACTORS
330
3FA
102
}
330
3FA
100
AcDbXrecord
280
     1
 40
210.0
  0
XRECORD
  5
426
102
{ACAD_REACTORS
330
3FA
102
}
330
3FA
100
AcDbXrecord
280
     1
1000
1:1
  0
XRECORD
  5
427
102
{ACAD_REACTORS
330
3FA
102
}
330
3FA
100
AcDbXrecord
280
     1
290
     1
  0
XRECORD
  5
428
102
{ACAD_REACTORS
330
3FA
102
}
330
3FA
100
AcDbXrecord
280
     1
290
     0
  0
XRECORD
  5
429
102
{ACAD_REACTORS
330
3FA
102
}
330
3FA
100
AcDbXrecord
280
     1
1000
Inside
  0
XRECORD
  5
42A
102
{ACAD_REACTORS
330
3FA
102
}
330
3FA
100
AcDbXrecord
280
     1
1000
Arial,10,-1,5,50,0,0,0,0,0
  0
XRECORD
  5
42B
102
{ACAD_REACTORS
330
3FA
102
}
330
3FA
100
AcDbXrecord
280
     1
1000
TopLeft
  0
XRECORD
  5
42C
102
{ACAD_REACTORS
330
3FA
102
}
330
3FA
100
AcDbXrecord
280
     1
1000
3.27.8
  0
XRECORD
  5
42D
102
{ACAD_REACTORS
330
3FA
102
}
330
3FA
100
AcDbXrecord
280
     1
 90
        4
  0
XRECORD
  5
42E
102
{ACAD_REACTORS
330
3FA
102
}
330
3FA
100
AcDbXrecord
280
     1
  0
XRECORD
  5
42F
102
{ACAD_REACTORS
330
3FA
102
}
330
3FA
100
AcDbXrecord
280
     1
 40
262.390831211884
  0
XRECORD
  5
430
102
{ACAD_REACTORS
330
3FA
102
}
330
3FA
100
AcDbXrecord
280
     1
 40
361.3628114058403
  0
DICTIONARY
  5
486
330
3F5
100
AcDbDictionary
280
     1
281
     1
  3
ACAD_ROUNDTRIP_2008_TABLESTYLE_CELLSTYLEMAP
360
487
  0
CELLSTYLEMAP
  5
487
102
{ACAD_REACTORS
330
486
102
}
330
486
100
AcDbCellStyleMap
 90
        3
300
CELLSTYLE
  1
TABLEFORMAT_BEGIN
 90
        5
170
     1
 91
        0
 92
    32768
 62
   257
 93
        1
300
CONTENTFORMAT
  1
CONTENTFORMAT_BEGIN
 90
        0
 91
        0
 92
        4
 93
        0
300

 40
0.0
140
1.0
 94
        5
 62
     0
340
39D
144
0.25
309
CONTENTFORMAT_END
171
     1
301
MARGIN
  1
CELLMARGIN_BEGIN
 40
0.06
 40
0.06
 40
0.06
 40
0.06
 40
0.06
 40
0.06
309
CELLMARGIN_END
 94
        6
 95
        1
302
GRIDFORMAT
  1
GRIDFORMAT_BEGIN
 90
        0
 91
        1
 62
     0
 92
       -2
340
39F
 93
        0
 40
0.045
309
GRIDFORMAT_END
 95
        2
302
GRIDFORMAT
  1
GRIDFORMAT_BEGIN
 90
        0
 91
        1
 62
     0
 92
       -2
340
39F
 93
        0
 40
0.045
309
GRIDFORMAT_END
 95
        4
302
GRIDFORMAT
  1
GRIDFORMAT_BEGIN
 90
        0
 91
        1
 62
     0
 92
       -2
340
39F
 93
        0
 40
0.045
309
GRIDFORMAT_END
 95
        8
302
GRIDFORMAT
  1
GRIDFORMAT_BEGIN
 90
        0
 91
        1
 62
     0
 92
       -2
340
39F
 93
        0
 40
0.045
309
GRIDFORMAT_END
 95
       16
302
GRIDFORMAT
  1
GRIDFORMAT_BEGIN
 90
        0
 91
        1
 62
     0
 92
       -2
340
39F
 93
        0
 40
0.045
309
GRIDFORMAT_END
 95
       32
302
GRIDFORMAT
  1
GRIDFORMAT_BEGIN
 90
        0
 91
        1
 62
     0
 92
       -2
340
39F
 93
        0
 40
0.045
309
GRIDFORMAT_END
309
TABLEFORMAT_END
  1
CELLSTYLE_BEGIN
 90
        1
 91
        1
300
_TITLE
309
CELLSTYLE_END
300
CELLSTYLE
  1
TABLEFORMAT_BEGIN
 90
        5
170
     1
 91
        0
 92
        0
 62
   257
 93
        1
300
CONTENTFORMAT
  1
CONTENTFORMAT_BEGIN
 90
        0
 91
        0
 92
        4
 93
        0
300

 40
0.0
140
1.0
 94
        5
 62
     0
340
39D
144
0.18
309
CONTENTFORMAT_END
171
     1
301
MARGIN
  1
CELLMARGIN_BEGIN
 40
0.06
 40
0.06
 40
0.06
 40
0.06
 40
0.06
 40
0.06
309
CELLMARGIN_END
 94
        6
 95
        1
302
GRIDFORMAT
  1
GRIDFORMAT_BEGIN
 90
        0
 91
        1
 62
     0
 92
       -2
340
39F
 93
        0
 40
0.045
309
GRIDFORMAT_END
 95
        2
302
GRIDFORMAT
  1
GRIDFORMAT_BEGIN
 90
        0
 91
        1
 62
     0
 92
       -2
340
39F
 93
        0
 40
0.045
309
GRIDFORMAT_END
 95
        4
302
GRIDFORMAT
  1
GRIDFORMAT_BEGIN
 90
        0
 91
        1
 62
     0
 92
       -2
340
39F
 93
        0
 40
0.045
309
GRIDFORMAT_END
 95
        8
302
GRIDFORMAT
  1
GRIDFORMAT_BEGIN
 90
        0
 91
        1
 62
     0
 92
       -2
340
39F
 93
        0
 40
0.045
309
GRIDFORMAT_END
 95
       16
302
GRIDFORMAT
  1
GRIDFORMAT_BEGIN
 90
        0
 91
        1
 62
     0
 92
       -2
340
39F
 93
        0
 40
0.045
309
GRIDFORMAT_END
 95
       32
302
GRIDFORMAT
  1
GRIDFORMAT_BEGIN
 90
        0
 91
        1
 62
     0
 92
       -2
340
39F
 93
        0
 40
0.045
309
GRIDFORMAT_END
309
TABLEFORMAT_END
  1
CELLSTYLE_BEGIN
 90
        2
 91
        1
300
_HEADER
309
CELLSTYLE_END
300
CELLSTYLE
  1
TABLEFORMAT_BEGIN
 90
        5
170
     1
 91
        0
 92
        0
 62
   257
 93
        1
300
CONTENTFORMAT
  1
CONTENTFORMAT_BEGIN
 90
        0
 91
        0
 92
        4
 93
        0
300

 40
0.0
140
1.0
 94
        2
 62
     0
340
39D
144
0.18
309
CONTENTFORMAT_END
171
     1
301
MARGIN
  1
CELLMARGIN_BEGIN
 40
0.06
 40
0.06
 40
0.06
 40
0.06
 40
0.06
 40
0.06
309
CELLMARGIN_END
 94
        6
 95
        1
302
GRIDFORMAT
  1
GRIDFORMAT_BEGIN
 90
        0
 91
        1
 62
     0
 92
       -2
340
39F
 93
        0
 40
0.045
309
GRIDFORMAT_END
 95
        2
302
GRIDFORMAT
  1
GRIDFORMAT_BEGIN
 90
        0
 91
        1
 62
     0
 92
       -2
340
39F
 93
        0
 40
0.045
309
GRIDFORMAT_END
 95
        4
302
GRIDFORMAT
  1
GRIDFORMAT_BEGIN
 90
        0
 91
        1
 62
     0
 92
       -2
340
39F
 93
        0
 40
0.045
309
GRIDFORMAT_END
 95
        8
302
GRIDFORMAT
  1
GRIDFORMAT_BEGIN
 90
        0
 91
        1
 62
     0
 92
       -2
340
39F
 93
        0
 40
0.045
309
GRIDFORMAT_END
 95
       16
302
GRIDFORMAT
  1
GRIDFORMAT_BEGIN
 90
        0
 91
        1
 62
     0
 92
       -2
340
39F
 93
        0
 40
0.045
309
GRIDFORMAT_END
 95
       32
302
GRIDFORMAT
  1
GRIDFORMAT_BEGIN
 90
        0
 91
        1
 62
     0
 92
       -2
340
39F
 93
        0
 40
0.045
309
GRIDFORMAT_END
309
TABLEFORMAT_END
  1
CELLSTYLE_BEGIN
 90
        3
 91
        2
300
_DATA
309
CELLSTYLE_END
  0
ENDSEC
  0
EOF
