G04 #@! TF.GenerationSoftware,KiCad,Pcbnew,6.0.11-2627ca5db0~126~ubuntu22.04.1*
G04 #@! TF.CreationDate,2023-03-31T14:28:34-07:00*
G04 #@! TF.ProjectId,arrow-cluster-choc,6172726f-772d-4636-9c75-737465722d63,rev?*
G04 #@! TF.SameCoordinates,Original*
G04 #@! TF.FileFunction,Legend,Top*
G04 #@! TF.FilePolarity,Positive*
%FSLAX46Y46*%
G04 Gerber Fmt 4.6, Leading zero omitted, Abs format (unit mm)*
G04 Created by KiCad (PCBNEW 6.0.11-2627ca5db0~126~ubuntu22.04.1) date 2023-03-31 14:28:34*
%MOMM*%
%LPD*%
G01*
G04 APERTURE LIST*
%ADD10C,0.150000*%
%ADD11C,0.120000*%
%ADD12R,1.700000X1.700000*%
%ADD13O,1.700000X1.700000*%
%ADD14C,3.400000*%
%ADD15C,1.900000*%
%ADD16C,1.200000*%
%ADD17C,3.200000*%
G04 APERTURE END LIST*
D10*
X137066666Y-63222380D02*
X137066666Y-63936666D01*
X137019047Y-64079523D01*
X136923809Y-64174761D01*
X136780952Y-64222380D01*
X136685714Y-64222380D01*
X138066666Y-64222380D02*
X137495238Y-64222380D01*
X137780952Y-64222380D02*
X137780952Y-63222380D01*
X137685714Y-63365238D01*
X137590476Y-63460476D01*
X137495238Y-63508095D01*
D11*
X136070000Y-62330000D02*
X136070000Y-61000000D01*
X136070000Y-59730000D02*
X136070000Y-49510000D01*
X138730000Y-59730000D02*
X138730000Y-49510000D01*
X138730000Y-59730000D02*
X136070000Y-59730000D01*
X138730000Y-49510000D02*
X136070000Y-49510000D01*
X137400000Y-62330000D02*
X136070000Y-62330000D01*
%LPC*%
D12*
X137400000Y-61000000D03*
D13*
X137400000Y-58460000D03*
X137400000Y-55920000D03*
X137400000Y-53380000D03*
X137400000Y-50840000D03*
D14*
X94234000Y-72390000D03*
D15*
X88734000Y-72390000D03*
X99734000Y-72390000D03*
D16*
X89014000Y-76590000D03*
D17*
X83100000Y-44304339D03*
D16*
X127114000Y-76590000D03*
D15*
X126834000Y-72390000D03*
X137834000Y-72390000D03*
D14*
X132334000Y-72390000D03*
D17*
X83100000Y-86500000D03*
D15*
X107784000Y-53340000D03*
X118784000Y-53340000D03*
D16*
X108064000Y-57540000D03*
D14*
X113284000Y-53340000D03*
D17*
X143500000Y-44200000D03*
D15*
X118784000Y-72390000D03*
D14*
X113284000Y-72390000D03*
D15*
X107784000Y-72390000D03*
D16*
X108064000Y-76590000D03*
D17*
X143563003Y-86500000D03*
M02*
